<svg width="1355" height="960" viewBox="0 0 1355 960" fill="none" xmlns="http://www.w3.org/2000/svg">
<path opacity="0.217391" d="M1763.45 1391.87C1769.44 1400.8 1780.32 1404.69 1789.93 1401.35L2213.04 1253.94C2218.54 1252.02 2223 1247.92 2225.47 1242.52L2498.94 644.87C2500.86 640.671 2501.48 635.908 2500.71 631.212L2404.64 46.0967C2403.2 37.2882 2397.08 29.8583 2388.86 26.9169L2012.57 -107.716C2004.35 -110.657 1995.43 -108.603 1989.56 -102.413L1599.51 308.778C1596.38 312.078 1594.34 316.329 1593.65 320.97L1495.88 981.482C1494.99 987.454 1496.41 993.655 1499.84 998.764L1763.45 1391.87Z" stroke="url(#paint0_linear_2_487)" stroke-opacity="0.2" stroke-width="4"/>
<path opacity="0.231884" d="M1700.18 1379.67C1705.7 1388.84 1716.24 1393.29 1725.91 1390.55L2152.46 1269.56C2158.07 1267.97 2162.75 1264.11 2165.5 1258.82L2464.15 684.064C2466.3 679.932 2467.15 675.151 2466.59 670.365L2398.21 86.3059C2397.17 77.4477 2391.46 69.7192 2383.45 66.3332L2016.22 -88.8928C2008.2 -92.2788 1999.26 -90.7432 1993.11 -84.9245L1587.38 298.729C1584.05 301.874 1581.78 306.053 1580.87 310.706L1453.55 957.885C1452.38 963.844 1453.52 970.158 1456.72 975.472L1700.18 1379.67Z" stroke="url(#paint1_linear_2_487)" stroke-opacity="0.2" stroke-width="4"/>
<path opacity="0.246377" d="M1638.34 1365.81C1643.39 1375.18 1653.56 1380.16 1663.25 1378.03L2091.91 1283.43C2097.61 1282.17 2102.5 1278.57 2105.53 1273.4L2427.94 722.808C2430.31 718.753 2431.4 713.962 2431.06 709.091L2389.99 127.666C2389.37 118.782 2384.07 110.785 2376.3 106.973L2019.03 -68.1832C2011.26 -71.9949 2002.32 -70.975 1995.9 -65.5443L1576.03 289.902C1572.51 292.88 1570.01 296.978 1568.86 301.634L1413.01 933.888C1411.55 939.821 1412.39 946.236 1415.36 951.743L1638.34 1365.81Z" stroke="url(#paint2_linear_2_487)" stroke-opacity="0.2" stroke-width="4"/>
<path opacity="0.26087" d="M1578.01 1350.4C1582.57 1359.93 1592.34 1365.41 1602.02 1363.87L2031.47 1295.58C2037.25 1294.66 2042.34 1291.32 2045.64 1286.3L2390.33 761.019C2392.93 757.051 2394.27 752.257 2394.14 747.309L2379.97 170.055C2379.75 161.171 2374.89 152.935 2367.37 148.717L2020.93 -45.6587C2013.41 -49.8757 2004.5 -49.3661 1997.85 -44.3384L1565.4 282.332C1561.7 285.132 1558.96 289.139 1557.57 293.79L1374.25 909.604C1372.5 915.498 1373.04 922.001 1375.76 927.688L1578.01 1350.4Z" stroke="url(#paint3_linear_2_487)" stroke-opacity="0.2" stroke-width="4"/>
<path opacity="0.275362" d="M1519.25 1333.54C1523.32 1343.19 1532.66 1349.13 1542.29 1348.18L1971.22 1306.03C1977.06 1305.45 1982.35 1302.39 1985.92 1297.52L2351.36 798.614C2354.19 794.744 2355.78 789.958 2355.88 784.941L2368.08 213.352C2368.27 204.491 2363.85 196.047 2356.62 191.447L2021.83 -21.3938C2014.59 -25.9945 2005.74 -25.9881 1998.87 -21.3773L1555.43 276.052C1551.54 278.662 1548.56 282.566 1546.94 287.203L1337.28 885.147C1335.23 890.988 1335.47 897.563 1337.94 903.419L1519.25 1333.54Z" stroke="url(#paint4_linear_2_487)" stroke-opacity="0.2" stroke-width="4"/>
<path opacity="0.289855" d="M1462.11 1315.33C1465.69 1325.08 1474.58 1331.44 1484.12 1331.08L1911.25 1314.8C1917.13 1314.58 1922.6 1311.8 1926.44 1307.1L2311.07 835.515C2314.14 831.756 2315.97 826.989 2316.32 821.911L2354.32 257.434C2354.92 248.62 2350.94 240 2344.01 235.039L2021.66 4.53268C2014.73 -0.428893 2005.96 -0.916892 1998.89 3.26492L1546.04 271.09C1541.97 273.499 1538.76 277.287 1536.89 281.9L1302.09 860.629C1299.75 866.403 1299.67 873.036 1301.88 879.047L1462.11 1315.33Z" stroke="url(#paint5_linear_2_487)" stroke-opacity="0.2" stroke-width="4"/>
<path opacity="0.304348" d="M1406.63 1295.9C1409.72 1305.71 1418.15 1312.45 1427.58 1312.66L1851.63 1321.94C1857.54 1322.07 1863.18 1319.59 1867.28 1315.07L2269.51 871.646C2272.81 868.011 2274.9 863.274 2275.49 858.146L2338.66 302.177C2339.65 293.434 2336.14 284.669 2329.51 279.37L2020.36 32.039C2013.74 26.74 2005.08 25.768 1997.84 29.51L1537.17 267.471C1532.92 269.666 1529.48 273.326 1527.36 277.902L1268.67 836.164C1266.03 841.854 1265.64 848.529 1267.58 854.681L1406.63 1295.9Z" stroke="url(#paint6_linear_2_487)" stroke-opacity="0.2" stroke-width="4"/>
<path opacity="0.318841" d="M1352.87 1275.36C1355.48 1285.19 1363.42 1292.27 1372.7 1293.04L1792.43 1327.47C1798.35 1327.96 1804.15 1325.79 1808.51 1321.48L2226.72 906.934C2230.25 903.437 2232.61 898.744 2233.44 893.576L2321.07 347.456C2322.46 338.808 2319.41 329.927 2313.11 324.315L2017.86 61.0392C2011.57 55.4266 2003.04 53.9822 1995.65 57.2752L1528.75 265.215C1524.34 267.183 1520.66 270.701 1518.28 275.227L1237 811.861C1234.07 817.452 1233.35 824.151 1235.01 830.428L1352.87 1275.36Z" stroke="url(#paint7_linear_2_487)" stroke-opacity="0.2" stroke-width="4"/>
<path opacity="0.333333" d="M1300.86 1253.81C1302.99 1263.64 1310.44 1271.03 1319.54 1272.33L1733.74 1331.45C1739.65 1332.29 1745.6 1330.45 1750.2 1326.35L2182.75 941.309C2186.51 937.965 2189.14 933.33 2190.22 928.134L2301.57 393.148C2303.34 384.616 2300.75 375.651 2294.8 369.749L2014.1 91.4455C2008.15 85.5436 1999.78 83.6395 1992.26 86.4759L1520.72 264.338C1516.14 266.065 1512.23 269.426 1509.6 273.889L1207.06 787.829C1203.83 793.303 1202.79 800.008 1204.17 806.396L1300.86 1253.81Z" stroke="url(#paint8_linear_2_487)" stroke-opacity="0.2" stroke-width="4"/>
<path opacity="0.347826" d="M1250.63 1231.37C1252.28 1241.17 1259.24 1248.84 1268.14 1250.66L1675.61 1333.91C1681.5 1335.11 1687.58 1333.6 1692.42 1329.74L2137.66 974.707C2141.65 971.531 2144.54 966.969 2145.88 961.758L2280.13 439.129C2282.28 430.736 2280.15 421.716 2274.55 415.548L2009.03 123.168C2003.43 117 1995.23 114.65 1987.61 117.024L1512.99 264.851C1508.26 266.325 1504.12 269.512 1501.23 273.898L1178.81 764.173C1175.3 769.514 1173.93 776.206 1175.03 782.689L1250.63 1231.37Z" stroke="url(#paint9_linear_2_487)" stroke-opacity="0.2" stroke-width="4"/>
<path opacity="0.362319" d="M1202.2 1208.17C1203.39 1217.91 1209.85 1225.81 1218.53 1228.13L1618.12 1334.9C1623.96 1336.47 1630.15 1335.3 1635.24 1331.68L2091.51 1007.06C2095.72 1004.07 2098.88 999.599 2100.48 994.388L2256.76 485.275C2259.29 477.043 2257.61 467.996 2252.37 461.587L2002.59 156.112C1997.35 149.703 1989.35 146.921 1981.65 148.828L1505.5 266.761L1505.11 264.728L1505.5 266.761C1500.63 267.968 1496.26 270.966 1493.12 275.259L1152.24 740.999C1148.44 746.187 1146.74 752.847 1147.54 759.408L1202.2 1208.17Z" stroke="url(#paint10_linear_2_487)" stroke-opacity="0.2" stroke-width="4"/>
<path opacity="0.376812" d="M1155.61 1184.32C1156.34 1193.97 1162.3 1202.08 1170.73 1204.88L1561.33 1334.49C1567.11 1336.41 1573.4 1335.6 1578.71 1332.25L2044.35 1038.32C2048.78 1035.53 2052.21 1031.17 2054.08 1025.97L2231.49 531.466C2234.38 523.415 2233.15 514.368 2228.28 507.741L1994.75 190.185C1989.87 183.557 1982.09 180.359 1974.34 181.796L1498.19 270.071C1493.19 270.999 1488.59 273.791 1485.2 277.974L1127.29 718.406C1123.21 723.424 1121.18 730.031 1121.68 736.653L1155.61 1184.32Z" stroke="url(#paint11_linear_2_487)" stroke-opacity="0.2" stroke-width="4"/>
<path opacity="0.391304" d="M1110.84 1159.93C1111.13 1169.48 1116.6 1177.77 1124.76 1181.02L1505.3 1332.73C1511 1335 1517.37 1334.54 1522.89 1331.48L1996.26 1068.43C2000.89 1065.85 2004.59 1061.61 2006.72 1056.45L2204.31 577.583C2207.55 569.732 2206.78 560.712 2202.27 553.889L1985.46 225.289C1980.96 218.466 1973.41 214.866 1965.63 215.832L1490.98 274.78C1485.85 275.416 1481.05 277.985 1477.4 282.04L1103.92 696.493C1099.57 701.321 1097.21 707.855 1097.41 714.521L1110.84 1159.93Z" stroke="url(#paint12_linear_2_487)" stroke-opacity="0.2" stroke-width="4"/>
<path opacity="0.405797" d="M1067.93 1135.13C1067.78 1144.55 1072.76 1152.98 1080.63 1156.67L1450.09 1329.66C1455.69 1332.28 1462.12 1332.2 1467.83 1329.44L1947.28 1097.33C1952.12 1094.99 1956.09 1090.9 1958.49 1085.78L2175.26 623.507C2178.84 615.875 2178.51 606.906 2174.38 599.91L1974.7 261.326C1970.57 254.33 1963.27 250.344 1955.48 250.84L1483.8 280.882C1478.57 281.215 1473.56 283.543 1469.66 287.452L1082.08 675.352C1077.47 679.972 1074.78 686.411 1074.68 693.103L1067.93 1135.13Z" stroke="url(#paint13_linear_2_487)" stroke-opacity="0.2" stroke-width="4"/>
<path opacity="0.42029" d="M1026.86 1110.02C1026.3 1119.3 1030.78 1127.85 1038.36 1131.95L1395.75 1325.37C1401.23 1328.34 1407.7 1328.63 1413.6 1326.18L1897.51 1124.99C1902.53 1122.9 1906.76 1118.97 1909.43 1113.92L2144.36 669.123C2148.27 661.728 2148.37 652.833 2144.62 645.685L1962.43 298.198C1958.68 291.05 1951.63 286.695 1943.87 286.722L1476.58 288.367C1471.27 288.386 1466.06 290.456 1461.91 294.201L1061.73 655.073C1056.85 659.467 1053.84 665.79 1053.44 672.49L1026.86 1110.02Z" stroke="url(#paint14_linear_2_487)" stroke-opacity="0.2" stroke-width="4"/>
<path opacity="0.434783" d="M987.632 1084.74C986.662 1093.85 990.666 1102.5 997.928 1106.99L1342.34 1319.92C1347.67 1323.21 1354.17 1323.89 1360.23 1321.77L1846.99 1151.36C1852.19 1149.54 1856.68 1145.79 1859.61 1140.82L2111.66 714.319C2115.88 707.179 2116.4 698.38 2113.03 691.1L1948.63 335.806C1945.26 328.526 1938.49 323.817 1930.76 323.379L1469.26 297.221C1463.88 296.916 1458.5 298.711 1454.1 302.273L1042.79 635.743C1037.67 639.893 1034.34 646.078 1033.63 652.768L987.632 1084.74Z" stroke="url(#paint15_linear_2_487)" stroke-opacity="0.2" stroke-width="4"/>
<path opacity="0.449275" d="M950.237 1059.38C948.873 1068.31 952.402 1077.04 959.341 1081.9L1289.88 1313.36C1295.06 1316.98 1301.56 1318.04 1307.76 1316.26L1795.81 1176.4C1801.17 1174.86 1805.9 1171.33 1809.11 1166.46L2077.18 758.986C2081.7 752.115 2082.63 743.433 2079.64 736.041L1933.28 374.049C1930.29 366.657 1923.8 361.61 1916.14 360.712L1461.77 307.425C1456.34 306.788 1450.79 308.293 1446.17 311.652L1025.21 617.443C1019.86 621.329 1016.22 627.355 1015.2 634.017L950.237 1059.38Z" stroke="url(#paint16_linear_2_487)" stroke-opacity="0.2" stroke-width="4"/>
<path opacity="0.463768" d="M914.656 1034.07C912.911 1042.81 915.973 1051.59 922.578 1056.8L1238.44 1305.77C1243.44 1309.72 1249.92 1311.16 1256.25 1309.74L1744.04 1200.09C1749.55 1198.85 1754.51 1195.54 1757.97 1190.8L2040.97 803.019C2045.78 796.432 2047.11 787.885 2044.5 780.4L1916.36 412.827C1913.75 405.342 1907.57 399.974 1900 398.621L1454.05 318.957C1448.59 317.983 1442.89 319.181 1438.05 322.318L1008.92 600.248C1003.35 603.854 999.412 609.701 998.091 616.317L914.656 1034.07Z" stroke="url(#paint17_linear_2_487)" stroke-opacity="0.2" stroke-width="4"/>
<path opacity="0.478261" d="M880.869 1008.92C878.756 1017.45 881.359 1026.27 887.621 1031.8L1188.04 1297.23C1192.85 1301.48 1199.29 1303.31 1205.72 1302.25L1691.75 1222.41C1697.39 1221.48 1702.57 1218.41 1706.29 1213.81L2003.09 846.314C2008.16 840.026 2009.89 831.632 2007.66 824.071L1897.88 452.041C1895.65 444.48 1889.78 438.806 1882.31 437.006L1446.03 331.792C1440.57 330.475 1434.73 331.353 1429.68 334.25L993.853 584.231C988.083 587.54 983.851 593.186 982.228 599.738L880.869 1008.92Z" stroke="url(#paint18_linear_2_487)" stroke-opacity="0.2" stroke-width="4"/>
<path opacity="0.492754" d="M848.848 984.028C846.379 992.341 848.531 1001.18 854.444 1007.02L1138.72 1287.8C1143.32 1292.35 1149.7 1294.56 1156.21 1293.88L1639.02 1243.32C1644.76 1242.72 1650.16 1239.91 1654.12 1235.48L1963.58 888.775C1968.92 882.798 1971.02 874.573 1969.17 866.954L1877.83 491.591C1875.98 483.971 1870.42 478.007 1863.08 475.768L1437.65 345.9C1432.21 344.237 1426.26 344.781 1421.02 347.422L979.936 569.457C973.981 572.455 969.468 577.881 967.546 584.351L848.848 984.028Z" stroke="url(#paint19_linear_2_487)" stroke-opacity="0.2" stroke-width="4"/>
<path opacity="0.507246" d="M818.56 959.511C815.747 967.598 817.454 976.443 823.011 982.57L1090.51 1277.56C1094.89 1282.39 1101.17 1284.98 1107.75 1284.68L1585.92 1262.81C1591.75 1262.55 1597.34 1260.03 1601.53 1255.77L1922.52 930.308C1928.09 924.654 1930.57 916.613 1929.09 908.951L1856.21 531.377C1854.73 523.715 1849.5 517.478 1842.31 514.81L1428.86 361.247C1423.45 359.238 1417.42 359.438 1412 361.804L967.091 555.988C960.97 558.66 956.188 563.846 953.972 570.217L818.56 959.511Z" stroke="url(#paint20_linear_2_487)" stroke-opacity="0.2" stroke-width="4"/>
<path opacity="0.521739" d="M789.967 935.469C786.821 943.32 788.092 952.155 793.287 958.552L1043.44 1266.58C1047.58 1271.68 1053.75 1274.65 1060.36 1274.74L1532.53 1280.88C1538.42 1280.96 1544.18 1278.74 1548.6 1274.68L1879.96 970.824C1885.76 965.503 1888.59 957.66 1887.49 949.971L1833.02 571.303C1831.91 563.614 1827.02 557.119 1820.01 554.032L1419.6 377.797C1414.25 375.444 1408.15 375.29 1402.57 377.367L955.241 543.879C948.974 546.212 943.938 551.142 941.432 557.396L789.967 935.469Z" stroke="url(#paint21_linear_2_487)" stroke-opacity="0.2" stroke-width="4"/>
<path opacity="0.536232" d="M763.025 912.005C759.559 919.612 760.4 928.424 765.227 935.071L997.523 1254.94C1001.41 1260.29 1007.45 1263.64 1014.07 1264.11L1478.92 1297.52C1484.85 1297.95 1490.76 1296.04 1495.4 1292.2L1835.97 1010.24C1841.98 1005.26 1845.16 997.629 1844.42 989.928L1808.28 611.273C1807.55 603.572 1803 596.834 1796.18 593.341L1409.81 395.511C1404.55 392.817 1398.41 392.303 1392.69 394.077L944.307 533.181C937.914 535.164 932.639 539.82 929.849 545.942L763.025 912.005Z" stroke="url(#paint22_linear_2_487)" stroke-opacity="0.2" stroke-width="4"/>
<path opacity="0.550725" d="M737.687 889.213C733.909 896.568 734.327 905.344 738.782 912.225L952.782 1242.72C956.399 1248.3 962.282 1252.01 968.898 1252.88L1425.17 1312.73C1431.12 1313.51 1437.16 1311.93 1441.99 1308.32L1790.62 1048.47C1796.83 1043.85 1800.34 1036.44 1799.98 1028.74L1782.01 651.191C1781.64 643.492 1777.45 636.528 1770.83 632.641L1399.45 414.347C1394.29 411.317 1388.14 410.438 1382.3 411.898L934.205 523.936C927.707 525.561 922.209 529.928 919.142 535.9L737.687 889.213Z" stroke="url(#paint23_linear_2_487)" stroke-opacity="0.2" stroke-width="4"/>
<path opacity="0.565217" d="M713.899 867.187C709.82 874.283 709.82 883.012 713.899 890.109L909.231 1229.98C912.568 1235.79 918.272 1239.85 924.851 1241.11L1371.36 1326.5C1377.29 1327.64 1383.43 1326.39 1388.45 1323.04L1744 1085.46C1750.38 1081.19 1754.22 1074.01 1754.22 1066.33V690.964C1754.22 683.283 1750.38 676.108 1744 671.841L1388.45 434.258C1383.43 430.901 1377.29 429.656 1371.36 430.791L924.851 516.185C918.272 517.444 912.568 521.508 909.231 527.315L713.899 867.187Z" stroke="url(#paint24_linear_2_487)" stroke-opacity="0.2" stroke-width="4"/>
<path opacity="0.57971" d="M691.604 846.017C687.235 852.847 686.822 861.517 690.519 868.812L866.879 1216.81C869.925 1222.82 875.429 1227.23 881.947 1228.87L1317.54 1338.86C1323.44 1340.35 1329.66 1339.45 1334.86 1336.36L1696.17 1121.11C1702.72 1117.21 1706.87 1110.28 1707.23 1102.63L1724.94 730.503C1725.31 722.852 1721.84 715.484 1715.7 710.849L1376.79 455.198C1371.92 451.525 1365.82 449.913 1359.81 450.716L916.162 509.961C909.524 510.847 903.632 514.596 900.032 520.223L691.604 846.017Z" stroke="url(#paint25_linear_2_487)" stroke-opacity="0.2" stroke-width="4"/>
<path opacity="0.594203" d="M670.74 825.787C666.089 832.344 665.268 840.943 668.58 848.421L825.731 1203.29C828.475 1209.48 833.758 1214.22 840.191 1216.24L1263.8 1349.81C1269.64 1351.65 1275.92 1351.1 1281.26 1348.28L1647.23 1155.39C1653.92 1151.86 1658.37 1145.19 1659.1 1137.58L1694.21 769.718C1694.94 762.112 1691.85 754.566 1685.96 749.581L1364.42 477.118C1359.72 473.14 1353.68 471.166 1347.63 471.629L908.051 505.29C901.376 505.801 895.315 509.223 891.46 514.656L670.74 825.787Z" stroke="url(#paint26_linear_2_487)" stroke-opacity="0.2" stroke-width="4"/>
<path opacity="0.608696" d="M651.243 806.578C646.319 812.853 645.094 821.37 648.015 829.014L785.791 1189.48C788.224 1195.84 793.266 1200.89 799.589 1203.29L1210.21 1359.36C1215.96 1361.55 1222.28 1361.36 1227.75 1358.83L1597.25 1188.22C1604.08 1185.07 1608.82 1178.66 1609.9 1171.11L1662.05 808.525C1663.14 800.977 1660.43 793.271 1654.82 787.95L1351.29 499.965C1346.79 495.696 1340.84 493.365 1334.76 493.487L900.432 502.195C893.743 502.329 887.531 505.414 883.432 510.639L651.243 806.578Z" stroke="url(#paint27_linear_2_487)" stroke-opacity="0.2" stroke-width="4"/>
<path opacity="0.623188" d="M633.041 788.463C627.854 794.45 626.228 802.874 628.755 810.667L747.057 1175.46C749.169 1181.97 753.952 1187.32 760.143 1190.09L1156.84 1367.55C1162.48 1370.07 1168.8 1370.24 1174.39 1368L1546.33 1219.56C1553.27 1216.79 1558.29 1210.66 1559.73 1203.19L1628.51 846.842C1629.96 839.366 1627.64 831.516 1622.32 825.876L1337.37 523.687C1333.08 519.143 1327.25 516.463 1321.17 516.242L893.218 500.691C886.539 500.448 880.195 503.19 875.861 508.193L633.041 788.463Z" stroke="url(#paint28_linear_2_487)" stroke-opacity="0.2" stroke-width="4"/>
<path opacity="0.637681" d="M616.063 771.513C610.621 777.205 608.598 785.522 610.726 793.447L709.524 1161.31C711.307 1167.95 715.813 1173.57 721.85 1176.7L1103.74 1374.39C1109.25 1377.24 1115.55 1377.76 1121.24 1375.83L1494.54 1249.37C1501.58 1246.98 1506.87 1241.14 1508.67 1233.75L1593.63 884.587C1595.43 877.198 1593.51 869.222 1588.49 863.281L1322.63 548.228C1318.57 543.427 1312.88 540.408 1306.82 539.845L886.324 500.789C879.676 500.171 873.219 502.563 868.66 507.332L616.063 771.513Z" stroke="url(#paint29_linear_2_487)" stroke-opacity="0.2" stroke-width="4"/>
<path opacity="0.652174" d="M600.233 755.793C594.546 761.181 592.127 769.379 593.852 777.419L673.182 1147.1C674.63 1153.84 678.842 1159.73 684.705 1163.2L1050.99 1379.91C1056.35 1383.08 1062.61 1383.95 1068.37 1382.34L1441.99 1277.6C1449.11 1275.6 1454.66 1270.05 1456.81 1262.76L1557.45 921.686C1559.6 914.397 1558.08 906.315 1553.38 900.09L1307.03 573.533C1303.23 568.492 1297.7 565.146 1291.68 564.244L879.662 502.494C873.067 501.505 866.516 503.542 861.742 508.064L600.233 755.793Z" stroke="url(#paint30_linear_2_487)" stroke-opacity="0.2" stroke-width="4"/>
<path opacity="0.666667" d="M585.471 741.362C579.547 746.439 576.736 754.502 578.054 762.639L638.018 1132.89C639.125 1139.73 643.029 1145.86 648.698 1149.65L998.652 1384.15C1003.83 1387.62 1010.03 1388.84 1015.85 1387.54L1388.77 1304.22C1395.95 1302.61 1401.75 1297.36 1404.25 1290.19L1520.03 958.066C1522.53 950.894 1521.41 942.723 1517.05 936.235L1290.55 599.545C1287.01 594.284 1281.67 590.626 1275.71 589.389L873.146 505.806C866.625 504.452 859.999 506.129 855.022 510.394L585.471 741.362Z" stroke="url(#paint31_linear_2_487)" stroke-opacity="0.2" stroke-width="4"/>
<path opacity="0.681159" d="M571.697 728.274C565.546 733.029 562.346 740.944 563.252 749.159L604.018 1118.77C604.779 1125.67 608.362 1132.02 613.819 1136.13L946.779 1387.15C951.764 1390.9 957.875 1392.46 963.744 1391.48L1334.96 1329.21C1342.2 1327.99 1348.23 1323.05 1351.07 1316.01L1481.41 993.659C1484.26 986.618 1483.55 978.38 1479.53 971.646L1273.17 626.206C1269.91 620.744 1264.76 616.788 1258.89 615.224L866.693 510.718C860.266 509.005 853.584 510.321 848.415 514.318L571.697 728.274Z" stroke="url(#paint32_linear_2_487)" stroke-opacity="0.2" stroke-width="4"/>
<path opacity="0.695652" d="M558.825 716.575C552.458 721.001 548.872 728.751 549.363 737.025L571.162 1104.79C571.574 1111.74 574.823 1118.28 580.05 1122.7L895.433 1388.93C900.208 1392.96 906.214 1394.85 912.107 1394.18L1280.66 1352.54C1287.93 1351.72 1294.19 1347.1 1297.38 1340.21L1441.66 1028.4C1444.85 1021.51 1444.56 1013.22 1440.89 1006.26L1254.86 653.457C1251.88 647.815 1246.96 643.578 1241.19 641.693L860.217 517.22C853.903 515.157 847.183 516.111 841.834 519.829L558.825 716.575Z" stroke="url(#paint33_linear_2_487)" stroke-opacity="0.2" stroke-width="4"/>
<path opacity="0.710145" d="M546.772 706.307C540.2 710.395 536.231 717.964 536.302 726.275L539.427 1091.02C539.487 1098 542.392 1104.72 547.375 1109.42L844.669 1389.54C849.219 1393.82 855.101 1396.04 861.002 1395.69L1225.97 1374.2C1233.26 1373.77 1239.73 1369.49 1243.25 1362.76L1400.83 1062.23C1404.36 1055.5 1404.49 1047.19 1401.19 1040.03L1235.6 681.239C1232.93 675.438 1228.24 670.936 1222.59 668.741L853.638 525.296C847.454 522.892 840.713 523.483 835.196 526.915L546.772 706.307Z" stroke="url(#paint34_linear_2_487)" stroke-opacity="0.2" stroke-width="4"/>
<path opacity="0.724638" d="M535.448 697.506C528.683 701.246 524.337 708.615 523.986 716.943L508.788 1077.53C508.494 1084.51 511.046 1091.39 515.77 1096.35L794.54 1389.03C798.851 1393.55 804.593 1396.08 810.485 1396.05L1170.98 1394.19C1178.27 1394.16 1184.93 1390.22 1188.8 1383.67L1358.98 1095.09C1362.85 1088.54 1363.4 1080.23 1360.47 1072.89L1215.39 709.492C1213.02 703.552 1208.58 698.805 1203.07 696.31L846.872 534.924C840.835 532.189 834.09 532.42 828.418 535.555L535.448 697.506Z" stroke="url(#paint35_linear_2_487)" stroke-opacity="0.2" stroke-width="4"/>
<path opacity="0.73913" d="M524.767 690.202C517.821 693.585 513.103 700.735 512.328 709.055L479.217 1064.37C478.568 1071.34 480.759 1078.35 485.212 1083.55L745.098 1387.44C749.158 1392.19 754.744 1395.02 760.612 1395.3L1115.78 1412.51C1123.05 1412.86 1129.91 1409.27 1134.1 1402.92L1316.19 1126.94C1320.38 1120.59 1321.36 1112.3 1318.81 1104.79L1194.2 738.157C1192.14 732.1 1187.97 727.124 1182.61 724.339L839.841 546.078C833.968 543.024 827.235 542.896 821.42 545.728L524.767 690.202Z" stroke="url(#paint36_linear_2_487)" stroke-opacity="0.2" stroke-width="4"/>
<path opacity="0.753623" d="M514.638 684.417C507.525 687.434 502.443 694.345 501.242 702.634L450.682 1051.61C449.679 1058.54 451.503 1065.66 455.674 1071.1L696.388 1384.82C700.187 1389.78 705.604 1392.9 711.434 1393.49L1060.46 1429.15C1067.7 1429.89 1074.73 1426.66 1079.24 1420.53L1272.51 1157.71C1277.02 1151.58 1278.43 1143.34 1276.27 1135.7L1172.03 767.175C1170.29 761.019 1166.39 755.834 1161.2 752.771L832.468 558.728C826.772 555.366 820.067 554.882 814.122 557.403L514.638 684.417Z" stroke="url(#paint37_linear_2_487)" stroke-opacity="0.2" stroke-width="4"/>
<path opacity="0.768116" d="M504.972 680.169C497.707 682.81 492.269 689.46 490.643 697.693L423.15 1039.3C421.793 1046.17 423.246 1053.38 427.124 1059.03L648.457 1381.24C651.988 1386.38 657.223 1389.77 663.001 1390.68L1005.13 1444.13C1012.31 1445.25 1019.5 1442.4 1024.32 1436.5L1228.02 1187.39C1232.84 1181.49 1234.67 1173.32 1232.91 1165.57L1148.87 796.485C1147.45 790.251 1143.83 784.873 1138.82 781.544L824.677 572.839C819.171 569.181 812.51 568.344 806.449 570.548L504.972 680.169Z" stroke="url(#paint38_linear_2_487)" stroke-opacity="0.2" stroke-width="4"/>
<path opacity="0.782609" d="M495.679 677.467C488.278 679.725 482.496 686.093 480.445 694.242L396.585 1027.5C394.877 1034.29 395.954 1041.56 399.532 1047.4L601.347 1376.73C604.602 1382.04 609.645 1385.7 615.359 1386.91L949.856 1457.47C956.975 1458.97 964.307 1456.49 969.433 1450.85L1182.79 1215.92C1187.91 1210.27 1190.16 1202.2 1188.8 1194.36L1124.72 826.028C1123.62 819.735 1120.3 814.182 1115.47 810.599L816.396 588.37C811.093 584.429 804.489 583.244 798.325 585.125L495.679 677.467Z" stroke="url(#paint39_linear_2_487)" stroke-opacity="0.2" stroke-width="4"/>
<path opacity="0.797101" d="M486.669 676.316C479.15 678.183 473.035 684.245 470.563 692.284L370.948 1016.25C368.892 1022.94 369.591 1030.25 372.861 1036.27L555.098 1371.36C558.071 1376.82 562.912 1380.74 568.551 1382.24L894.74 1469.19C901.777 1471.07 909.236 1468.97 914.653 1463.6L1136.88 1243.27C1142.29 1237.9 1144.97 1229.95 1144.01 1222.05L1099.57 855.745C1098.81 849.412 1095.77 843.701 1091.15 839.874L807.554 605.277C802.464 601.067 795.933 599.537 789.678 601.089L486.669 676.316Z" stroke="url(#paint40_linear_2_487)" stroke-opacity="0.2" stroke-width="4"/>
<path opacity="0.811594" d="M477.85 676.715C470.232 678.183 463.8 683.918 460.912 691.818L346.196 1005.61C343.796 1012.17 344.116 1019.5 347.073 1025.67L509.745 1365.18C512.431 1370.79 517.061 1374.95 522.615 1376.74L839.866 1479.32C846.803 1481.56 854.37 1479.87 860.066 1474.79L1090.37 1269.43C1096.07 1264.35 1099.15 1256.55 1098.6 1248.61L1073.44 885.578C1073 879.222 1070.26 873.37 1065.84 869.311L798.082 623.512C793.216 619.045 786.769 617.176 780.438 618.396L477.85 676.715Z" stroke="url(#paint41_linear_2_487)" stroke-opacity="0.2" stroke-width="4"/>
<path opacity="0.826087" d="M469.138 678.654C461.441 679.718 454.709 685.103 451.412 692.835L322.29 995.608C319.551 1002.03 319.492 1009.36 322.129 1015.67L465.322 1358.26C467.717 1363.99 472.131 1368.38 477.59 1370.47L785.317 1487.89C792.139 1490.5 799.797 1489.2 805.757 1484.43L1043.34 1294.36C1049.3 1289.59 1052.78 1281.97 1052.64 1274.02L1046.31 915.469C1046.2 909.108 1043.77 903.129 1039.56 898.849L787.919 643.023C783.285 638.312 776.936 636.109 770.542 636.992L469.138 678.654Z" stroke="url(#paint42_linear_2_487)" stroke-opacity="0.2" stroke-width="4"/>
<path opacity="0.84058" d="M460.443 682.12C452.69 682.775 445.678 687.789 441.981 695.322L299.185 986.298C296.113 992.558 295.676 999.864 297.989 1006.29L421.86 1350.66C423.961 1356.5 428.152 1361.11 433.507 1363.48L731.177 1494.95C737.868 1497.9 745.595 1497.01 751.803 1492.57L995.85 1318.06C1002.06 1313.62 1005.94 1306.21 1006.21 1298.27L1018.21 945.36C1018.43 939.011 1016.31 932.919 1012.31 928.429L777.002 663.754C772.608 658.812 766.369 656.28 759.926 656.824L460.443 682.12Z" stroke="url(#paint43_linear_2_487)" stroke-opacity="0.2" stroke-width="4"/>
<path opacity="0.855072" d="M451.681 687.093C443.893 687.336 436.625 691.956 432.54 699.262L276.832 977.714C273.434 983.79 272.621 991.052 274.606 997.586L379.385 1342.44C381.19 1348.38 385.152 1353.2 390.396 1355.85L677.523 1500.53C684.067 1503.83 691.842 1503.35 698.28 1499.26L947.985 1340.51C954.423 1336.41 958.686 1329.24 959.364 1321.35L989.14 975.196C989.684 968.874 987.871 962.684 984.102 957.993L765.272 685.646C761.125 680.485 755.007 677.63 748.53 677.832L451.681 687.093Z" stroke="url(#paint44_linear_2_487)" stroke-opacity="0.2" stroke-width="4"/>
<path opacity="0.869565" d="M442.768 693.546C434.969 693.376 427.471 697.583 423.012 704.631L255.187 969.889C251.471 975.762 250.284 982.958 251.939 989.581L337.922 1333.67C339.428 1339.69 343.156 1344.72 348.281 1347.64L624.43 1504.69C630.812 1508.32 638.614 1508.26 645.262 1504.53L899.817 1361.7C906.465 1357.97 911.095 1351.06 912.18 1343.24L959.11 1004.92C959.981 998.642 958.479 992.366 954.938 987.483L752.676 708.636C748.783 703.269 742.798 700.097 736.299 699.955L442.768 693.546Z" stroke="url(#paint45_linear_2_487)" stroke-opacity="0.2" stroke-width="4"/>
<path opacity="0.884058" d="M433.624 701.449C425.839 700.866 418.137 704.642 413.322 711.402L234.199 962.856C230.175 968.506 228.618 975.617 229.94 982.311L297.49 1324.41C298.695 1330.51 302.185 1335.73 307.185 1338.91L571.971 1507.48C578.176 1511.43 585.981 1511.78 592.817 1508.43L851.418 1381.65C858.254 1378.3 863.234 1371.67 864.721 1363.95L928.137 1034.48C929.334 1028.26 928.146 1021.91 924.836 1016.84L739.161 732.658C735.528 727.097 729.688 723.613 723.181 723.126L433.624 701.449Z" stroke="url(#paint46_linear_2_487)" stroke-opacity="0.2" stroke-width="4"/>
<path opacity="0.898551" d="M424.168 710.764C416.424 709.772 408.55 713.1 403.398 719.544L213.82 956.642C209.496 962.05 207.573 969.055 208.56 975.805L258.108 1314.73C259.008 1320.89 262.256 1326.3 267.125 1329.75L520.214 1508.95C526.227 1513.21 534.011 1513.99 541.011 1511.03L802.86 1400.35C809.86 1397.39 815.172 1391.08 817.054 1383.48L896.237 1063.83C897.761 1057.68 896.887 1051.26 893.812 1046.02L724.682 757.644C721.313 751.901 715.628 748.112 709.129 747.279L424.168 710.764Z" stroke="url(#paint47_linear_2_487)" stroke-opacity="0.2" stroke-width="4"/>
<path opacity="0.913043" d="M414.328 721.449C406.649 720.053 398.636 722.919 393.17 729.019L193.998 951.27C189.386 956.417 187.103 963.297 187.753 970.087L219.788 1304.69C220.383 1310.91 223.384 1316.5 228.116 1320.21L469.224 1509.18C475.032 1513.74 482.77 1514.93 489.909 1512.38L754.214 1417.81C761.353 1415.26 766.976 1409.28 769.245 1401.84L863.431 1092.9C865.28 1086.84 864.723 1080.37 861.887 1074.96L709.194 783.523C706.095 777.609 700.576 773.521 694.097 772.342L414.328 721.449Z" stroke="url(#paint48_linear_2_487)" stroke-opacity="0.2" stroke-width="4"/>
<path opacity="0.927536" d="M404.031 733.458C396.445 731.664 388.328 734.059 382.573 739.789L174.683 946.762C169.795 951.628 167.157 958.364 167.469 965.179L182.542 1294.37C182.828 1300.63 185.578 1306.4 190.168 1310.37L419.061 1508.23C424.65 1513.06 432.317 1514.67 439.569 1512.53L705.551 1434.05C712.802 1431.91 718.712 1426.3 721.359 1419.04L829.741 1121.66C831.914 1115.7 831.677 1109.19 829.083 1103.61L692.66 810.22C689.835 804.146 684.492 799.766 678.049 798.242L404.031 733.458Z" stroke="url(#paint49_linear_2_487)" stroke-opacity="0.2" stroke-width="4"/>
<path opacity="0.942029" d="M393.209 746.739C385.742 744.559 377.558 746.475 371.541 751.811L155.824 943.133C150.672 947.701 147.685 954.274 147.658 961.098L146.376 1283.84C146.351 1290.13 148.845 1296.07 153.286 1300.29L369.782 1506.17C375.14 1511.26 382.71 1513.28 390.045 1511.56L656.938 1449.09C664.273 1447.38 670.444 1442.15 673.457 1435.09L795.189 1150.05C797.686 1144.2 797.771 1137.66 795.425 1131.92L675.042 837.66C672.497 831.438 667.34 826.772 660.947 824.905L393.209 746.739Z" stroke="url(#paint50_linear_2_487)" stroke-opacity="0.2" stroke-width="4"/>
<path opacity="0.956522" d="M381.797 761.237C374.475 758.683 366.261 760.115 360.013 765.036L137.366 940.397C131.966 944.65 128.637 951.041 128.27 957.859L111.293 1273.15C110.953 1279.47 113.187 1285.57 117.474 1290.05L321.437 1503.07C326.552 1508.41 333.999 1510.82 341.39 1509.53L608.439 1462.96C615.829 1461.67 622.235 1456.84 625.6 1450.02L759.801 1178.03C762.622 1172.31 763.033 1165.74 760.937 1159.85L656.311 865.766C654.048 859.407 649.089 854.461 642.759 852.254L381.797 761.237Z" stroke="url(#paint51_linear_2_487)" stroke-opacity="0.2" stroke-width="4"/>
<path opacity="0.971014" d="M369.737 776.892C362.585 773.979 354.38 774.929 347.934 779.415L119.261 938.564C113.628 942.485 109.964 948.676 109.257 955.473L77.2964 1262.39C76.6373 1268.72 78.6041 1274.99 82.7324 1279.72L274.076 1499C278.937 1504.57 286.236 1507.38 293.652 1506.52L560.12 1475.68C567.535 1474.82 574.146 1470.41 577.849 1463.85L723.607 1205.55C726.752 1199.97 727.492 1193.39 725.652 1187.35L636.441 894.459C634.465 887.973 629.713 882.755 623.462 880.21L369.737 776.892Z" stroke="url(#paint52_linear_2_487)" stroke-opacity="0.2" stroke-width="4"/>
<path opacity="0.985507" d="M356.972 793.641C350.015 790.388 341.857 790.859 335.246 794.895L101.456 937.64C95.6053 941.213 91.6161 947.186 90.5673 953.945L44.3803 1251.61C43.3973 1257.94 45.091 1264.38 49.0545 1269.36L227.74 1494.06C232.338 1499.84 239.463 1503.01 246.874 1502.59L512.039 1487.28C519.45 1486.86 526.234 1482.88 530.258 1476.6L686.635 1232.57C690.104 1227.15 691.178 1220.56 689.599 1214.37L615.409 923.657C613.724 917.056 609.19 911.574 603.032 908.695L356.972 793.641Z" stroke="url(#paint53_linear_2_487)" stroke-opacity="0.2" stroke-width="4"/>
<path d="M343.45 811.42C336.71 807.846 328.638 807.846 321.899 811.42L83.8983 937.629C77.848 940.837 73.5422 946.574 72.1522 953.28L12.5382 1240.88C11.226 1247.22 12.639 1253.81 16.4316 1259.04L182.466 1488.3C186.792 1494.28 193.72 1497.81 201.094 1497.81H464.254C471.629 1497.81 478.556 1494.28 482.882 1488.3L648.917 1259.04C652.709 1253.81 654.123 1247.22 652.81 1240.88L593.196 953.28C591.806 946.574 587.501 940.837 581.45 937.629L343.45 811.42Z" stroke="url(#paint54_linear_2_487)" stroke-opacity="0.2" stroke-width="4"/>
<defs>
<linearGradient id="paint0_linear_2_487" x1="1772.9" y1="1409.45" x2="2328.6" y2="-143.704" gradientUnits="userSpaceOnUse">
<stop stop-color="#FF1CF7"/>
<stop offset="1" stop-color="#00B0FF" stop-opacity="0.1"/>
</linearGradient>
<linearGradient id="paint1_linear_2_487" x1="1708.7" y1="1397.57" x2="2342.31" y2="-101.405" gradientUnits="userSpaceOnUse">
<stop stop-color="#FF1CF7"/>
<stop offset="1" stop-color="#00B0FF" stop-opacity="0.1"/>
</linearGradient>
<linearGradient id="paint2_linear_2_487" x1="1645.93" y1="1383.97" x2="2352.33" y2="-56.8929" gradientUnits="userSpaceOnUse">
<stop stop-color="#FF1CF7"/>
<stop offset="1" stop-color="#00B0FF" stop-opacity="0.1"/>
</linearGradient>
<linearGradient id="paint3_linear_2_487" x1="1584.65" y1="1368.73" x2="2358.55" y2="-10.6182" gradientUnits="userSpaceOnUse">
<stop stop-color="#FF1CF7"/>
<stop offset="1" stop-color="#00B0FF" stop-opacity="0.1"/>
</linearGradient>
<linearGradient id="paint4_linear_2_487" x1="1524.94" y1="1351.98" x2="2360.95" y2="36.9753" gradientUnits="userSpaceOnUse">
<stop stop-color="#FF1CF7"/>
<stop offset="1" stop-color="#00B0FF" stop-opacity="0.1"/>
</linearGradient>
<linearGradient id="paint5_linear_2_487" x1="1466.86" y1="1333.82" x2="2359.55" y2="85.463" gradientUnits="userSpaceOnUse">
<stop stop-color="#FF1CF7"/>
<stop offset="1" stop-color="#00B0FF" stop-opacity="0.1"/>
</linearGradient>
<linearGradient id="paint6_linear_2_487" x1="1410.45" y1="1314.37" x2="2354.42" y2="134.447" gradientUnits="userSpaceOnUse">
<stop stop-color="#FF1CF7"/>
<stop offset="1" stop-color="#00B0FF" stop-opacity="0.1"/>
</linearGradient>
<linearGradient id="paint7_linear_2_487" x1="1355.77" y1="1293.74" x2="2345.7" y2="183.563" gradientUnits="userSpaceOnUse">
<stop stop-color="#FF1CF7"/>
<stop offset="1" stop-color="#00B0FF" stop-opacity="0.1"/>
</linearGradient>
<linearGradient id="paint8_linear_2_487" x1="1302.85" y1="1272.06" x2="2333.57" y2="232.487" gradientUnits="userSpaceOnUse">
<stop stop-color="#FF1CF7"/>
<stop offset="1" stop-color="#00B0FF" stop-opacity="0.1"/>
</linearGradient>
<linearGradient id="paint9_linear_2_487" x1="1251.74" y1="1249.43" x2="2318.2" y2="280.935" gradientUnits="userSpaceOnUse">
<stop stop-color="#FF1CF7"/>
<stop offset="1" stop-color="#00B0FF" stop-opacity="0.1"/>
</linearGradient>
<linearGradient id="paint10_linear_2_487" x1="1202.45" y1="1226" x2="2299.84" y2="328.671" gradientUnits="userSpaceOnUse">
<stop stop-color="#FF1CF7"/>
<stop offset="1" stop-color="#00B0FF" stop-opacity="0.1"/>
</linearGradient>
<linearGradient id="paint11_linear_2_487" x1="1155.02" y1="1201.86" x2="2278.71" y2="375.5" gradientUnits="userSpaceOnUse">
<stop stop-color="#FF1CF7"/>
<stop offset="1" stop-color="#00B0FF" stop-opacity="0.1"/>
</linearGradient>
<linearGradient id="paint12_linear_2_487" x1="1109.45" y1="1177.16" x2="2255.07" y2="421.271" gradientUnits="userSpaceOnUse">
<stop stop-color="#FF1CF7"/>
<stop offset="1" stop-color="#00B0FF" stop-opacity="0.1"/>
</linearGradient>
<linearGradient id="paint13_linear_2_487" x1="1065.75" y1="1152" x2="2229.16" y2="465.874" gradientUnits="userSpaceOnUse">
<stop stop-color="#FF1CF7"/>
<stop offset="1" stop-color="#00B0FF" stop-opacity="0.1"/>
</linearGradient>
<linearGradient id="paint14_linear_2_487" x1="1023.93" y1="1126.5" x2="2201.21" y2="509.238" gradientUnits="userSpaceOnUse">
<stop stop-color="#FF1CF7"/>
<stop offset="1" stop-color="#00B0FF" stop-opacity="0.1"/>
</linearGradient>
<linearGradient id="paint15_linear_2_487" x1="983.983" y1="1100.8" x2="2171.47" y2="551.325" gradientUnits="userSpaceOnUse">
<stop stop-color="#FF1CF7"/>
<stop offset="1" stop-color="#00B0FF" stop-opacity="0.1"/>
</linearGradient>
<linearGradient id="paint16_linear_2_487" x1="945.895" y1="1075" x2="2140.14" y2="592.13" gradientUnits="userSpaceOnUse">
<stop stop-color="#FF1CF7"/>
<stop offset="1" stop-color="#00B0FF" stop-opacity="0.1"/>
</linearGradient>
<linearGradient id="paint17_linear_2_487" x1="909.65" y1="1049.22" x2="2107.44" y2="631.674" gradientUnits="userSpaceOnUse">
<stop stop-color="#FF1CF7"/>
<stop offset="1" stop-color="#00B0FF" stop-opacity="0.1"/>
</linearGradient>
<linearGradient id="paint18_linear_2_487" x1="875.228" y1="1023.59" x2="2073.53" y2="669.999" gradientUnits="userSpaceOnUse">
<stop stop-color="#FF1CF7"/>
<stop offset="1" stop-color="#00B0FF" stop-opacity="0.1"/>
</linearGradient>
<linearGradient id="paint19_linear_2_487" x1="842.6" y1="998.194" x2="2038.59" y2="707.167" gradientUnits="userSpaceOnUse">
<stop stop-color="#FF1CF7"/>
<stop offset="1" stop-color="#00B0FF" stop-opacity="0.1"/>
</linearGradient>
<linearGradient id="paint20_linear_2_487" x1="811.732" y1="973.16" x2="2002.75" y2="743.255" gradientUnits="userSpaceOnUse">
<stop stop-color="#FF1CF7"/>
<stop offset="1" stop-color="#00B0FF" stop-opacity="0.1"/>
</linearGradient>
<linearGradient id="paint21_linear_2_487" x1="782.585" y1="948.588" x2="1966.14" y2="778.351" gradientUnits="userSpaceOnUse">
<stop stop-color="#FF1CF7"/>
<stop offset="1" stop-color="#00B0FF" stop-opacity="0.1"/>
</linearGradient>
<linearGradient id="paint22_linear_2_487" x1="755.116" y1="924.58" x2="1928.84" y2="812.549" gradientUnits="userSpaceOnUse">
<stop stop-color="#FF1CF7"/>
<stop offset="1" stop-color="#00B0FF" stop-opacity="0.1"/>
</linearGradient>
<linearGradient id="paint23_linear_2_487" x1="729.273" y1="901.236" x2="1890.93" y2="845.948" gradientUnits="userSpaceOnUse">
<stop stop-color="#FF1CF7"/>
<stop offset="1" stop-color="#00B0FF" stop-opacity="0.1"/>
</linearGradient>
<linearGradient id="paint24_linear_2_487" x1="705.005" y1="878.648" x2="1852.46" y2="878.648" gradientUnits="userSpaceOnUse">
<stop stop-color="#FF1CF7"/>
<stop offset="1" stop-color="#00B0FF" stop-opacity="0.1"/>
</linearGradient>
<linearGradient id="paint25_linear_2_487" x1="682.253" y1="856.906" x2="1813.46" y2="910.745" gradientUnits="userSpaceOnUse">
<stop stop-color="#FF1CF7"/>
<stop offset="1" stop-color="#00B0FF" stop-opacity="0.1"/>
</linearGradient>
<linearGradient id="paint26_linear_2_487" x1="660.954" y1="836.096" x2="1773.94" y2="942.331" gradientUnits="userSpaceOnUse">
<stop stop-color="#FF1CF7"/>
<stop offset="1" stop-color="#00B0FF" stop-opacity="0.1"/>
</linearGradient>
<linearGradient id="paint27_linear_2_487" x1="641.042" y1="816.298" x2="1733.9" y2="973.49" gradientUnits="userSpaceOnUse">
<stop stop-color="#FF1CF7"/>
<stop offset="1" stop-color="#00B0FF" stop-opacity="0.1"/>
</linearGradient>
<linearGradient id="paint28_linear_2_487" x1="622.447" y1="797.587" x2="1693.32" y2="1004.3" gradientUnits="userSpaceOnUse">
<stop stop-color="#FF1CF7"/>
<stop offset="1" stop-color="#00B0FF" stop-opacity="0.1"/>
</linearGradient>
<linearGradient id="paint29_linear_2_487" x1="605.096" y1="780.032" x2="1652.15" y2="1034.82" gradientUnits="userSpaceOnUse">
<stop stop-color="#FF1CF7"/>
<stop offset="1" stop-color="#00B0FF" stop-opacity="0.1"/>
</linearGradient>
<linearGradient id="paint30_linear_2_487" x1="588.913" y1="763.697" x2="1610.34" y2="1065.09" gradientUnits="userSpaceOnUse">
<stop stop-color="#FF1CF7"/>
<stop offset="1" stop-color="#00B0FF" stop-opacity="0.1"/>
</linearGradient>
<linearGradient id="paint31_linear_2_487" x1="573.819" y1="748.643" x2="1567.85" y2="1095.17" gradientUnits="userSpaceOnUse">
<stop stop-color="#FF1CF7"/>
<stop offset="1" stop-color="#00B0FF" stop-opacity="0.1"/>
</linearGradient>
<linearGradient id="paint32_linear_2_487" x1="559.733" y1="734.921" x2="1524.59" y2="1125.04" gradientUnits="userSpaceOnUse">
<stop stop-color="#FF1CF7"/>
<stop offset="1" stop-color="#00B0FF" stop-opacity="0.1"/>
</linearGradient>
<linearGradient id="paint33_linear_2_487" x1="546.572" y1="722.579" x2="1480.5" y2="1154.73" gradientUnits="userSpaceOnUse">
<stop stop-color="#FF1CF7"/>
<stop offset="1" stop-color="#00B0FF" stop-opacity="0.1"/>
</linearGradient>
<linearGradient id="paint34_linear_2_487" x1="534.251" y1="711.659" x2="1435.5" y2="1184.2" gradientUnits="userSpaceOnUse">
<stop stop-color="#FF1CF7"/>
<stop offset="1" stop-color="#00B0FF" stop-opacity="0.1"/>
</linearGradient>
<linearGradient id="paint35_linear_2_487" x1="522.684" y1="702.195" x2="1389.51" y2="1213.41" gradientUnits="userSpaceOnUse">
<stop stop-color="#FF1CF7"/>
<stop offset="1" stop-color="#00B0FF" stop-opacity="0.1"/>
</linearGradient>
<linearGradient id="paint36_linear_2_487" x1="511.784" y1="694.218" x2="1342.46" y2="1242.3" gradientUnits="userSpaceOnUse">
<stop stop-color="#FF1CF7"/>
<stop offset="1" stop-color="#00B0FF" stop-opacity="0.1"/>
</linearGradient>
<linearGradient id="paint37_linear_2_487" x1="501.463" y1="687.75" x2="1294.28" y2="1270.79" gradientUnits="userSpaceOnUse">
<stop stop-color="#FF1CF7"/>
<stop offset="1" stop-color="#00B0FF" stop-opacity="0.1"/>
</linearGradient>
<linearGradient id="paint38_linear_2_487" x1="491.633" y1="682.808" x2="1244.93" y2="1298.78" gradientUnits="userSpaceOnUse">
<stop stop-color="#FF1CF7"/>
<stop offset="1" stop-color="#00B0FF" stop-opacity="0.1"/>
</linearGradient>
<linearGradient id="paint39_linear_2_487" x1="482.205" y1="679.405" x2="1194.36" y2="1326.14" gradientUnits="userSpaceOnUse">
<stop stop-color="#FF1CF7"/>
<stop offset="1" stop-color="#00B0FF" stop-opacity="0.1"/>
</linearGradient>
<linearGradient id="paint40_linear_2_487" x1="473.093" y1="677.546" x2="1142.55" y2="1352.75" gradientUnits="userSpaceOnUse">
<stop stop-color="#FF1CF7"/>
<stop offset="1" stop-color="#00B0FF" stop-opacity="0.1"/>
</linearGradient>
<linearGradient id="paint41_linear_2_487" x1="464.206" y1="677.229" x2="1089.49" y2="1378.46" gradientUnits="userSpaceOnUse">
<stop stop-color="#FF1CF7"/>
<stop offset="1" stop-color="#00B0FF" stop-opacity="0.1"/>
</linearGradient>
<linearGradient id="paint42_linear_2_487" x1="455.462" y1="678.45" x2="1035.2" y2="1403.09" gradientUnits="userSpaceOnUse">
<stop stop-color="#FF1CF7"/>
<stop offset="1" stop-color="#00B0FF" stop-opacity="0.1"/>
</linearGradient>
<linearGradient id="paint43_linear_2_487" x1="446.774" y1="681.196" x2="979.739" y2="1426.5" gradientUnits="userSpaceOnUse">
<stop stop-color="#FF1CF7"/>
<stop offset="1" stop-color="#00B0FF" stop-opacity="0.1"/>
</linearGradient>
<linearGradient id="paint44_linear_2_487" x1="438.058" y1="685.449" x2="923.172" y2="1448.51" gradientUnits="userSpaceOnUse">
<stop stop-color="#FF1CF7"/>
<stop offset="1" stop-color="#00B0FF" stop-opacity="0.1"/>
</linearGradient>
<linearGradient id="paint45_linear_2_487" x1="429.233" y1="691.186" x2="865.608" y2="1468.95" gradientUnits="userSpaceOnUse">
<stop stop-color="#FF1CF7"/>
<stop offset="1" stop-color="#00B0FF" stop-opacity="0.1"/>
</linearGradient>
<linearGradient id="paint46_linear_2_487" x1="420.22" y1="698.381" x2="807.179" y2="1487.67" gradientUnits="userSpaceOnUse">
<stop stop-color="#FF1CF7"/>
<stop offset="1" stop-color="#00B0FF" stop-opacity="0.1"/>
</linearGradient>
<linearGradient id="paint47_linear_2_487" x1="410.94" y1="706.999" x2="748.047" y2="1504.52" gradientUnits="userSpaceOnUse">
<stop stop-color="#FF1CF7"/>
<stop offset="1" stop-color="#00B0FF" stop-opacity="0.1"/>
</linearGradient>
<linearGradient id="paint48_linear_2_487" x1="401.32" y1="717.003" x2="688.402" y2="1519.39" gradientUnits="userSpaceOnUse">
<stop stop-color="#FF1CF7"/>
<stop offset="1" stop-color="#00B0FF" stop-opacity="0.1"/>
</linearGradient>
<linearGradient id="paint49_linear_2_487" x1="391.288" y1="728.349" x2="628.457" y2="1532.17" gradientUnits="userSpaceOnUse">
<stop stop-color="#FF1CF7"/>
<stop offset="1" stop-color="#00B0FF" stop-opacity="0.1"/>
</linearGradient>
<linearGradient id="paint50_linear_2_487" x1="380.776" y1="740.992" x2="568.443" y2="1542.79" gradientUnits="userSpaceOnUse">
<stop stop-color="#FF1CF7"/>
<stop offset="1" stop-color="#00B0FF" stop-opacity="0.1"/>
</linearGradient>
<linearGradient id="paint51_linear_2_487" x1="369.718" y1="754.879" x2="508.604" y2="1551.22" gradientUnits="userSpaceOnUse">
<stop stop-color="#FF1CF7"/>
<stop offset="1" stop-color="#00B0FF" stop-opacity="0.1"/>
</linearGradient>
<linearGradient id="paint52_linear_2_487" x1="358.053" y1="769.956" x2="449.196" y2="1557.46" gradientUnits="userSpaceOnUse">
<stop stop-color="#FF1CF7"/>
<stop offset="1" stop-color="#00B0FF" stop-opacity="0.1"/>
</linearGradient>
<linearGradient id="paint53_linear_2_487" x1="345.724" y1="786.165" x2="390.47" y2="1561.55" gradientUnits="userSpaceOnUse">
<stop stop-color="#FF1CF7"/>
<stop offset="1" stop-color="#00B0FF" stop-opacity="0.1"/>
</linearGradient>
<linearGradient id="paint54_linear_2_487" x1="332.674" y1="803.442" x2="332.674" y2="1563.57" gradientUnits="userSpaceOnUse">
<stop stop-color="#FF1CF7"/>
<stop offset="1" stop-color="#00B0FF" stop-opacity="0.1"/>
</linearGradient>
</defs>
</svg>
