<svg width="224" height="228" viewBox="0 0 224 228" fill="none" xmlns="http://www.w3.org/2000/svg">
<path d="M150.24 172.676C147.713 174.842 145.093 176.876 142.358 178.757C140.262 180.204 138.133 181.569 135.934 182.835C127.538 187.725 118.401 191.355 108.842 193.524C99.8331 195.571 90.4366 196.341 80.9207 195.677C78.2945 195.488 75.6543 195.195 73.0064 194.792C70.7739 194.45 68.5357 194.025 66.2909 193.503C66.2067 193.495 66.1215 193.473 66.0503 193.45C65.6071 193.39 65.2537 193.317 64.9964 193.223C67.5844 193.77 72.2656 184.403 75.4844 172.211C78.7392 159.932 79.2727 149.428 76.6954 148.734C76.6177 148.718 76.5465 148.695 76.4568 148.708C76.749 148.702 77.0877 148.763 77.5059 148.866C90.5607 151.545 103.595 148.846 114.192 142.223C125.712 135.021 133.922 123.253 136.702 109.947C140.107 93.6645 135.008 77.3526 124.358 65.7492C118.611 59.4747 111.237 54.5871 102.719 51.8059C102.485 51.7454 102.283 51.6477 102.1 51.5278C102.18 51.5711 102.251 51.5941 102.344 51.6226C104.92 52.3029 109.648 42.9123 112.897 30.6407C116.133 18.3978 116.676 7.92859 114.137 7.18993C114.208 7.19904 114.271 7.21556 114.35 7.245C116.15 7.78348 117.912 8.3803 119.67 9.01227C121.685 9.73809 123.663 10.5361 125.596 11.386C127.874 12.3934 130.088 13.4749 132.272 14.6351C140.093 18.83 147.216 24.0344 153.502 30.0211C160.168 36.3788 165.893 43.6374 170.498 51.5373C171.878 53.8885 173.152 56.3028 174.338 58.758C176.276 62.834 177.952 67.0465 179.307 71.3576C181.568 78.5055 183.006 85.9538 183.527 93.5417C184.225 103.619 183.319 113.967 180.589 124.252C178.311 132.896 174.92 140.947 170.623 148.301C165.158 157.624 158.244 165.827 150.247 172.668L150.24 172.676Z" fill="url(#paint0_linear_6_311)"/>
<path d="M102.35 51.6152C102.258 51.5868 102.193 51.5564 102.107 51.5205C101.931 51.3932 101.767 51.2372 101.643 51.0645C101.606 51.0322 101.568 50.986 101.551 50.9314C101.497 50.8585 101.464 50.791 101.423 50.7032C101.4 50.67 101.392 50.6497 101.375 50.609C101.333 50.5073 101.306 50.4186 101.265 50.3169C101.224 50.2292 101.204 50.1469 101.176 50.0443C100.104 46.6057 100.973 37.9468 103.562 28.1525C106.075 18.67 109.464 10.8904 112.08 8.18827C112.515 7.71942 112.94 7.41152 113.326 7.2526C113.401 7.22656 113.49 7.19956 113.579 7.18644C113.648 7.16781 113.724 7.15563 113.794 7.16474C113.877 7.15903 113.954 7.16073 114.046 7.17535C114.059 7.1744 114.088 7.18637 114.116 7.18446C114.123 7.19092 114.13 7.18351 114.137 7.18997C116.683 7.93509 116.133 18.3978 112.903 30.6333C109.661 42.8975 104.94 52.2946 102.35 51.6152Z" fill="url(#paint1_linear_6_311)"/>
<path d="M65.0039 193.229C64.7837 193.168 64.6244 193.081 64.4845 192.972C64.403 192.901 64.3279 192.823 64.2648 192.716C62.4965 190.405 63.2232 180.787 66.1446 169.744C69.1341 158.472 73.3566 149.632 76.0168 148.794C76.1462 148.751 76.2766 148.721 76.4292 148.71C76.443 148.709 76.4569 148.708 76.4717 148.721C76.555 148.716 76.6253 148.725 76.7104 148.747C79.2802 149.435 78.7403 159.945 75.4994 172.223C72.2805 184.416 67.5919 193.776 65.0113 193.236L65.0039 193.229Z" fill="url(#paint2_linear_6_311)"/>
<defs>
<linearGradient id="paint0_linear_6_311" x1="141.008" y1="9.484" x2="135.363" y2="225.492" gradientUnits="userSpaceOnUse">
<stop stop-color="#BFFFFF"/>
<stop offset="1" stop-color="#8EC2F3"/>
</linearGradient>
<linearGradient id="paint1_linear_6_311" x1="99.9111" y1="22.1349" x2="116.571" y2="36.6548" gradientUnits="userSpaceOnUse">
<stop stop-color="#1DC3B2"/>
<stop offset="1" stop-color="#0B91FF"/>
</linearGradient>
<linearGradient id="paint2_linear_6_311" x1="62.4859" y1="163.713" x2="79.1734" y2="178.257" gradientUnits="userSpaceOnUse">
<stop stop-color="#1DC3B2"/>
<stop offset="1" stop-color="#0B91FF"/>
</linearGradient>
</defs>
</svg>
