<svg width="3582" height="1210" viewBox="0 0 3582 1210" fill="none" xmlns="http://www.w3.org/2000/svg">
<rect width="3582" height="1210" fill="#EAEFFA"/>
<path style="mix-blend-mode:overlay" d="M211 312.874C266.194 312.874 310.937 268.131 310.937 212.937C310.937 157.743 266.194 113 211 113C155.806 113 111.063 157.743 111.063 212.937C111.063 268.131 155.806 312.874 211 312.874Z" fill="url(#paint0_radial_6_555)"/>
<path style="mix-blend-mode:multiply" d="M211 312.874C266.194 312.874 310.937 268.131 310.937 212.937C310.937 157.743 266.194 113 211 113C155.806 113 111.063 157.743 111.063 212.937C111.063 268.131 155.806 312.874 211 312.874Z" fill="url(#paint1_radial_6_555)"/>
<path style="mix-blend-mode:saturation" d="M211 305.859C262.319 305.859 303.922 264.256 303.922 212.937C303.922 161.618 262.319 120.015 211 120.015C159.681 120.015 118.078 161.618 118.078 212.937C118.078 264.256 159.681 305.859 211 305.859Z" fill="url(#paint2_radial_6_555)"/>
<path style="mix-blend-mode:screen" d="M169.58 137.029C175.545 142.994 172.143 156.058 161.998 166.203C151.853 176.348 138.767 179.751 132.823 173.786C126.879 167.82 130.261 154.756 140.406 144.611C150.551 134.466 163.636 131.063 169.58 137.029Z" fill="url(#paint3_radial_6_555)"/>
<path style="mix-blend-mode:color-dodge" d="M175.356 292.332C170.126 298.948 156.747 297.079 145.489 288.173C134.23 279.268 129.337 266.686 134.567 260.07C139.797 253.454 153.176 255.323 164.434 264.229C175.692 273.134 180.586 285.716 175.356 292.332Z" fill="url(#paint4_radial_6_555)"/>
<path style="mix-blend-mode:color-dodge" d="M230.05 301.715C231.603 293.426 217.888 283.901 199.417 280.441C180.946 276.981 164.713 280.896 163.16 289.185C161.608 297.474 175.323 306.999 193.794 310.459C212.265 313.919 228.497 310.004 230.05 301.715Z" fill="url(#paint5_radial_6_555)"/>
<path style="mix-blend-mode:color-dodge" opacity="0.5" d="M292.856 271.771C306.539 254.403 309.29 233.753 299.002 225.649C288.714 217.544 269.283 225.054 255.601 242.422C241.919 259.79 239.167 280.44 249.455 288.544C259.743 296.649 279.174 289.139 292.856 271.771Z" fill="url(#paint6_radial_6_555)"/>
<path style="mix-blend-mode:overlay" d="M230.937 662.727C286.131 662.727 330.874 617.984 330.874 562.79C330.874 507.596 286.131 462.853 230.937 462.853C175.743 462.853 131 507.596 131 562.79C131 617.984 175.743 662.727 230.937 662.727Z" fill="url(#paint7_radial_6_555)"/>
<path style="mix-blend-mode:multiply" d="M230.937 662.727C286.131 662.727 330.874 617.984 330.874 562.79C330.874 507.596 286.131 462.853 230.937 462.853C175.743 462.853 131 507.596 131 562.79C131 617.984 175.743 662.727 230.937 662.727Z" fill="url(#paint8_radial_6_555)"/>
<path style="mix-blend-mode:saturation" d="M230.937 655.712C282.256 655.712 323.859 614.109 323.859 562.79C323.859 511.471 282.256 469.868 230.937 469.868C179.618 469.868 138.015 511.471 138.015 562.79C138.015 614.109 179.618 655.712 230.937 655.712Z" fill="url(#paint9_radial_6_555)"/>
<path style="mix-blend-mode:screen" d="M189.517 486.882C195.482 492.847 192.08 505.911 181.935 516.056C171.79 526.201 158.704 529.604 152.76 523.639C146.816 517.673 150.198 504.609 160.343 494.464C170.488 484.319 183.573 480.916 189.517 486.882Z" fill="url(#paint10_radial_6_555)"/>
<path style="mix-blend-mode:color-dodge" d="M195.293 642.185C190.063 648.801 176.684 646.932 165.426 638.026C154.167 629.121 149.274 616.539 154.504 609.923C159.734 603.307 173.113 605.176 184.371 614.082C195.629 622.987 200.523 635.569 195.293 642.185Z" fill="url(#paint11_radial_6_555)"/>
<path style="mix-blend-mode:color-dodge" d="M249.987 651.568C251.54 643.279 237.825 633.754 219.354 630.294C200.883 626.834 184.65 630.749 183.097 639.038C181.545 647.327 195.26 656.852 213.731 660.312C232.202 663.772 248.434 659.857 249.987 651.568Z" fill="url(#paint12_radial_6_555)"/>
<path style="mix-blend-mode:color-dodge" opacity="0.5" d="M312.793 621.624C326.476 604.256 329.227 583.606 318.939 575.502C308.652 567.397 289.22 574.907 275.538 592.275C261.856 609.643 259.104 630.293 269.392 638.397C279.68 646.502 299.111 638.992 312.793 621.624Z" fill="url(#paint13_radial_6_555)"/>
<g style="mix-blend-mode:overlay" filter="url(#filter0_f_6_555)">
<path d="M237.937 1084.73C293.131 1084.73 337.874 1039.98 337.874 984.79C337.874 929.596 293.131 884.853 237.937 884.853C182.743 884.853 138 929.596 138 984.79C138 1039.98 182.743 1084.73 237.937 1084.73Z" fill="url(#paint14_radial_6_555)" style="mix-blend-mode:overlay"/>
</g>
<g style="mix-blend-mode:multiply" filter="url(#filter1_f_6_555)">
<path d="M237.937 1084.73C293.131 1084.73 337.874 1039.98 337.874 984.79C337.874 929.596 293.131 884.853 237.937 884.853C182.743 884.853 138 929.596 138 984.79C138 1039.98 182.743 1084.73 237.937 1084.73Z" fill="url(#paint15_radial_6_555)" style="mix-blend-mode:multiply"/>
</g>
<g style="mix-blend-mode:saturation" filter="url(#filter2_f_6_555)">
<path d="M237.937 1077.71C289.256 1077.71 330.859 1036.11 330.859 984.79C330.859 933.471 289.256 891.868 237.937 891.868C186.618 891.868 145.015 933.471 145.015 984.79C145.015 1036.11 186.618 1077.71 237.937 1077.71Z" fill="url(#paint16_radial_6_555)" style="mix-blend-mode:saturation"/>
</g>
<path style="mix-blend-mode:screen" d="M196.517 908.882C202.482 914.847 199.08 927.911 188.935 938.056C178.79 948.201 165.704 951.604 159.76 945.639C153.816 939.673 157.198 926.609 167.343 916.464C177.488 906.319 190.573 902.916 196.517 908.882Z" fill="url(#paint17_radial_6_555)"/>
<path style="mix-blend-mode:color-dodge" d="M202.293 1064.19C197.063 1070.8 183.684 1068.93 172.426 1060.03C161.167 1051.12 156.274 1038.54 161.504 1031.92C166.734 1025.31 180.113 1027.18 191.371 1036.08C202.629 1044.99 207.523 1057.57 202.293 1064.19Z" fill="url(#paint18_radial_6_555)"/>
<path style="mix-blend-mode:color-dodge" d="M256.987 1073.57C258.54 1065.28 244.825 1055.75 226.354 1052.29C207.883 1048.83 191.65 1052.75 190.097 1061.04C188.545 1069.33 202.26 1078.85 220.731 1082.31C239.202 1085.77 255.434 1081.86 256.987 1073.57Z" fill="url(#paint19_radial_6_555)"/>
<path style="mix-blend-mode:color-dodge" opacity="0.5" d="M319.793 1043.62C333.476 1026.26 336.227 1005.61 325.939 997.502C315.652 989.397 296.22 996.907 282.538 1014.28C268.856 1031.64 266.104 1052.29 276.392 1060.4C286.68 1068.5 306.111 1060.99 319.793 1043.62Z" fill="url(#paint20_radial_6_555)"/>
<path d="M544.229 203.578C544.602 176 577.554 159.101 599.184 177.047L594.36 173.009C581.227 161.67 560.24 163.934 548.681 176.676C537.9 187.964 536.19 206.654 545.55 219.311C548.071 222.792 552.303 226.256 555.637 228.977C548.241 222.741 544.026 213.228 544.213 203.561L544.229 203.578Z" fill="url(#paint21_linear_6_555)"/>
<path d="M662.601 208.006C665.512 178.18 652.531 150.077 628.701 132.097C664.429 161.855 667.458 216.117 638.432 251.571C609.136 288.765 552.861 296.69 516.49 265.884C570.124 315.803 655.645 279.572 662.601 208.023V208.006Z" fill="url(#paint22_linear_6_555)"/>
<path d="M587.37 113.829C633.93 120.369 665.055 163.799 656.914 210.828C648.773 257.874 604.447 290.691 557.871 284.151C511.294 277.628 480.152 234.216 488.293 187.17C496.451 140.141 540.794 107.29 587.37 113.829ZM566.892 232.053C584.95 234.587 602.18 221.846 605.328 203.595C608.492 185.345 596.408 168.463 578.333 165.928C560.274 163.393 543.028 176.152 539.863 194.402C536.698 212.653 548.816 229.518 566.875 232.053" fill="url(#paint23_linear_6_555)"/>
<g filter="url(#filter3_f_6_555)">
<path d="M544.229 989.578C544.602 962 577.554 945.101 599.184 963.047L594.36 959.009C581.227 947.67 560.24 949.934 548.681 962.676C537.9 973.964 536.19 992.654 545.55 1005.31C548.071 1008.79 552.303 1012.26 555.637 1014.98C548.241 1008.74 544.026 999.228 544.213 989.561L544.229 989.578Z" fill="url(#paint24_linear_6_555)"/>
</g>
<g filter="url(#filter4_f_6_555)">
<path d="M662.601 994.006C665.512 964.18 652.531 936.077 628.701 918.097C664.429 947.855 667.458 1002.12 638.432 1037.57C609.136 1074.76 552.861 1082.69 516.49 1051.88C570.124 1101.8 655.645 1065.57 662.601 994.023V994.006Z" fill="url(#paint25_linear_6_555)"/>
</g>
<g filter="url(#filter5_f_6_555)">
<path d="M587.37 899.829C633.93 906.369 665.055 949.799 656.914 996.828C648.773 1043.87 604.447 1076.69 557.871 1070.15C511.294 1063.63 480.152 1020.22 488.293 973.17C496.451 926.141 540.794 893.29 587.37 899.829ZM566.892 1018.05C584.95 1020.59 602.18 1007.85 605.328 989.595C608.492 971.345 596.408 954.463 578.333 951.928C560.274 949.393 543.028 962.152 539.863 980.402C536.698 998.653 548.816 1015.52 566.875 1018.05" fill="url(#paint26_linear_6_555)"/>
</g>
<path d="M544.229 581.578C544.602 554 577.554 537.101 599.184 555.047L594.36 551.009C581.227 539.67 560.24 541.934 548.681 554.676C537.9 565.964 536.19 584.654 545.55 597.311C548.071 600.792 552.303 604.256 555.637 606.977C548.241 600.741 544.026 591.228 544.213 581.561L544.229 581.578Z" fill="url(#paint27_linear_6_555)"/>
<path d="M662.601 586.006C665.512 556.18 652.531 528.077 628.701 510.097C664.429 539.855 667.458 594.117 638.432 629.571C609.136 666.765 552.861 674.69 516.49 643.884C570.124 693.803 655.645 657.572 662.601 586.023V586.006Z" fill="url(#paint28_linear_6_555)"/>
<path d="M587.37 491.829C633.93 498.369 665.055 541.799 656.914 588.828C648.773 635.874 604.447 668.691 557.871 662.151C511.294 655.628 480.152 612.216 488.293 565.17C496.451 518.141 540.794 485.29 587.37 491.829ZM566.892 610.053C584.95 612.587 602.18 599.846 605.328 581.595C608.492 563.345 596.408 546.463 578.333 543.928C560.274 541.393 543.028 554.152 539.863 572.402C536.698 590.653 548.816 607.518 566.875 610.053" fill="url(#paint29_linear_6_555)"/>
<path d="M988.66 203.503C988.66 204.825 988.51 206.146 988.161 207.493C988.161 207.568 988.136 207.618 988.111 207.668C988.111 207.742 988.086 207.842 988.061 207.917C988.061 208.067 987.936 208.366 987.712 208.765C987.712 208.765 987.712 208.815 987.687 208.84C987.313 209.513 986.689 210.485 985.891 211.657C983.221 214.625 978.705 216.146 972.818 215.872C969.5 206.87 961.067 198.017 955.155 193.229C948.019 187.169 933.325 178.516 921.25 177.993C919.005 171.858 919.404 166.846 921.924 163.429C922.098 163.155 922.323 162.906 922.572 162.656C922.797 162.407 923.046 162.158 923.296 161.933C923.97 161.31 924.743 160.736 925.616 160.287C926.439 159.839 927.338 159.465 928.236 159.19C928.335 159.14 928.435 159.115 928.56 159.115C928.984 158.991 929.408 158.891 929.832 158.791C930.381 158.667 930.955 158.567 931.579 158.517C932.976 158.367 934.398 158.342 935.795 158.417C940.56 158.816 945.25 159.963 949.791 161.684C949.965 161.734 950.115 161.809 950.29 161.883C956.726 164.377 962.814 168.068 968.277 172.457C968.602 172.706 968.901 172.955 969.225 173.205C969.899 173.753 970.572 174.327 971.221 174.9C971.321 174.975 971.421 175.075 971.52 175.175C973.192 176.646 974.789 178.167 976.286 179.763C977.782 181.359 979.229 183.005 980.552 184.676C980.851 185.025 981.1 185.374 981.35 185.748C981.849 186.421 982.348 187.144 982.847 187.843C983.62 188.99 984.319 190.137 984.942 191.284C985.342 192.007 985.716 192.73 986.04 193.429C987.238 195.823 988.086 198.341 988.46 200.885C988.485 201.059 988.51 201.234 988.535 201.433C988.585 201.708 988.61 201.982 988.61 202.256C988.66 202.68 988.685 203.104 988.66 203.503Z" fill="url(#paint30_linear_6_555)"/>
<path d="M1037.48 248.24C1027.4 261.506 1008.82 262.579 993.5 260.334C968.302 256.444 944.826 244.474 924.294 229.687C903.163 214.101 883.803 194.725 872.302 170.886C865.816 157.145 861.475 139.34 870.98 126.049C869.333 128.568 855.238 146.896 854.389 149.141C849.774 158.018 850.423 168.567 853.067 178.018C865.965 220.585 913.367 258.24 953.957 273.476C974.814 281.057 1007.12 287.915 1022.99 267.965L1037.46 248.29L1037.48 248.24Z" fill="url(#paint31_linear_6_555)"/>
<path d="M926.514 116.274C973.092 128.268 1023.24 169.714 1038.53 208.84C1053.82 247.966 1028.5 269.985 981.924 257.99C935.396 246.021 885.25 204.575 869.932 165.424C854.639 126.273 879.961 104.279 926.514 116.274ZM964.984 214.65C983.046 219.313 992.901 210.76 986.963 195.573C981.026 180.387 961.541 164.277 943.454 159.639C925.392 154.976 915.562 163.529 921.5 178.716C927.437 193.902 946.922 210.012 964.984 214.675" fill="url(#paint32_linear_6_555)"/>
<path d="M988.66 591.51C988.66 592.832 988.51 594.153 988.161 595.5C988.161 595.575 988.136 595.625 988.111 595.675C988.111 595.749 988.086 595.849 988.061 595.924C988.061 596.074 987.936 596.373 987.712 596.772C987.712 596.772 987.712 596.822 987.687 596.847C987.313 597.52 986.689 598.493 985.891 599.665C983.221 602.632 978.705 604.153 972.818 603.879C969.5 594.877 961.067 586.024 955.155 581.236C948.019 575.176 933.325 566.523 921.25 566C919.005 559.865 919.404 554.853 921.924 551.437C922.098 551.162 922.323 550.913 922.572 550.663C922.797 550.414 923.046 550.165 923.296 549.94C923.97 549.317 924.743 548.743 925.616 548.294C926.439 547.846 927.338 547.472 928.236 547.197C928.335 547.147 928.435 547.122 928.56 547.122C928.984 546.998 929.408 546.898 929.832 546.798C930.381 546.674 930.955 546.574 931.579 546.524C932.976 546.374 934.398 546.349 935.795 546.424C940.56 546.823 945.25 547.97 949.791 549.691C949.965 549.741 950.115 549.816 950.29 549.89C956.726 552.384 962.814 556.075 968.277 560.464C968.602 560.713 968.901 560.962 969.225 561.212C969.899 561.76 970.572 562.334 971.221 562.908C971.321 562.982 971.421 563.082 971.52 563.182C973.192 564.653 974.789 566.174 976.286 567.77C977.782 569.366 979.229 571.012 980.552 572.683C980.851 573.032 981.1 573.381 981.35 573.755C981.849 574.428 982.348 575.152 982.847 575.85C983.62 576.997 984.319 578.144 984.942 579.291C985.342 580.014 985.716 580.737 986.04 581.436C987.238 583.83 988.086 586.348 988.46 588.892C988.485 589.066 988.51 589.241 988.535 589.44C988.585 589.715 988.61 589.989 988.61 590.263C988.66 590.687 988.685 591.111 988.66 591.51Z" fill="url(#paint33_linear_6_555)"/>
<path d="M1037.48 636.247C1027.4 649.513 1008.82 650.586 993.5 648.341C968.302 644.451 944.826 632.482 924.294 617.694C903.163 602.108 883.803 582.732 872.302 558.893C865.816 545.152 861.475 527.347 870.98 514.056C869.333 516.575 855.238 534.903 854.389 537.148C849.774 546.025 850.423 556.574 853.067 566.025C865.965 608.592 913.367 646.247 953.957 661.483C974.814 669.064 1007.12 675.922 1022.99 655.972L1037.46 636.297L1037.48 636.247Z" fill="url(#paint34_linear_6_555)"/>
<path d="M926.514 504.281C973.092 516.275 1023.24 557.721 1038.53 596.847C1053.82 635.973 1028.5 657.992 981.924 645.997C935.396 634.028 885.25 592.582 869.932 553.431C854.639 514.281 879.961 492.286 926.514 504.281ZM964.984 602.657C983.046 607.32 992.901 598.767 986.963 583.58C981.026 568.394 961.541 552.284 943.454 547.646C925.392 542.983 915.562 551.536 921.5 566.723C927.437 581.909 946.922 598.019 964.984 602.682" fill="url(#paint35_linear_6_555)"/>
<g filter="url(#filter6_f_6_555)">
<path d="M988.66 985.51C988.66 986.832 988.51 988.153 988.161 989.5C988.161 989.575 988.136 989.625 988.111 989.675C988.111 989.749 988.086 989.849 988.061 989.924C988.061 990.074 987.936 990.373 987.712 990.772C987.712 990.772 987.712 990.822 987.687 990.847C987.313 991.52 986.689 992.493 985.891 993.665C983.221 996.632 978.705 998.153 972.818 997.879C969.5 988.877 961.067 980.024 955.155 975.236C948.019 969.177 933.325 960.523 921.25 960C919.005 953.865 919.404 948.853 921.924 945.437C922.098 945.162 922.323 944.913 922.572 944.664C922.797 944.414 923.046 944.165 923.296 943.94C923.97 943.317 924.743 942.743 925.616 942.295C926.439 941.846 927.338 941.472 928.236 941.197C928.335 941.147 928.435 941.122 928.56 941.122C928.984 940.998 929.408 940.898 929.832 940.798C930.381 940.674 930.955 940.574 931.579 940.524C932.976 940.374 934.398 940.349 935.795 940.424C940.56 940.823 945.25 941.97 949.791 943.691C949.965 943.741 950.115 943.816 950.29 943.89C956.726 946.384 962.814 950.075 968.277 954.464C968.602 954.713 968.901 954.962 969.225 955.212C969.899 955.76 970.572 956.334 971.221 956.908C971.321 956.982 971.421 957.082 971.52 957.182C973.192 958.653 974.789 960.174 976.286 961.77C977.782 963.366 979.229 965.012 980.552 966.683C980.851 967.032 981.1 967.381 981.35 967.755C981.849 968.428 982.348 969.152 982.847 969.85C983.62 970.997 984.319 972.144 984.942 973.291C985.342 974.014 985.716 974.737 986.04 975.436C987.238 977.83 988.086 980.348 988.46 982.892C988.485 983.066 988.51 983.241 988.535 983.44C988.585 983.715 988.61 983.989 988.61 984.263C988.66 984.687 988.685 985.111 988.66 985.51Z" fill="url(#paint36_linear_6_555)"/>
</g>
<g filter="url(#filter7_f_6_555)">
<path d="M1037.48 1030.25C1027.4 1043.51 1008.82 1044.59 993.5 1042.34C968.302 1038.45 944.826 1026.48 924.294 1011.69C903.163 996.108 883.803 976.732 872.302 952.893C865.816 939.152 861.475 921.348 870.98 908.056C869.333 910.575 855.238 928.903 854.389 931.148C849.774 940.025 850.423 950.574 853.067 960.025C865.965 1002.59 913.367 1040.25 953.957 1055.48C974.814 1063.06 1007.12 1069.92 1022.99 1049.97L1037.46 1030.3L1037.48 1030.25Z" fill="url(#paint37_linear_6_555)"/>
</g>
<g filter="url(#filter8_f_6_555)">
<path d="M926.514 898.281C973.092 910.276 1023.24 951.721 1038.53 990.847C1053.82 1029.97 1028.5 1051.99 981.924 1040C935.396 1028.03 885.25 986.582 869.932 947.432C854.639 908.281 879.961 886.286 926.514 898.281ZM964.984 996.657C983.046 1001.32 992.901 992.767 986.963 977.58C981.026 962.394 961.541 946.284 943.454 941.646C925.392 936.983 915.562 945.536 921.5 960.723C927.437 975.909 946.922 992.019 964.984 996.682" fill="url(#paint38_linear_6_555)"/>
</g>
<path d="M1380.19 224.658C1379.7 228.008 1379.05 231.318 1378.21 234.588C1377.57 237.098 1376.85 239.568 1376.01 242.008C1372.84 251.368 1368.26 260.258 1362.38 268.308C1356.84 275.898 1350.15 282.768 1342.41 288.618C1340.27 290.228 1338.05 291.768 1335.75 293.228C1333.81 294.458 1331.81 295.628 1329.74 296.728C1329.67 296.778 1329.59 296.818 1329.52 296.848C1329.14 297.098 1328.82 297.278 1328.56 297.378C1330.91 296.068 1328.24 285.758 1322.56 274.258C1316.85 262.668 1310.24 254.258 1307.8 255.448C1307.73 255.488 1307.66 255.518 1307.6 255.588C1307.82 255.388 1308.12 255.208 1308.51 255.008C1320.31 248.338 1328.5 237.558 1332.2 225.398C1336.22 212.178 1334.65 197.668 1327.89 185.608C1319.62 170.848 1304.81 161.748 1288.89 159.968C1280.29 158.998 1271.37 160.178 1262.98 163.738C1262.76 163.848 1262.54 163.908 1262.32 163.938C1262.41 163.918 1262.48 163.888 1262.57 163.848C1265 162.648 1262.35 152.288 1256.64 140.708C1250.94 129.158 1244.36 120.768 1241.92 121.898C1241.98 121.858 1242.04 121.828 1242.12 121.798C1243.86 121.008 1245.61 120.288 1247.38 119.598C1249.41 118.808 1251.46 118.098 1253.51 117.458C1255.93 116.708 1258.35 116.058 1260.8 115.488C1269.6 113.478 1278.54 112.708 1287.36 113.098C1296.72 113.518 1305.96 115.258 1314.77 118.238C1317.4 119.118 1319.99 120.118 1322.54 121.208C1326.75 123.038 1330.85 125.148 1334.77 127.548C1341.28 131.518 1347.36 136.268 1352.83 141.738C1360.1 148.998 1366.32 157.538 1371.1 167.248C1375.13 175.398 1377.91 183.838 1379.53 192.348C1381.57 203.148 1381.75 214.058 1380.19 224.648V224.658Z" fill="url(#paint39_linear_6_555)"/>
<path d="M1262.57 163.838C1262.48 163.878 1262.41 163.898 1262.32 163.928C1262.1 163.948 1261.87 163.938 1261.66 163.888C1261.61 163.888 1261.55 163.878 1261.5 163.848C1261.41 163.828 1261.34 163.798 1261.25 163.758C1261.21 163.748 1261.19 163.738 1261.15 163.718C1261.05 163.668 1260.97 163.618 1260.87 163.568C1260.78 163.528 1260.71 163.478 1260.62 163.418C1257.5 161.498 1252.38 154.278 1247.82 145.038C1243.41 136.088 1240.81 127.858 1241.01 124.038C1241.03 123.388 1241.15 122.868 1241.34 122.488C1241.38 122.418 1241.43 122.338 1241.49 122.268C1241.53 122.208 1241.58 122.148 1241.64 122.108C1241.7 122.048 1241.76 121.998 1241.84 121.948C1241.85 121.938 1241.88 121.928 1241.9 121.908C1241.91 121.908 1241.91 121.898 1241.92 121.898C1244.37 120.768 1250.94 129.158 1256.64 140.698C1262.35 152.268 1265.01 162.628 1262.57 163.838Z" fill="url(#paint40_linear_6_555)"/>
<path d="M1328.57 297.378C1328.36 297.478 1328.18 297.518 1328 297.528C1327.89 297.528 1327.78 297.518 1327.66 297.478C1324.76 296.888 1318.89 289.028 1313.75 278.608C1308.51 267.968 1305.84 258.368 1307.32 255.948C1307.39 255.828 1307.47 255.718 1307.58 255.608C1307.59 255.598 1307.6 255.588 1307.62 255.588C1307.68 255.528 1307.74 255.488 1307.82 255.448C1310.25 254.258 1316.86 262.678 1322.58 274.258C1328.26 285.758 1330.92 296.068 1328.58 297.378H1328.57Z" fill="url(#paint41_linear_6_555)"/>
<path d="M1380.19 626.656C1379.7 630.006 1379.05 633.316 1378.21 636.586C1377.57 639.096 1376.85 641.566 1376.01 644.006C1372.84 653.366 1368.26 662.256 1362.38 670.306C1356.84 677.896 1350.15 684.766 1342.41 690.616C1340.27 692.226 1338.05 693.766 1335.75 695.226C1333.81 696.456 1331.81 697.626 1329.74 698.726C1329.67 698.776 1329.59 698.816 1329.52 698.846C1329.14 699.096 1328.82 699.276 1328.56 699.376C1330.91 698.066 1328.24 687.756 1322.56 676.256C1316.85 664.666 1310.24 656.256 1307.8 657.446C1307.73 657.486 1307.66 657.516 1307.6 657.586C1307.82 657.386 1308.12 657.206 1308.51 657.006C1320.31 650.336 1328.5 639.556 1332.2 627.396C1336.22 614.176 1334.65 599.666 1327.89 587.606C1319.62 572.846 1304.81 563.746 1288.89 561.966C1280.29 560.996 1271.37 562.176 1262.98 565.736C1262.76 565.846 1262.54 565.906 1262.32 565.936C1262.41 565.916 1262.48 565.886 1262.57 565.846C1265 564.646 1262.35 554.286 1256.64 542.706C1250.94 531.156 1244.36 522.766 1241.92 523.896C1241.98 523.856 1242.04 523.826 1242.12 523.796C1243.86 523.006 1245.61 522.286 1247.38 521.596C1249.41 520.806 1251.46 520.096 1253.51 519.456C1255.93 518.706 1258.35 518.056 1260.8 517.486C1269.6 515.476 1278.54 514.706 1287.36 515.096C1296.72 515.516 1305.96 517.256 1314.77 520.236C1317.4 521.116 1319.99 522.116 1322.54 523.206C1326.75 525.036 1330.85 527.146 1334.77 529.546C1341.28 533.516 1347.36 538.266 1352.83 543.736C1360.1 550.996 1366.32 559.536 1371.1 569.246C1375.13 577.396 1377.91 585.836 1379.53 594.346C1381.57 605.146 1381.75 616.056 1380.19 626.646V626.656Z" fill="url(#paint42_linear_6_555)"/>
<path d="M1262.57 565.836C1262.48 565.876 1262.41 565.896 1262.32 565.926C1262.1 565.946 1261.87 565.936 1261.66 565.886C1261.61 565.886 1261.55 565.876 1261.5 565.846C1261.41 565.826 1261.34 565.796 1261.25 565.756C1261.21 565.746 1261.19 565.736 1261.15 565.716C1261.05 565.666 1260.97 565.616 1260.87 565.566C1260.78 565.526 1260.71 565.476 1260.62 565.416C1257.5 563.496 1252.38 556.276 1247.82 547.036C1243.41 538.086 1240.81 529.856 1241.01 526.036C1241.03 525.386 1241.15 524.866 1241.34 524.486C1241.38 524.416 1241.43 524.336 1241.49 524.266C1241.53 524.206 1241.58 524.146 1241.64 524.106C1241.7 524.046 1241.76 523.996 1241.84 523.946C1241.85 523.936 1241.88 523.926 1241.9 523.906C1241.91 523.906 1241.91 523.896 1241.92 523.896C1244.37 522.766 1250.94 531.156 1256.64 542.696C1262.35 554.266 1265.01 564.626 1262.57 565.836Z" fill="url(#paint43_linear_6_555)"/>
<path d="M1328.57 699.376C1328.36 699.476 1328.18 699.516 1328 699.526C1327.89 699.526 1327.78 699.516 1327.66 699.476C1324.76 698.886 1318.89 691.026 1313.75 680.606C1308.51 669.966 1305.84 660.366 1307.32 657.946C1307.39 657.826 1307.47 657.716 1307.58 657.606C1307.59 657.596 1307.6 657.586 1307.62 657.586C1307.68 657.526 1307.74 657.486 1307.82 657.446C1310.25 656.256 1316.86 664.676 1322.58 676.256C1328.26 687.756 1330.92 698.066 1328.58 699.376H1328.57Z" fill="url(#paint44_linear_6_555)"/>
<g filter="url(#filter9_f_6_555)">
<path d="M1380.19 1014.66C1379.7 1018.01 1379.05 1021.32 1378.21 1024.59C1377.57 1027.1 1376.85 1029.57 1376.01 1032.01C1372.84 1041.37 1368.26 1050.26 1362.38 1058.31C1356.84 1065.9 1350.15 1072.77 1342.41 1078.62C1340.27 1080.23 1338.05 1081.77 1335.75 1083.23C1333.81 1084.46 1331.81 1085.63 1329.74 1086.73C1329.67 1086.78 1329.59 1086.82 1329.52 1086.85C1329.14 1087.1 1328.82 1087.28 1328.56 1087.38C1330.91 1086.07 1328.24 1075.76 1322.56 1064.26C1316.85 1052.67 1310.24 1044.26 1307.8 1045.45C1307.73 1045.49 1307.66 1045.52 1307.6 1045.59C1307.82 1045.39 1308.12 1045.21 1308.51 1045.01C1320.31 1038.34 1328.5 1027.56 1332.2 1015.4C1336.22 1002.18 1334.65 987.666 1327.89 975.606C1319.62 960.846 1304.81 951.746 1288.89 949.966C1280.29 948.996 1271.37 950.176 1262.98 953.736C1262.76 953.846 1262.54 953.906 1262.32 953.936C1262.41 953.916 1262.48 953.886 1262.57 953.846C1265 952.646 1262.35 942.286 1256.64 930.706C1250.94 919.156 1244.36 910.766 1241.92 911.896C1241.98 911.856 1242.04 911.826 1242.12 911.796C1243.86 911.006 1245.61 910.286 1247.38 909.596C1249.41 908.806 1251.46 908.096 1253.51 907.456C1255.93 906.706 1258.35 906.056 1260.8 905.486C1269.6 903.476 1278.54 902.706 1287.36 903.096C1296.72 903.516 1305.96 905.256 1314.77 908.236C1317.4 909.116 1319.99 910.116 1322.54 911.206C1326.75 913.036 1330.85 915.146 1334.77 917.546C1341.28 921.516 1347.36 926.266 1352.83 931.736C1360.1 938.996 1366.32 947.536 1371.1 957.246C1375.13 965.396 1377.91 973.836 1379.53 982.346C1381.57 993.146 1381.75 1004.06 1380.19 1014.65V1014.66Z" fill="url(#paint45_linear_6_555)"/>
</g>
<g filter="url(#filter10_f_6_555)">
<path d="M1262.57 953.836C1262.48 953.876 1262.41 953.896 1262.32 953.926C1262.1 953.946 1261.87 953.936 1261.66 953.886C1261.61 953.886 1261.55 953.876 1261.5 953.846C1261.41 953.826 1261.34 953.796 1261.25 953.756C1261.21 953.746 1261.19 953.736 1261.15 953.716C1261.05 953.666 1260.97 953.616 1260.87 953.566C1260.78 953.526 1260.71 953.476 1260.62 953.416C1257.5 951.496 1252.38 944.276 1247.82 935.036C1243.41 926.086 1240.81 917.856 1241.01 914.036C1241.03 913.386 1241.15 912.866 1241.34 912.486C1241.38 912.416 1241.43 912.336 1241.49 912.266C1241.53 912.206 1241.58 912.146 1241.64 912.106C1241.7 912.046 1241.76 911.996 1241.84 911.946C1241.85 911.936 1241.88 911.926 1241.9 911.906C1241.91 911.906 1241.91 911.896 1241.92 911.896C1244.37 910.766 1250.94 919.156 1256.64 930.696C1262.35 942.266 1265.01 952.626 1262.57 953.836Z" fill="url(#paint46_linear_6_555)"/>
</g>
<g filter="url(#filter11_f_6_555)">
<path d="M1328.57 1087.38C1328.36 1087.48 1328.18 1087.52 1328 1087.53C1327.89 1087.53 1327.78 1087.52 1327.66 1087.48C1324.76 1086.89 1318.89 1079.03 1313.75 1068.61C1308.51 1057.97 1305.84 1048.37 1307.32 1045.95C1307.39 1045.83 1307.47 1045.72 1307.58 1045.61C1307.59 1045.6 1307.6 1045.59 1307.62 1045.59C1307.68 1045.53 1307.74 1045.49 1307.82 1045.45C1310.25 1044.26 1316.86 1052.68 1322.58 1064.26C1328.26 1075.76 1330.92 1086.07 1328.58 1087.38H1328.57Z" fill="url(#paint47_linear_6_555)"/>
</g>
<path d="M1774.19 260.574L1757.84 276.6C1730.44 303.478 1679.35 295.816 1643.75 259.511C1608.13 223.181 1601.49 171.963 1628.88 145.084L1645.23 129.047C1617.84 155.925 1624.48 207.144 1660.1 243.461C1695.72 279.766 1746.79 287.428 1774.19 260.574Z" fill="url(#paint48_linear_6_555)"/>
<path d="M1774.19 260.574C1746.79 287.441 1695.7 279.778 1660.1 243.461C1624.48 207.144 1617.84 155.925 1645.23 129.047C1672.63 102.181 1723.72 109.831 1759.32 146.148C1794.95 182.477 1801.6 233.684 1774.19 260.574Z" fill="url(#paint49_linear_6_555)"/>
<path d="M1774.19 651.574L1757.84 667.6C1730.44 694.478 1679.35 686.816 1643.75 650.511C1608.13 614.181 1601.49 562.963 1628.88 536.084L1645.23 520.047C1617.84 546.925 1624.48 598.144 1660.1 634.461C1695.72 670.766 1746.79 678.428 1774.19 651.574Z" fill="url(#paint50_linear_6_555)"/>
<path d="M1774.19 651.574C1746.79 678.441 1695.7 670.778 1660.1 634.461C1624.48 598.144 1617.84 546.925 1645.23 520.047C1672.63 493.181 1723.72 500.831 1759.32 537.148C1794.95 573.477 1801.6 624.684 1774.19 651.574Z" fill="url(#paint51_linear_6_555)"/>
<g filter="url(#filter12_f_6_555)">
<path d="M1774.19 1067.57L1757.84 1083.6C1730.44 1110.48 1679.35 1102.82 1643.75 1066.51C1608.13 1030.18 1601.49 978.963 1628.88 952.084L1645.23 936.047C1617.84 962.925 1624.48 1014.14 1660.1 1050.46C1695.72 1086.77 1746.79 1094.43 1774.19 1067.57Z" fill="url(#paint52_linear_6_555)"/>
</g>
<g filter="url(#filter13_f_6_555)">
<path d="M1774.19 1067.57C1746.79 1094.44 1695.7 1086.78 1660.1 1050.46C1624.48 1014.14 1617.84 962.925 1645.23 936.047C1672.63 909.181 1723.72 916.831 1759.32 953.148C1794.95 989.477 1801.6 1040.68 1774.19 1067.57Z" fill="url(#paint53_linear_6_555)"/>
</g>
<path d="M2033.47 125.37C2033.79 124.78 2034.12 124.2 2034.44 123.61C2034.73 123.09 2034.98 122.45 2035.39 122.01C2036.07 121.27 2037.16 121.1 2038.04 121.03C2040 120.88 2041.95 121.28 2043.79 121.77C2047.41 122.72 2050.87 124.21 2054.17 125.93C2057.93 127.89 2061.51 130.21 2064.74 132.98C2066.16 134.2 2067.53 135.54 2068.63 137.1C2069.35 138.12 2070.34 139.64 2069.93 141.08C2069.7 141.88 2069.12 142.67 2068.72 143.39C2068.07 144.57 2067.42 145.76 2066.76 146.94C2062.02 155.55 1987.2 291.82 1986.44 292.46C1984.88 293.78 1982.27 293.34 1980.59 293.05C1976.87 292.42 1973.31 291.02 1969.95 289.42C1966.2 287.63 1962.6 285.5 1959.29 282.97C1956.87 281.11 1954.29 278.99 1952.75 276.21C1952.31 275.41 1951.83 274.38 1952.05 273.37C1952.22 272.63 2032.52 127.09 2033.47 125.37Z" fill="url(#paint54_linear_6_555)"/>
<path d="M2038.18 121.02C2032.5 121.36 2034.27 126.52 2042.15 132.55C2050.02 138.58 2061.01 143.2 2066.69 142.86C2072.37 142.52 2070.6 137.36 2062.72 131.33C2054.85 125.3 2043.86 120.68 2038.18 121.02Z" fill="url(#paint55_linear_6_555)"/>
<path d="M2033.48 525.372C2033.8 524.782 2034.13 524.202 2034.45 523.612C2034.74 523.092 2034.99 522.452 2035.4 522.012C2036.08 521.272 2037.17 521.102 2038.05 521.032C2040.01 520.882 2041.96 521.282 2043.8 521.772C2047.42 522.722 2050.88 524.212 2054.18 525.932C2057.94 527.892 2061.52 530.212 2064.75 532.982C2066.17 534.202 2067.54 535.542 2068.64 537.102C2069.36 538.122 2070.35 539.642 2069.94 541.082C2069.71 541.882 2069.13 542.672 2068.73 543.392C2068.08 544.572 2067.43 545.762 2066.77 546.942C2062.03 555.552 1987.21 691.822 1986.45 692.462C1984.89 693.782 1982.28 693.342 1980.6 693.052C1976.88 692.422 1973.32 691.022 1969.96 689.422C1966.21 687.632 1962.61 685.502 1959.3 682.972C1956.88 681.112 1954.3 678.992 1952.76 676.212C1952.32 675.412 1951.84 674.382 1952.06 673.372C1952.23 672.632 2032.53 527.092 2033.48 525.372Z" fill="url(#paint56_linear_6_555)"/>
<path d="M2038.19 521.022C2032.51 521.362 2034.28 526.522 2042.16 532.552C2050.03 538.582 2061.02 543.202 2066.7 542.862C2072.38 542.522 2070.61 537.362 2062.73 531.332C2054.86 525.302 2043.87 520.682 2038.19 521.022Z" fill="url(#paint57_linear_6_555)"/>
<g filter="url(#filter14_f_6_555)">
<path d="M2033.48 940.372C2033.8 939.782 2034.13 939.202 2034.45 938.612C2034.74 938.092 2034.99 937.452 2035.4 937.012C2036.08 936.272 2037.17 936.102 2038.05 936.032C2040.01 935.882 2041.96 936.282 2043.8 936.772C2047.42 937.722 2050.88 939.212 2054.18 940.932C2057.94 942.892 2061.52 945.212 2064.75 947.982C2066.17 949.202 2067.54 950.542 2068.64 952.102C2069.36 953.122 2070.35 954.642 2069.94 956.082C2069.71 956.882 2069.13 957.672 2068.73 958.392C2068.08 959.572 2067.43 960.762 2066.77 961.942C2062.03 970.552 1987.21 1106.82 1986.45 1107.46C1984.89 1108.78 1982.28 1108.34 1980.6 1108.05C1976.88 1107.42 1973.32 1106.02 1969.96 1104.42C1966.21 1102.63 1962.61 1100.5 1959.3 1097.97C1956.88 1096.11 1954.3 1093.99 1952.76 1091.21C1952.32 1090.41 1951.84 1089.38 1952.06 1088.37C1952.23 1087.63 2032.53 942.092 2033.48 940.372Z" fill="url(#paint58_linear_6_555)"/>
</g>
<g filter="url(#filter15_f_6_555)">
<path d="M2038.19 936.022C2032.51 936.362 2034.28 941.522 2042.16 947.552C2050.03 953.582 2061.02 958.202 2066.7 957.862C2072.38 957.522 2070.61 952.362 2062.73 946.332C2054.86 940.302 2043.87 935.682 2038.19 936.022Z" fill="url(#paint59_linear_6_555)"/>
</g>
<path d="M2221.82 158.944L2326 223.5L2325.98 223.517L2322.17 346L2218 281.444L2221.82 158.944Z" fill="url(#paint60_linear_6_555)"/>
<path d="M2325.98 223.517L2434 165.572L2430.17 288.072L2322.17 346L2325.98 223.517Z" fill="url(#paint61_linear_6_555)"/>
<path d="M2221.82 158.944L2329.83 101L2434 165.572L2326 223.5L2221.82 158.944Z" fill="url(#paint62_linear_6_555)"/>
<path d="M2217.82 561.944L2322 626.5L2321.98 626.517L2318.17 749L2214 684.444L2217.82 561.944Z" fill="url(#paint63_linear_6_555)"/>
<path d="M2321.98 626.517L2430 568.572L2426.17 691.072L2318.17 749L2321.98 626.517Z" fill="url(#paint64_linear_6_555)"/>
<path d="M2217.82 561.944L2325.83 504L2430 568.572L2322 626.5L2217.82 561.944Z" fill="url(#paint65_linear_6_555)"/>
<g filter="url(#filter16_f_6_555)">
<path d="M2221.82 920.944L2326 985.5L2325.98 985.517L2322.17 1108L2218 1043.44L2221.82 920.944Z" fill="url(#paint66_linear_6_555)"/>
</g>
<g filter="url(#filter17_f_6_555)">
<path d="M2325.98 985.517L2434 927.572L2430.17 1050.07L2322.17 1108L2325.98 985.517Z" fill="url(#paint67_linear_6_555)"/>
</g>
<g filter="url(#filter18_f_6_555)">
<path d="M2221.82 920.944L2329.83 863L2434 927.572L2326 985.5L2221.82 920.944Z" fill="url(#paint68_linear_6_555)"/>
</g>
<path d="M2850 236.638L2700.93 109L2665 302L2850 236.638Z" fill="url(#paint69_linear_6_555)"/>
<path d="M2700.93 109L2735.81 207.845L2850 236.638L2700.93 109Z" fill="url(#paint70_linear_6_555)"/>
<path d="M2735.81 207.845L2665 302L2700.93 109L2735.81 207.845Z" fill="url(#paint71_linear_6_555)"/>
<path d="M2850 616.638L2700.93 489L2665 682L2850 616.638Z" fill="url(#paint72_linear_6_555)"/>
<path d="M2700.93 489L2735.81 587.845L2850 616.638L2700.93 489Z" fill="url(#paint73_linear_6_555)"/>
<path d="M2735.81 587.845L2665 682L2700.93 489L2735.81 587.845Z" fill="url(#paint74_linear_6_555)"/>
<g filter="url(#filter19_f_6_555)">
<path d="M2850 1044.64L2700.93 917L2665 1110L2850 1044.64Z" fill="url(#paint75_linear_6_555)"/>
</g>
<g filter="url(#filter20_f_6_555)">
<path d="M2700.93 917L2735.81 1015.84L2850 1044.64L2700.93 917Z" fill="url(#paint76_linear_6_555)"/>
</g>
<g filter="url(#filter21_f_6_555)">
<path d="M2735.81 1015.84L2665 1110L2700.93 917L2735.81 1015.84Z" fill="url(#paint77_linear_6_555)"/>
</g>
<path d="M3152.98 191.357C3152.98 195.299 3152.56 199.144 3151.71 202.914C3144.41 236.275 3105.95 261.752 3059.54 261.788C3013.16 261.85 2974.62 236.422 2967.28 203.073C2966.44 199.303 2966 195.434 2966 191.492V214.643L2966.01 214.692C2966.06 253.561 3007.94 285.049 3059.58 285C3111.2 284.939 3153.04 253.378 3153 214.508V191.357H3152.98Z" fill="url(#paint78_linear_6_555)"/>
<path d="M3059.42 121C3007.78 121.049 2965.98 152.61 2966 191.492C2966 195.434 2966.44 199.303 2967.28 203.074C2974.64 236.422 3013.16 261.85 3059.54 261.788C3105.94 261.739 3144.41 236.275 3151.71 202.914C3152.56 199.156 3152.98 195.3 3152.98 191.357V191.309C3152.94 152.426 3111.06 120.951 3059.42 121ZM3059.54 233.827C3028.42 233.851 3003.2 214.9 3003.15 191.468C3003.14 168.036 3028.33 149.011 3059.44 148.986C3090.56 148.962 3115.8 167.925 3115.83 191.345C3115.85 214.777 3090.65 233.802 3059.54 233.827Z" fill="url(#paint79_linear_6_555)"/>
<path d="M3115.83 191.345C3115.83 194.724 3115.31 198.03 3114.31 201.2C3108.43 182.506 3086.09 168.586 3059.46 168.623C3032.85 168.648 3010.56 182.567 3004.68 201.249C3003.69 198.103 3003.16 194.847 3003.16 191.468C3003.15 168.036 3028.35 149.011 3059.46 148.986C3090.57 148.962 3115.82 167.925 3115.84 191.345H3115.83Z" fill="url(#paint80_linear_6_555)"/>
<path d="M3151.98 588.357C3151.98 592.299 3151.56 596.144 3150.71 599.914C3143.41 633.275 3104.95 658.752 3058.54 658.788C3012.16 658.85 2973.62 633.422 2966.28 600.073C2965.44 596.303 2965 592.434 2965 588.492V611.643L2965.01 611.692C2965.06 650.561 3006.94 682.049 3058.58 682C3110.2 681.939 3152.04 650.378 3152 611.508V588.357H3151.98Z" fill="url(#paint81_linear_6_555)"/>
<path d="M3058.42 518C3006.78 518.049 2964.98 549.61 2965 588.492C2965 592.434 2965.44 596.303 2966.28 600.074C2973.64 633.422 3012.16 658.85 3058.54 658.788C3104.94 658.739 3143.41 633.275 3150.71 599.914C3151.56 596.156 3151.98 592.3 3151.98 588.357V588.309C3151.94 549.426 3110.06 517.951 3058.42 518ZM3058.54 630.827C3027.42 630.851 3002.2 611.9 3002.15 588.468C3002.14 565.036 3027.33 546.011 3058.44 545.986C3089.56 545.962 3114.8 564.925 3114.83 588.345C3114.85 611.777 3089.65 630.802 3058.54 630.827Z" fill="url(#paint82_linear_6_555)"/>
<path d="M3114.83 588.345C3114.83 591.724 3114.31 595.03 3113.31 598.2C3107.43 579.506 3085.09 565.586 3058.46 565.623C3031.85 565.648 3009.56 579.567 3003.68 598.249C3002.69 595.103 3002.16 591.847 3002.16 588.468C3002.15 565.036 3027.35 546.011 3058.46 545.986C3089.57 545.962 3114.82 564.925 3114.84 588.345H3114.83Z" fill="url(#paint83_linear_6_555)"/>
<g filter="url(#filter22_f_6_555)">
<path d="M3177.98 1002.36C3177.98 1006.3 3177.56 1010.14 3176.71 1013.91C3169.41 1047.28 3130.95 1072.75 3084.54 1072.79C3038.16 1072.85 2999.62 1047.42 2992.28 1014.07C2991.44 1010.3 2991 1006.43 2991 1002.49V1025.64L2991.01 1025.69C2991.06 1064.56 3032.94 1096.05 3084.58 1096C3136.2 1095.94 3178.04 1064.38 3178 1025.51V1002.36H3177.98Z" fill="url(#paint84_linear_6_555)"/>
</g>
<g filter="url(#filter23_f_6_555)">
<path d="M3084.42 932C3032.78 932.049 2990.98 963.61 2991 1002.49C2991 1006.43 2991.44 1010.3 2992.28 1014.07C2999.64 1047.42 3038.16 1072.85 3084.54 1072.79C3130.94 1072.74 3169.41 1047.28 3176.71 1013.91C3177.56 1010.16 3177.98 1006.3 3177.98 1002.36V1002.31C3177.94 963.426 3136.06 931.951 3084.42 932ZM3084.54 1044.83C3053.42 1044.85 3028.2 1025.9 3028.15 1002.47C3028.14 979.036 3053.33 960.011 3084.44 959.986C3115.56 959.962 3140.8 978.925 3140.83 1002.35C3140.85 1025.78 3115.65 1044.8 3084.54 1044.83Z" fill="url(#paint85_linear_6_555)"/>
</g>
<g filter="url(#filter24_f_6_555)">
<path d="M3140.83 1002.35C3140.83 1005.72 3140.31 1009.03 3139.31 1012.2C3133.43 993.506 3111.09 979.586 3084.46 979.623C3057.85 979.648 3035.56 993.567 3029.68 1012.25C3028.69 1009.1 3028.16 1005.85 3028.16 1002.47C3028.15 979.036 3053.35 960.011 3084.46 959.986C3115.57 959.962 3140.82 978.925 3140.84 1002.35H3140.83Z" fill="url(#paint86_linear_6_555)"/>
</g>
<g filter="url(#filter25_b_6_555)">
<rect x="84" y="580" width="3252" height="226" rx="8" fill="white" fill-opacity="0.12"/>
<rect x="84" y="580" width="3252" height="226" rx="8" stroke="white" stroke-width="4"/>
</g>
<defs>
<filter id="filter0_f_6_555" x="98" y="844.853" width="279.874" height="279.874" filterUnits="userSpaceOnUse" color-interpolation-filters="sRGB">
<feFlood flood-opacity="0" result="BackgroundImageFix"/>
<feBlend mode="normal" in="SourceGraphic" in2="BackgroundImageFix" result="shape"/>
<feGaussianBlur stdDeviation="20" result="effect1_foregroundBlur_6_555"/>
</filter>
<filter id="filter1_f_6_555" x="98" y="844.853" width="279.874" height="279.874" filterUnits="userSpaceOnUse" color-interpolation-filters="sRGB">
<feFlood flood-opacity="0" result="BackgroundImageFix"/>
<feBlend mode="normal" in="SourceGraphic" in2="BackgroundImageFix" result="shape"/>
<feGaussianBlur stdDeviation="20" result="effect1_foregroundBlur_6_555"/>
</filter>
<filter id="filter2_f_6_555" x="105.015" y="851.868" width="265.843" height="265.843" filterUnits="userSpaceOnUse" color-interpolation-filters="sRGB">
<feFlood flood-opacity="0" result="BackgroundImageFix"/>
<feBlend mode="normal" in="SourceGraphic" in2="BackgroundImageFix" result="shape"/>
<feGaussianBlur stdDeviation="20" result="effect1_foregroundBlur_6_555"/>
</filter>
<filter id="filter3_f_6_555" x="519.454" y="931.676" width="99.7301" height="103.301" filterUnits="userSpaceOnUse" color-interpolation-filters="sRGB">
<feFlood flood-opacity="0" result="BackgroundImageFix"/>
<feBlend mode="normal" in="SourceGraphic" in2="BackgroundImageFix" result="shape"/>
<feGaussianBlur stdDeviation="10" result="effect1_foregroundBlur_6_555"/>
</filter>
<filter id="filter4_f_6_555" x="496.49" y="898.097" width="186.515" height="196.91" filterUnits="userSpaceOnUse" color-interpolation-filters="sRGB">
<feFlood flood-opacity="0" result="BackgroundImageFix"/>
<feBlend mode="normal" in="SourceGraphic" in2="BackgroundImageFix" result="shape"/>
<feGaussianBlur stdDeviation="10" result="effect1_foregroundBlur_6_555"/>
</filter>
<filter id="filter5_f_6_555" x="467" y="879" width="211.208" height="211.981" filterUnits="userSpaceOnUse" color-interpolation-filters="sRGB">
<feFlood flood-opacity="0" result="BackgroundImageFix"/>
<feBlend mode="normal" in="SourceGraphic" in2="BackgroundImageFix" result="shape"/>
<feGaussianBlur stdDeviation="10" result="effect1_foregroundBlur_6_555"/>
</filter>
<filter id="filter6_f_6_555" x="899.778" y="920.383" width="108.892" height="97.5271" filterUnits="userSpaceOnUse" color-interpolation-filters="sRGB">
<feFlood flood-opacity="0" result="BackgroundImageFix"/>
<feBlend mode="normal" in="SourceGraphic" in2="BackgroundImageFix" result="shape"/>
<feGaussianBlur stdDeviation="10" result="effect1_foregroundBlur_6_555"/>
</filter>
<filter id="filter7_f_6_555" x="831" y="888.056" width="226.483" height="195.002" filterUnits="userSpaceOnUse" color-interpolation-filters="sRGB">
<feFlood flood-opacity="0" result="BackgroundImageFix"/>
<feBlend mode="normal" in="SourceGraphic" in2="BackgroundImageFix" result="shape"/>
<feGaussianBlur stdDeviation="10" result="effect1_foregroundBlur_6_555"/>
</filter>
<filter id="filter8_f_6_555" x="845.474" y="875.007" width="217.514" height="188.262" filterUnits="userSpaceOnUse" color-interpolation-filters="sRGB">
<feFlood flood-opacity="0" result="BackgroundImageFix"/>
<feBlend mode="normal" in="SourceGraphic" in2="BackgroundImageFix" result="shape"/>
<feGaussianBlur stdDeviation="10" result="effect1_foregroundBlur_6_555"/>
</filter>
<filter id="filter9_f_6_555" x="1225.92" y="886.998" width="171.308" height="216.378" filterUnits="userSpaceOnUse" color-interpolation-filters="sRGB">
<feFlood flood-opacity="0" result="BackgroundImageFix"/>
<feBlend mode="normal" in="SourceGraphic" in2="BackgroundImageFix" result="shape"/>
<feGaussianBlur stdDeviation="8" result="effect1_foregroundBlur_6_555"/>
</filter>
<filter id="filter10_f_6_555" x="1225" y="895.794" width="54.4766" height="74.1416" filterUnits="userSpaceOnUse" color-interpolation-filters="sRGB">
<feFlood flood-opacity="0" result="BackgroundImageFix"/>
<feBlend mode="normal" in="SourceGraphic" in2="BackgroundImageFix" result="shape"/>
<feGaussianBlur stdDeviation="8" result="effect1_foregroundBlur_6_555"/>
</filter>
<filter id="filter11_f_6_555" x="1290.92" y="1029.33" width="54.5139" height="74.1921" filterUnits="userSpaceOnUse" color-interpolation-filters="sRGB">
<feFlood flood-opacity="0" result="BackgroundImageFix"/>
<feBlend mode="normal" in="SourceGraphic" in2="BackgroundImageFix" result="shape"/>
<feGaussianBlur stdDeviation="8" result="effect1_foregroundBlur_6_555"/>
</filter>
<filter id="filter12_f_6_555" x="1592" y="916.047" width="202.188" height="203.606" filterUnits="userSpaceOnUse" color-interpolation-filters="sRGB">
<feFlood flood-opacity="0" result="BackgroundImageFix"/>
<feBlend mode="normal" in="SourceGraphic" in2="BackgroundImageFix" result="shape"/>
<feGaussianBlur stdDeviation="10" result="effect1_foregroundBlur_6_555"/>
</filter>
<filter id="filter13_f_6_555" x="1608.35" y="900" width="202.728" height="203.617" filterUnits="userSpaceOnUse" color-interpolation-filters="sRGB">
<feFlood flood-opacity="0" result="BackgroundImageFix"/>
<feBlend mode="normal" in="SourceGraphic" in2="BackgroundImageFix" result="shape"/>
<feGaussianBlur stdDeviation="10" result="effect1_foregroundBlur_6_555"/>
</filter>
<filter id="filter14_f_6_555" x="1936" y="920" width="150.031" height="204.362" filterUnits="userSpaceOnUse" color-interpolation-filters="sRGB">
<feFlood flood-opacity="0" result="BackgroundImageFix"/>
<feBlend mode="normal" in="SourceGraphic" in2="BackgroundImageFix" result="shape"/>
<feGaussianBlur stdDeviation="8" result="effect1_foregroundBlur_6_555"/>
</filter>
<filter id="filter15_f_6_555" x="2018.86" y="920.004" width="67.1625" height="53.8752" filterUnits="userSpaceOnUse" color-interpolation-filters="sRGB">
<feFlood flood-opacity="0" result="BackgroundImageFix"/>
<feBlend mode="normal" in="SourceGraphic" in2="BackgroundImageFix" result="shape"/>
<feGaussianBlur stdDeviation="8" result="effect1_foregroundBlur_6_555"/>
</filter>
<filter id="filter16_f_6_555" x="2198" y="900.944" width="148" height="227.056" filterUnits="userSpaceOnUse" color-interpolation-filters="sRGB">
<feFlood flood-opacity="0" result="BackgroundImageFix"/>
<feBlend mode="normal" in="SourceGraphic" in2="BackgroundImageFix" result="shape"/>
<feGaussianBlur stdDeviation="10" result="effect1_foregroundBlur_6_555"/>
</filter>
<filter id="filter17_f_6_555" x="2302.17" y="907.572" width="151.833" height="220.428" filterUnits="userSpaceOnUse" color-interpolation-filters="sRGB">
<feFlood flood-opacity="0" result="BackgroundImageFix"/>
<feBlend mode="normal" in="SourceGraphic" in2="BackgroundImageFix" result="shape"/>
<feGaussianBlur stdDeviation="10" result="effect1_foregroundBlur_6_555"/>
</filter>
<filter id="filter18_f_6_555" x="2201.82" y="843" width="252.184" height="162.5" filterUnits="userSpaceOnUse" color-interpolation-filters="sRGB">
<feFlood flood-opacity="0" result="BackgroundImageFix"/>
<feBlend mode="normal" in="SourceGraphic" in2="BackgroundImageFix" result="shape"/>
<feGaussianBlur stdDeviation="10" result="effect1_foregroundBlur_6_555"/>
</filter>
<filter id="filter19_f_6_555" x="2645" y="897" width="225" height="233" filterUnits="userSpaceOnUse" color-interpolation-filters="sRGB">
<feFlood flood-opacity="0" result="BackgroundImageFix"/>
<feBlend mode="normal" in="SourceGraphic" in2="BackgroundImageFix" result="shape"/>
<feGaussianBlur stdDeviation="10" result="effect1_foregroundBlur_6_555"/>
</filter>
<filter id="filter20_f_6_555" x="2680.93" y="897" width="189.075" height="167.638" filterUnits="userSpaceOnUse" color-interpolation-filters="sRGB">
<feFlood flood-opacity="0" result="BackgroundImageFix"/>
<feBlend mode="normal" in="SourceGraphic" in2="BackgroundImageFix" result="shape"/>
<feGaussianBlur stdDeviation="10" result="effect1_foregroundBlur_6_555"/>
</filter>
<filter id="filter21_f_6_555" x="2645" y="897" width="110.807" height="233" filterUnits="userSpaceOnUse" color-interpolation-filters="sRGB">
<feFlood flood-opacity="0" result="BackgroundImageFix"/>
<feBlend mode="normal" in="SourceGraphic" in2="BackgroundImageFix" result="shape"/>
<feGaussianBlur stdDeviation="10" result="effect1_foregroundBlur_6_555"/>
</filter>
<filter id="filter22_f_6_555" x="2971" y="982.357" width="227" height="133.643" filterUnits="userSpaceOnUse" color-interpolation-filters="sRGB">
<feFlood flood-opacity="0" result="BackgroundImageFix"/>
<feBlend mode="normal" in="SourceGraphic" in2="BackgroundImageFix" result="shape"/>
<feGaussianBlur stdDeviation="10" result="effect1_foregroundBlur_6_555"/>
</filter>
<filter id="filter23_f_6_555" x="2971" y="912" width="226.975" height="180.788" filterUnits="userSpaceOnUse" color-interpolation-filters="sRGB">
<feFlood flood-opacity="0" result="BackgroundImageFix"/>
<feBlend mode="normal" in="SourceGraphic" in2="BackgroundImageFix" result="shape"/>
<feGaussianBlur stdDeviation="10" result="effect1_foregroundBlur_6_555"/>
</filter>
<filter id="filter24_f_6_555" x="3008.16" y="939.986" width="152.681" height="92.2631" filterUnits="userSpaceOnUse" color-interpolation-filters="sRGB">
<feFlood flood-opacity="0" result="BackgroundImageFix"/>
<feBlend mode="normal" in="SourceGraphic" in2="BackgroundImageFix" result="shape"/>
<feGaussianBlur stdDeviation="10" result="effect1_foregroundBlur_6_555"/>
</filter>
<filter id="filter25_b_6_555" x="42" y="538" width="3336" height="310" filterUnits="userSpaceOnUse" color-interpolation-filters="sRGB">
<feFlood flood-opacity="0" result="BackgroundImageFix"/>
<feGaussianBlur in="BackgroundImageFix" stdDeviation="20"/>
<feComposite in2="SourceAlpha" operator="in" result="effect1_backgroundBlur_6_555"/>
<feBlend mode="normal" in="SourceGraphic" in2="effect1_backgroundBlur_6_555" result="shape"/>
</filter>
<radialGradient id="paint0_radial_6_555" cx="0" cy="0" r="1" gradientUnits="userSpaceOnUse" gradientTransform="translate(223.098 192.374) scale(116.341)">
<stop stop-color="#00BFA7"/>
<stop offset="0.1" stop-color="#00BFA7" stop-opacity="0.95"/>
<stop offset="0.28" stop-color="#00BFA7" stop-opacity="0.82"/>
<stop offset="0.49" stop-color="#00BFA7" stop-opacity="0.62"/>
<stop offset="0.75" stop-color="#00BFA7" stop-opacity="0.33"/>
<stop offset="1" stop-color="#00BFA7" stop-opacity="0"/>
</radialGradient>
<radialGradient id="paint1_radial_6_555" cx="0" cy="0" r="1" gradientUnits="userSpaceOnUse" gradientTransform="translate(186.215 251.626) scale(116.341)">
<stop stop-color="#749CD3"/>
<stop offset="0.17" stop-color="#789AD4" stop-opacity="0.86"/>
<stop offset="0.53" stop-color="#8396D7" stop-opacity="0.51"/>
<stop offset="1" stop-color="#9391DD" stop-opacity="0"/>
</radialGradient>
<radialGradient id="paint2_radial_6_555" cx="0" cy="0" r="1" gradientUnits="userSpaceOnUse" gradientTransform="translate(222.258 193.823) scale(108.213)">
<stop stop-color="#6891DD"/>
<stop offset="0.09" stop-color="#6891DD" stop-opacity="0.96"/>
<stop offset="0.25" stop-color="#6891DD" stop-opacity="0.85"/>
<stop offset="0.44" stop-color="#6891DD" stop-opacity="0.67"/>
<stop offset="0.67" stop-color="#6891DD" stop-opacity="0.42"/>
<stop offset="0.92" stop-color="#6891DD" stop-opacity="0.1"/>
<stop offset="1" stop-color="#6891DD" stop-opacity="0"/>
</radialGradient>
<radialGradient id="paint3_radial_6_555" cx="0" cy="0" r="1" gradientUnits="userSpaceOnUse" gradientTransform="translate(150.494 156.965) rotate(-45) scale(24.8267 13.903)">
<stop stop-color="#7FF2FF"/>
<stop offset="0.07" stop-color="#8EF3FF" stop-opacity="0.88"/>
<stop offset="0.21" stop-color="#ABF6FF" stop-opacity="0.65"/>
<stop offset="0.36" stop-color="#C5F9FF" stop-opacity="0.45"/>
<stop offset="0.5" stop-color="#D9FBFF" stop-opacity="0.29"/>
<stop offset="0.64" stop-color="#EAFCFF" stop-opacity="0.16"/>
<stop offset="0.77" stop-color="#F5FEFF" stop-opacity="0.07"/>
<stop offset="0.89" stop-color="#FCFEFF" stop-opacity="0.02"/>
<stop offset="1" stop-color="white" stop-opacity="0"/>
</radialGradient>
<radialGradient id="paint4_radial_6_555" cx="0" cy="0" r="1" gradientUnits="userSpaceOnUse" gradientTransform="translate(155.285 276.127) rotate(38.34) scale(24.8267 13.903)">
<stop stop-color="#DA91DD"/>
<stop offset="0.02" stop-color="#D58FDB" stop-opacity="0.9"/>
<stop offset="0.07" stop-color="#CD8CDA" stop-opacity="0.71"/>
<stop offset="0.12" stop-color="#C68AD8" stop-opacity="0.54"/>
<stop offset="0.17" stop-color="#C088D6" stop-opacity="0.39"/>
<stop offset="0.23" stop-color="#BB86D5" stop-opacity="0.27"/>
<stop offset="0.3" stop-color="#B785D4" stop-opacity="0.17"/>
<stop offset="0.38" stop-color="#B384D3" stop-opacity="0.09"/>
<stop offset="0.48" stop-color="#B183D3" stop-opacity="0.04"/>
<stop offset="0.62" stop-color="#B083D3" stop-opacity="0"/>
<stop offset="1" stop-color="#B083D3" stop-opacity="0"/>
</radialGradient>
<radialGradient id="paint5_radial_6_555" cx="0" cy="0" r="1" gradientUnits="userSpaceOnUse" gradientTransform="translate(197.264 295.447) rotate(10.61) scale(32.468 13.8794)">
<stop stop-color="#DA91DD"/>
<stop offset="0.15" stop-color="#CF8DDA" stop-opacity="0.75"/>
<stop offset="0.31" stop-color="#C58AD8" stop-opacity="0.52"/>
<stop offset="0.46" stop-color="#BE87D6" stop-opacity="0.33"/>
<stop offset="0.61" stop-color="#B785D4" stop-opacity="0.19"/>
<stop offset="0.75" stop-color="#B384D3" stop-opacity="0.08"/>
<stop offset="0.88" stop-color="#B083D3" stop-opacity="0.02"/>
<stop offset="1" stop-color="#B083D3" stop-opacity="0"/>
</radialGradient>
<radialGradient id="paint6_radial_6_555" cx="0" cy="0" r="1" gradientUnits="userSpaceOnUse" gradientTransform="translate(273.63 256.692) rotate(-51.77) scale(38.1911 21.5736)">
<stop stop-color="#DA91DD"/>
<stop offset="0.15" stop-color="#CF8DDA" stop-opacity="0.75"/>
<stop offset="0.31" stop-color="#C58AD8" stop-opacity="0.52"/>
<stop offset="0.46" stop-color="#BE87D6" stop-opacity="0.33"/>
<stop offset="0.61" stop-color="#B785D4" stop-opacity="0.19"/>
<stop offset="0.75" stop-color="#B384D3" stop-opacity="0.08"/>
<stop offset="0.88" stop-color="#B083D3" stop-opacity="0.02"/>
<stop offset="1" stop-color="#B083D3" stop-opacity="0"/>
</radialGradient>
<radialGradient id="paint7_radial_6_555" cx="0" cy="0" r="1" gradientUnits="userSpaceOnUse" gradientTransform="translate(243.035 542.227) scale(116.341)">
<stop stop-color="#00BFA7"/>
<stop offset="0.1" stop-color="#00BFA7" stop-opacity="0.95"/>
<stop offset="0.28" stop-color="#00BFA7" stop-opacity="0.82"/>
<stop offset="0.49" stop-color="#00BFA7" stop-opacity="0.62"/>
<stop offset="0.75" stop-color="#00BFA7" stop-opacity="0.33"/>
<stop offset="1" stop-color="#00BFA7" stop-opacity="0"/>
</radialGradient>
<radialGradient id="paint8_radial_6_555" cx="0" cy="0" r="1" gradientUnits="userSpaceOnUse" gradientTransform="translate(206.152 601.479) scale(116.341)">
<stop stop-color="#749CD3"/>
<stop offset="0.17" stop-color="#789AD4" stop-opacity="0.86"/>
<stop offset="0.53" stop-color="#8396D7" stop-opacity="0.51"/>
<stop offset="1" stop-color="#9391DD" stop-opacity="0"/>
</radialGradient>
<radialGradient id="paint9_radial_6_555" cx="0" cy="0" r="1" gradientUnits="userSpaceOnUse" gradientTransform="translate(242.195 543.676) scale(108.213)">
<stop stop-color="#6891DD"/>
<stop offset="0.09" stop-color="#6891DD" stop-opacity="0.96"/>
<stop offset="0.25" stop-color="#6891DD" stop-opacity="0.85"/>
<stop offset="0.44" stop-color="#6891DD" stop-opacity="0.67"/>
<stop offset="0.67" stop-color="#6891DD" stop-opacity="0.42"/>
<stop offset="0.92" stop-color="#6891DD" stop-opacity="0.1"/>
<stop offset="1" stop-color="#6891DD" stop-opacity="0"/>
</radialGradient>
<radialGradient id="paint10_radial_6_555" cx="0" cy="0" r="1" gradientUnits="userSpaceOnUse" gradientTransform="translate(170.431 506.818) rotate(-45) scale(24.8267 13.903)">
<stop stop-color="#7FF2FF"/>
<stop offset="0.07" stop-color="#8EF3FF" stop-opacity="0.88"/>
<stop offset="0.21" stop-color="#ABF6FF" stop-opacity="0.65"/>
<stop offset="0.36" stop-color="#C5F9FF" stop-opacity="0.45"/>
<stop offset="0.5" stop-color="#D9FBFF" stop-opacity="0.29"/>
<stop offset="0.64" stop-color="#EAFCFF" stop-opacity="0.16"/>
<stop offset="0.77" stop-color="#F5FEFF" stop-opacity="0.07"/>
<stop offset="0.89" stop-color="#FCFEFF" stop-opacity="0.02"/>
<stop offset="1" stop-color="white" stop-opacity="0"/>
</radialGradient>
<radialGradient id="paint11_radial_6_555" cx="0" cy="0" r="1" gradientUnits="userSpaceOnUse" gradientTransform="translate(175.222 625.98) rotate(38.34) scale(24.8267 13.903)">
<stop stop-color="#DA91DD"/>
<stop offset="0.02" stop-color="#D58FDB" stop-opacity="0.9"/>
<stop offset="0.07" stop-color="#CD8CDA" stop-opacity="0.71"/>
<stop offset="0.12" stop-color="#C68AD8" stop-opacity="0.54"/>
<stop offset="0.17" stop-color="#C088D6" stop-opacity="0.39"/>
<stop offset="0.23" stop-color="#BB86D5" stop-opacity="0.27"/>
<stop offset="0.3" stop-color="#B785D4" stop-opacity="0.17"/>
<stop offset="0.38" stop-color="#B384D3" stop-opacity="0.09"/>
<stop offset="0.48" stop-color="#B183D3" stop-opacity="0.04"/>
<stop offset="0.62" stop-color="#B083D3" stop-opacity="0"/>
<stop offset="1" stop-color="#B083D3" stop-opacity="0"/>
</radialGradient>
<radialGradient id="paint12_radial_6_555" cx="0" cy="0" r="1" gradientUnits="userSpaceOnUse" gradientTransform="translate(217.201 645.3) rotate(10.61) scale(32.468 13.8794)">
<stop stop-color="#DA91DD"/>
<stop offset="0.15" stop-color="#CF8DDA" stop-opacity="0.75"/>
<stop offset="0.31" stop-color="#C58AD8" stop-opacity="0.52"/>
<stop offset="0.46" stop-color="#BE87D6" stop-opacity="0.33"/>
<stop offset="0.61" stop-color="#B785D4" stop-opacity="0.19"/>
<stop offset="0.75" stop-color="#B384D3" stop-opacity="0.08"/>
<stop offset="0.88" stop-color="#B083D3" stop-opacity="0.02"/>
<stop offset="1" stop-color="#B083D3" stop-opacity="0"/>
</radialGradient>
<radialGradient id="paint13_radial_6_555" cx="0" cy="0" r="1" gradientUnits="userSpaceOnUse" gradientTransform="translate(293.567 606.545) rotate(-51.77) scale(38.1911 21.5736)">
<stop stop-color="#DA91DD"/>
<stop offset="0.15" stop-color="#CF8DDA" stop-opacity="0.75"/>
<stop offset="0.31" stop-color="#C58AD8" stop-opacity="0.52"/>
<stop offset="0.46" stop-color="#BE87D6" stop-opacity="0.33"/>
<stop offset="0.61" stop-color="#B785D4" stop-opacity="0.19"/>
<stop offset="0.75" stop-color="#B384D3" stop-opacity="0.08"/>
<stop offset="0.88" stop-color="#B083D3" stop-opacity="0.02"/>
<stop offset="1" stop-color="#B083D3" stop-opacity="0"/>
</radialGradient>
<radialGradient id="paint14_radial_6_555" cx="0" cy="0" r="1" gradientUnits="userSpaceOnUse" gradientTransform="translate(250.035 964.227) scale(116.341)">
<stop stop-color="#00BFA7"/>
<stop offset="0.1" stop-color="#00BFA7" stop-opacity="0.95"/>
<stop offset="0.28" stop-color="#00BFA7" stop-opacity="0.82"/>
<stop offset="0.49" stop-color="#00BFA7" stop-opacity="0.62"/>
<stop offset="0.75" stop-color="#00BFA7" stop-opacity="0.33"/>
<stop offset="1" stop-color="#00BFA7" stop-opacity="0"/>
</radialGradient>
<radialGradient id="paint15_radial_6_555" cx="0" cy="0" r="1" gradientUnits="userSpaceOnUse" gradientTransform="translate(213.152 1023.48) scale(116.341)">
<stop stop-color="#749CD3"/>
<stop offset="0.17" stop-color="#789AD4" stop-opacity="0.86"/>
<stop offset="0.53" stop-color="#8396D7" stop-opacity="0.51"/>
<stop offset="1" stop-color="#9391DD" stop-opacity="0"/>
</radialGradient>
<radialGradient id="paint16_radial_6_555" cx="0" cy="0" r="1" gradientUnits="userSpaceOnUse" gradientTransform="translate(249.195 965.676) scale(108.213)">
<stop stop-color="#6891DD"/>
<stop offset="0.09" stop-color="#6891DD" stop-opacity="0.96"/>
<stop offset="0.25" stop-color="#6891DD" stop-opacity="0.85"/>
<stop offset="0.44" stop-color="#6891DD" stop-opacity="0.67"/>
<stop offset="0.67" stop-color="#6891DD" stop-opacity="0.42"/>
<stop offset="0.92" stop-color="#6891DD" stop-opacity="0.1"/>
<stop offset="1" stop-color="#6891DD" stop-opacity="0"/>
</radialGradient>
<radialGradient id="paint17_radial_6_555" cx="0" cy="0" r="1" gradientUnits="userSpaceOnUse" gradientTransform="translate(177.431 928.818) rotate(-45) scale(24.8267 13.903)">
<stop stop-color="#7FF2FF"/>
<stop offset="0.07" stop-color="#8EF3FF" stop-opacity="0.88"/>
<stop offset="0.21" stop-color="#ABF6FF" stop-opacity="0.65"/>
<stop offset="0.36" stop-color="#C5F9FF" stop-opacity="0.45"/>
<stop offset="0.5" stop-color="#D9FBFF" stop-opacity="0.29"/>
<stop offset="0.64" stop-color="#EAFCFF" stop-opacity="0.16"/>
<stop offset="0.77" stop-color="#F5FEFF" stop-opacity="0.07"/>
<stop offset="0.89" stop-color="#FCFEFF" stop-opacity="0.02"/>
<stop offset="1" stop-color="white" stop-opacity="0"/>
</radialGradient>
<radialGradient id="paint18_radial_6_555" cx="0" cy="0" r="1" gradientUnits="userSpaceOnUse" gradientTransform="translate(182.222 1047.98) rotate(38.34) scale(24.8267 13.903)">
<stop stop-color="#DA91DD"/>
<stop offset="0.02" stop-color="#D58FDB" stop-opacity="0.9"/>
<stop offset="0.07" stop-color="#CD8CDA" stop-opacity="0.71"/>
<stop offset="0.12" stop-color="#C68AD8" stop-opacity="0.54"/>
<stop offset="0.17" stop-color="#C088D6" stop-opacity="0.39"/>
<stop offset="0.23" stop-color="#BB86D5" stop-opacity="0.27"/>
<stop offset="0.3" stop-color="#B785D4" stop-opacity="0.17"/>
<stop offset="0.38" stop-color="#B384D3" stop-opacity="0.09"/>
<stop offset="0.48" stop-color="#B183D3" stop-opacity="0.04"/>
<stop offset="0.62" stop-color="#B083D3" stop-opacity="0"/>
<stop offset="1" stop-color="#B083D3" stop-opacity="0"/>
</radialGradient>
<radialGradient id="paint19_radial_6_555" cx="0" cy="0" r="1" gradientUnits="userSpaceOnUse" gradientTransform="translate(224.201 1067.3) rotate(10.61) scale(32.468 13.8794)">
<stop stop-color="#DA91DD"/>
<stop offset="0.15" stop-color="#CF8DDA" stop-opacity="0.75"/>
<stop offset="0.31" stop-color="#C58AD8" stop-opacity="0.52"/>
<stop offset="0.46" stop-color="#BE87D6" stop-opacity="0.33"/>
<stop offset="0.61" stop-color="#B785D4" stop-opacity="0.19"/>
<stop offset="0.75" stop-color="#B384D3" stop-opacity="0.08"/>
<stop offset="0.88" stop-color="#B083D3" stop-opacity="0.02"/>
<stop offset="1" stop-color="#B083D3" stop-opacity="0"/>
</radialGradient>
<radialGradient id="paint20_radial_6_555" cx="0" cy="0" r="1" gradientUnits="userSpaceOnUse" gradientTransform="translate(300.567 1028.54) rotate(-51.77) scale(38.1911 21.5736)">
<stop stop-color="#DA91DD"/>
<stop offset="0.15" stop-color="#CF8DDA" stop-opacity="0.75"/>
<stop offset="0.31" stop-color="#C58AD8" stop-opacity="0.52"/>
<stop offset="0.46" stop-color="#BE87D6" stop-opacity="0.33"/>
<stop offset="0.61" stop-color="#B785D4" stop-opacity="0.19"/>
<stop offset="0.75" stop-color="#B384D3" stop-opacity="0.08"/>
<stop offset="0.88" stop-color="#B083D3" stop-opacity="0.02"/>
<stop offset="1" stop-color="#B083D3" stop-opacity="0"/>
</radialGradient>
<linearGradient id="paint21_linear_6_555" x1="539.474" y1="197.343" x2="599.184" y2="197.343" gradientUnits="userSpaceOnUse">
<stop stop-color="#1DC3B2"/>
<stop offset="1" stop-color="#0B91FF"/>
</linearGradient>
<linearGradient id="paint22_linear_6_555" x1="516.49" y1="210.541" x2="663.007" y2="210.541" gradientUnits="userSpaceOnUse">
<stop stop-color="#1DC3B2"/>
<stop offset="1" stop-color="#0B91FF"/>
</linearGradient>
<linearGradient id="paint23_linear_6_555" x1="514.205" y1="106.191" x2="633.937" y2="297.042" gradientUnits="userSpaceOnUse">
<stop stop-color="#BFFFFF"/>
<stop offset="1" stop-color="#8EC2F3"/>
</linearGradient>
<linearGradient id="paint24_linear_6_555" x1="539.474" y1="983.343" x2="599.184" y2="983.343" gradientUnits="userSpaceOnUse">
<stop stop-color="#1DC3B2"/>
<stop offset="1" stop-color="#0B91FF"/>
</linearGradient>
<linearGradient id="paint25_linear_6_555" x1="516.49" y1="996.541" x2="663.007" y2="996.541" gradientUnits="userSpaceOnUse">
<stop stop-color="#1DC3B2"/>
<stop offset="1" stop-color="#0B91FF"/>
</linearGradient>
<linearGradient id="paint26_linear_6_555" x1="514.205" y1="892.191" x2="633.937" y2="1083.04" gradientUnits="userSpaceOnUse">
<stop stop-color="#BFFFFF"/>
<stop offset="1" stop-color="#8EC2F3"/>
</linearGradient>
<linearGradient id="paint27_linear_6_555" x1="539.474" y1="575.343" x2="599.184" y2="575.343" gradientUnits="userSpaceOnUse">
<stop stop-color="#1DC3B2"/>
<stop offset="1" stop-color="#0B91FF"/>
</linearGradient>
<linearGradient id="paint28_linear_6_555" x1="516.49" y1="588.541" x2="663.007" y2="588.541" gradientUnits="userSpaceOnUse">
<stop stop-color="#1DC3B2"/>
<stop offset="1" stop-color="#0B91FF"/>
</linearGradient>
<linearGradient id="paint29_linear_6_555" x1="514.205" y1="484.191" x2="633.937" y2="675.042" gradientUnits="userSpaceOnUse">
<stop stop-color="#BFFFFF"/>
<stop offset="1" stop-color="#8EC2F3"/>
</linearGradient>
<linearGradient id="paint30_linear_6_555" x1="919.8" y1="187.155" x2="988.67" y2="187.155" gradientUnits="userSpaceOnUse">
<stop stop-color="#1DC3B2"/>
<stop offset="1" stop-color="#0B91FF"/>
</linearGradient>
<linearGradient id="paint31_linear_6_555" x1="851" y1="203.539" x2="1037.49" y2="203.539" gradientUnits="userSpaceOnUse">
<stop stop-color="#1DC3B2"/>
<stop offset="1" stop-color="#0B91FF"/>
</linearGradient>
<linearGradient id="paint32_linear_6_555" x1="893.681" y1="107.13" x2="987.699" y2="287.372" gradientUnits="userSpaceOnUse">
<stop stop-color="#BFFFFF"/>
<stop offset="1" stop-color="#8EC2F3"/>
</linearGradient>
<linearGradient id="paint33_linear_6_555" x1="919.8" y1="575.162" x2="988.67" y2="575.162" gradientUnits="userSpaceOnUse">
<stop stop-color="#1DC3B2"/>
<stop offset="1" stop-color="#0B91FF"/>
</linearGradient>
<linearGradient id="paint34_linear_6_555" x1="851" y1="591.546" x2="1037.49" y2="591.546" gradientUnits="userSpaceOnUse">
<stop stop-color="#1DC3B2"/>
<stop offset="1" stop-color="#0B91FF"/>
</linearGradient>
<linearGradient id="paint35_linear_6_555" x1="893.681" y1="495.137" x2="987.699" y2="675.38" gradientUnits="userSpaceOnUse">
<stop stop-color="#BFFFFF"/>
<stop offset="1" stop-color="#8EC2F3"/>
</linearGradient>
<linearGradient id="paint36_linear_6_555" x1="919.8" y1="969.162" x2="988.67" y2="969.162" gradientUnits="userSpaceOnUse">
<stop stop-color="#1DC3B2"/>
<stop offset="1" stop-color="#0B91FF"/>
</linearGradient>
<linearGradient id="paint37_linear_6_555" x1="851" y1="985.546" x2="1037.49" y2="985.546" gradientUnits="userSpaceOnUse">
<stop stop-color="#1DC3B2"/>
<stop offset="1" stop-color="#0B91FF"/>
</linearGradient>
<linearGradient id="paint38_linear_6_555" x1="893.681" y1="889.137" x2="987.699" y2="1069.38" gradientUnits="userSpaceOnUse">
<stop stop-color="#BFFFFF"/>
<stop offset="1" stop-color="#8EC2F3"/>
</linearGradient>
<linearGradient id="paint39_linear_6_555" x1="1264.06" y1="105.7" x2="1404.08" y2="275.097" gradientUnits="userSpaceOnUse">
<stop stop-color="#BFFFFF"/>
<stop offset="1" stop-color="#8EC2F3"/>
</linearGradient>
<linearGradient id="paint40_linear_6_555" x1="1241" y1="142.864" x2="1263.48" y2="142.864" gradientUnits="userSpaceOnUse">
<stop stop-color="#1DC3B2"/>
<stop offset="1" stop-color="#0B91FF"/>
</linearGradient>
<linearGradient id="paint41_linear_6_555" x1="1306.92" y1="276.429" x2="1329.43" y2="276.429" gradientUnits="userSpaceOnUse">
<stop stop-color="#1DC3B2"/>
<stop offset="1" stop-color="#0B91FF"/>
</linearGradient>
<linearGradient id="paint42_linear_6_555" x1="1264.06" y1="507.698" x2="1404.08" y2="677.095" gradientUnits="userSpaceOnUse">
<stop stop-color="#BFFFFF"/>
<stop offset="1" stop-color="#8EC2F3"/>
</linearGradient>
<linearGradient id="paint43_linear_6_555" x1="1241" y1="544.862" x2="1263.48" y2="544.862" gradientUnits="userSpaceOnUse">
<stop stop-color="#1DC3B2"/>
<stop offset="1" stop-color="#0B91FF"/>
</linearGradient>
<linearGradient id="paint44_linear_6_555" x1="1306.92" y1="678.427" x2="1329.43" y2="678.427" gradientUnits="userSpaceOnUse">
<stop stop-color="#1DC3B2"/>
<stop offset="1" stop-color="#0B91FF"/>
</linearGradient>
<linearGradient id="paint45_linear_6_555" x1="1264.06" y1="895.698" x2="1404.08" y2="1065.09" gradientUnits="userSpaceOnUse">
<stop stop-color="#BFFFFF"/>
<stop offset="1" stop-color="#8EC2F3"/>
</linearGradient>
<linearGradient id="paint46_linear_6_555" x1="1241" y1="932.862" x2="1263.48" y2="932.862" gradientUnits="userSpaceOnUse">
<stop stop-color="#1DC3B2"/>
<stop offset="1" stop-color="#0B91FF"/>
</linearGradient>
<linearGradient id="paint47_linear_6_555" x1="1306.92" y1="1066.43" x2="1329.43" y2="1066.43" gradientUnits="userSpaceOnUse">
<stop stop-color="#1DC3B2"/>
<stop offset="1" stop-color="#0B91FF"/>
</linearGradient>
<linearGradient id="paint48_linear_6_555" x1="1612" y1="210.838" x2="1774.19" y2="210.838" gradientUnits="userSpaceOnUse">
<stop stop-color="#1DC3B2"/>
<stop offset="1" stop-color="#0B91FF"/>
</linearGradient>
<linearGradient id="paint49_linear_6_555" x1="1654.21" y1="106.522" x2="1768.16" y2="287.995" gradientUnits="userSpaceOnUse">
<stop stop-color="#BFFFFF"/>
<stop offset="1" stop-color="#8EC2F3"/>
</linearGradient>
<linearGradient id="paint50_linear_6_555" x1="1612" y1="601.838" x2="1774.19" y2="601.838" gradientUnits="userSpaceOnUse">
<stop stop-color="#1DC3B2"/>
<stop offset="1" stop-color="#0B91FF"/>
</linearGradient>
<linearGradient id="paint51_linear_6_555" x1="1654.21" y1="497.522" x2="1768.16" y2="678.995" gradientUnits="userSpaceOnUse">
<stop stop-color="#BFFFFF"/>
<stop offset="1" stop-color="#8EC2F3"/>
</linearGradient>
<linearGradient id="paint52_linear_6_555" x1="1612" y1="1017.84" x2="1774.19" y2="1017.84" gradientUnits="userSpaceOnUse">
<stop stop-color="#1DC3B2"/>
<stop offset="1" stop-color="#0B91FF"/>
</linearGradient>
<linearGradient id="paint53_linear_6_555" x1="1654.21" y1="913.522" x2="1768.16" y2="1094.99" gradientUnits="userSpaceOnUse">
<stop stop-color="#BFFFFF"/>
<stop offset="1" stop-color="#8EC2F3"/>
</linearGradient>
<linearGradient id="paint54_linear_6_555" x1="1970.75" y1="114.174" x2="2103.46" y2="259.691" gradientUnits="userSpaceOnUse">
<stop stop-color="#BFFFFF"/>
<stop offset="1" stop-color="#8EC2F3"/>
</linearGradient>
<linearGradient id="paint55_linear_6_555" x1="2034.85" y1="131.938" x2="2070.02" y2="131.938" gradientUnits="userSpaceOnUse">
<stop stop-color="#1DC3B2"/>
<stop offset="1" stop-color="#0B91FF"/>
</linearGradient>
<linearGradient id="paint56_linear_6_555" x1="1970.76" y1="514.176" x2="2103.47" y2="659.693" gradientUnits="userSpaceOnUse">
<stop stop-color="#BFFFFF"/>
<stop offset="1" stop-color="#8EC2F3"/>
</linearGradient>
<linearGradient id="paint57_linear_6_555" x1="2034.86" y1="531.94" x2="2070.02" y2="531.94" gradientUnits="userSpaceOnUse">
<stop stop-color="#1DC3B2"/>
<stop offset="1" stop-color="#0B91FF"/>
</linearGradient>
<linearGradient id="paint58_linear_6_555" x1="1970.76" y1="929.176" x2="2103.47" y2="1074.69" gradientUnits="userSpaceOnUse">
<stop stop-color="#BFFFFF"/>
<stop offset="1" stop-color="#8EC2F3"/>
</linearGradient>
<linearGradient id="paint59_linear_6_555" x1="2034.86" y1="946.94" x2="2070.02" y2="946.94" gradientUnits="userSpaceOnUse">
<stop stop-color="#1DC3B2"/>
<stop offset="1" stop-color="#0B91FF"/>
</linearGradient>
<linearGradient id="paint60_linear_6_555" x1="2235.16" y1="151.539" x2="2379.36" y2="284.843" gradientUnits="userSpaceOnUse">
<stop stop-color="#BFFFFF"/>
<stop offset="1" stop-color="#8EC2F3"/>
</linearGradient>
<linearGradient id="paint61_linear_6_555" x1="2339.94" y1="158.429" x2="2479.45" y2="296.885" gradientUnits="userSpaceOnUse">
<stop stop-color="#BFFFFF"/>
<stop offset="1" stop-color="#8EC2F3"/>
</linearGradient>
<linearGradient id="paint62_linear_6_555" x1="2255.53" y1="96.1501" x2="2315.98" y2="263.799" gradientUnits="userSpaceOnUse">
<stop stop-color="#BFFFFF"/>
<stop offset="1" stop-color="#8EC2F3"/>
</linearGradient>
<linearGradient id="paint63_linear_6_555" x1="2231.16" y1="554.539" x2="2375.36" y2="687.843" gradientUnits="userSpaceOnUse">
<stop stop-color="#BFFFFF"/>
<stop offset="1" stop-color="#8EC2F3"/>
</linearGradient>
<linearGradient id="paint64_linear_6_555" x1="2335.94" y1="561.429" x2="2475.45" y2="699.885" gradientUnits="userSpaceOnUse">
<stop stop-color="#BFFFFF"/>
<stop offset="1" stop-color="#8EC2F3"/>
</linearGradient>
<linearGradient id="paint65_linear_6_555" x1="2251.53" y1="499.15" x2="2311.98" y2="666.799" gradientUnits="userSpaceOnUse">
<stop stop-color="#BFFFFF"/>
<stop offset="1" stop-color="#8EC2F3"/>
</linearGradient>
<linearGradient id="paint66_linear_6_555" x1="2235.16" y1="913.539" x2="2379.36" y2="1046.84" gradientUnits="userSpaceOnUse">
<stop stop-color="#BFFFFF"/>
<stop offset="1" stop-color="#8EC2F3"/>
</linearGradient>
<linearGradient id="paint67_linear_6_555" x1="2339.94" y1="920.429" x2="2479.45" y2="1058.89" gradientUnits="userSpaceOnUse">
<stop stop-color="#BFFFFF"/>
<stop offset="1" stop-color="#8EC2F3"/>
</linearGradient>
<linearGradient id="paint68_linear_6_555" x1="2255.53" y1="858.15" x2="2315.98" y2="1025.8" gradientUnits="userSpaceOnUse">
<stop stop-color="#BFFFFF"/>
<stop offset="1" stop-color="#8EC2F3"/>
</linearGradient>
<linearGradient id="paint69_linear_6_555" x1="2694.4" y1="101.359" x2="2830.91" y2="310.884" gradientUnits="userSpaceOnUse">
<stop stop-color="#BFFFFF"/>
<stop offset="1" stop-color="#8EC2F3"/>
</linearGradient>
<linearGradient id="paint70_linear_6_555" x1="2724.61" y1="103.947" x2="2806.69" y2="257.446" gradientUnits="userSpaceOnUse">
<stop stop-color="#BFFFFF"/>
<stop offset="1" stop-color="#8EC2F3"/>
</linearGradient>
<linearGradient id="paint71_linear_6_555" x1="2676.25" y1="101.359" x2="2806.6" y2="177.933" gradientUnits="userSpaceOnUse">
<stop stop-color="#BFFFFF"/>
<stop offset="1" stop-color="#8EC2F3"/>
</linearGradient>
<linearGradient id="paint72_linear_6_555" x1="2694.4" y1="481.359" x2="2830.91" y2="690.884" gradientUnits="userSpaceOnUse">
<stop stop-color="#BFFFFF"/>
<stop offset="1" stop-color="#8EC2F3"/>
</linearGradient>
<linearGradient id="paint73_linear_6_555" x1="2724.61" y1="483.947" x2="2806.69" y2="637.446" gradientUnits="userSpaceOnUse">
<stop stop-color="#BFFFFF"/>
<stop offset="1" stop-color="#8EC2F3"/>
</linearGradient>
<linearGradient id="paint74_linear_6_555" x1="2676.25" y1="481.359" x2="2806.6" y2="557.933" gradientUnits="userSpaceOnUse">
<stop stop-color="#BFFFFF"/>
<stop offset="1" stop-color="#8EC2F3"/>
</linearGradient>
<linearGradient id="paint75_linear_6_555" x1="2694.4" y1="909.359" x2="2830.91" y2="1118.88" gradientUnits="userSpaceOnUse">
<stop stop-color="#BFFFFF"/>
<stop offset="1" stop-color="#8EC2F3"/>
</linearGradient>
<linearGradient id="paint76_linear_6_555" x1="2724.61" y1="911.947" x2="2806.69" y2="1065.45" gradientUnits="userSpaceOnUse">
<stop stop-color="#BFFFFF"/>
<stop offset="1" stop-color="#8EC2F3"/>
</linearGradient>
<linearGradient id="paint77_linear_6_555" x1="2676.25" y1="909.359" x2="2806.6" y2="985.933" gradientUnits="userSpaceOnUse">
<stop stop-color="#BFFFFF"/>
<stop offset="1" stop-color="#8EC2F3"/>
</linearGradient>
<linearGradient id="paint78_linear_6_555" x1="2966" y1="238.172" x2="3153" y2="238.172" gradientUnits="userSpaceOnUse">
<stop stop-color="#1DC3B2"/>
<stop offset="1" stop-color="#0B91FF"/>
</linearGradient>
<linearGradient id="paint79_linear_6_555" x1="2995.71" y1="115.426" x2="3079.56" y2="293.723" gradientUnits="userSpaceOnUse">
<stop stop-color="#BFFFFF"/>
<stop offset="1" stop-color="#8EC2F3"/>
</linearGradient>
<linearGradient id="paint80_linear_6_555" x1="3003.16" y1="175.114" x2="3115.84" y2="175.114" gradientUnits="userSpaceOnUse">
<stop stop-color="#1DC3B2"/>
<stop offset="1" stop-color="#0B91FF"/>
</linearGradient>
<linearGradient id="paint81_linear_6_555" x1="2965" y1="635.172" x2="3152" y2="635.172" gradientUnits="userSpaceOnUse">
<stop stop-color="#1DC3B2"/>
<stop offset="1" stop-color="#0B91FF"/>
</linearGradient>
<linearGradient id="paint82_linear_6_555" x1="2994.71" y1="512.426" x2="3078.56" y2="690.723" gradientUnits="userSpaceOnUse">
<stop stop-color="#BFFFFF"/>
<stop offset="1" stop-color="#8EC2F3"/>
</linearGradient>
<linearGradient id="paint83_linear_6_555" x1="3002.16" y1="572.114" x2="3114.84" y2="572.114" gradientUnits="userSpaceOnUse">
<stop stop-color="#1DC3B2"/>
<stop offset="1" stop-color="#0B91FF"/>
</linearGradient>
<linearGradient id="paint84_linear_6_555" x1="2991" y1="1049.17" x2="3178" y2="1049.17" gradientUnits="userSpaceOnUse">
<stop stop-color="#1DC3B2"/>
<stop offset="1" stop-color="#0B91FF"/>
</linearGradient>
<linearGradient id="paint85_linear_6_555" x1="3020.71" y1="926.426" x2="3104.56" y2="1104.72" gradientUnits="userSpaceOnUse">
<stop stop-color="#BFFFFF"/>
<stop offset="1" stop-color="#8EC2F3"/>
</linearGradient>
<linearGradient id="paint86_linear_6_555" x1="3028.16" y1="986.114" x2="3140.84" y2="986.114" gradientUnits="userSpaceOnUse">
<stop stop-color="#1DC3B2"/>
<stop offset="1" stop-color="#0B91FF"/>
</linearGradient>
</defs>
</svg>
