<svg width="1920" height="1080" viewBox="0 0 1920 1080" fill="none" xmlns="http://www.w3.org/2000/svg">
<g clip-path="url(#clip0_121_16)">
<rect width="1920" height="1080" fill="#0F020C"/>
<g filter="url(#filter0_f_121_16)">
<path fill-rule="evenodd" clip-rule="evenodd" d="M2189.41 2112.25C2019.92 2190.73 1821.38 2270.06 1655.47 2222.36C1491.87 2175.31 1480.04 1986.93 1371.32 1877.01C1253.63 1758 1025.02 1714.19 994.741 1554.24C963.514 1389.27 1065.99 1196.53 1218.02 1067.12C1360.9 945.483 1576.94 965.195 1760.27 902.582C1939.55 841.352 2095.7 696.247 2278.24 705.014C2470.42 714.243 2624.66 822.959 2731.45 949.223C2837.05 1074.08 2896.96 1233.87 2864.66 1398.34C2834.33 1552.74 2684.94 1673.8 2564.05 1801.61C2452.17 1919.89 2344.53 2040.41 2189.41 2112.25Z" fill="#1D47CA"/>
</g>
<g filter="url(#filter1_f_121_16)">
<path fill-rule="evenodd" clip-rule="evenodd" d="M966.021 -1403.25C1149.8 -1334.93 1355.69 -1245.57 1442.76 -1086.64C1528.62 -929.911 1396.94 -781.85 1395.36 -619.564C1393.64 -443.867 1529.96 -241.074 1433.12 -100.283C1333.23 44.9311 1113.82 111.013 904.977 93.3477C708.697 76.7448 563.706 -98.8605 381.524 -189.235C203.368 -277.614 -20.2157 -286.757 -148.608 -429.305C-283.775 -579.375 -316.745 -774.705 -301.564 -947.638C-286.552 -1118.64 -211.717 -1281.41 -65.2445 -1378.9C72.2567 -1470.42 272.921 -1448.54 457.549 -1452.9C628.408 -1456.93 797.808 -1465.78 966.021 -1403.25Z" fill="#009BF6"/>
</g>
<g filter="url(#filter2_f_121_16)">
<path fill-rule="evenodd" clip-rule="evenodd" d="M-458.767 603.077C-266.063 574.188 -44.0091 552.973 108.113 649.383C258.128 744.457 214.739 936.54 291.353 1078.48C374.299 1232.14 590.349 1343.04 573.766 1512.06C556.662 1686.39 397.547 1849.32 207.383 1934.32C28.6575 2014.21 -181.867 1931.13 -383.783 1940.07C-581.238 1948.81 -780.13 2048.31 -960.328 1986.01C-1150.03 1920.42 -1272.59 1766.34 -1342.49 1608.61C-1411.62 1452.64 -1424.74 1275.08 -1344.18 1119.88C-1268.55 974.179 -1083.47 896.776 -924.956 804.253C-778.262 718.63 -635.151 629.519 -458.767 603.077Z" fill="#B300C0"/>
</g>
<g filter="url(#filter3_bd_121_16)">
<path d="M1055.74 940H1644.12C1665.95 940 1683.65 922.303 1683.65 900.473V306.16L1483.42 106H1055.74C1033.91 106 1016.22 123.697 1016.22 145.527V900.473C1016.22 922.303 1033.91 940 1055.74 940Z" fill="url(#paint0_linear_121_16)" fill-opacity="0.8" shape-rendering="crispEdges"/>
</g>
<path d="M1483.42 287.02V106L1683.65 306.16V326.547H1522.95C1501.12 326.547 1483.42 308.85 1483.42 287.02Z" fill="url(#paint1_linear_121_16)" fill-opacity="0.4" style="mix-blend-mode:multiply"/>
<path d="M1483.42 266.633V106L1683.65 306.16H1522.95C1501.12 306.16 1483.42 288.463 1483.42 266.633Z" fill="url(#paint2_linear_121_16)" fill-opacity="0.8"/>
<path d="M782 682H811.472L826.849 639.714H908.858L924.234 682H953.706L888.355 502.605H847.351L782 682ZM835.818 615.368L865.29 533.359H870.416L899.888 615.368H835.818ZM1026.73 658.935C1006.22 658.935 990.847 643.558 990.847 623.056C990.847 602.554 1006.22 587.177 1026.73 587.177C1047.23 587.177 1062.6 602.554 1062.6 623.056C1062.6 643.558 1047.23 658.935 1026.73 658.935ZM974.189 587.177C967.782 597.428 963.937 608.704 963.937 623.056C963.937 657.654 990.847 684.563 1026.73 684.563C1062.6 684.563 1089.51 657.654 1089.51 623.056C1089.51 589.74 1063.89 562.831 1031.85 562.831C1028.52 562.831 1025.7 563.343 1023.65 563.599L1020.32 564.112H1019.04L1058.76 502.605H1028.01L974.189 587.177ZM1108.81 620.493H1233.11V597.428H1108.81V620.493ZM1242 682H1271.47L1286.85 639.714H1368.86L1384.23 682H1413.71L1348.35 502.605H1307.35L1242 682ZM1295.82 615.368L1325.29 533.359H1330.42L1359.89 615.368H1295.82ZM1543.11 592.303C1543.11 637.151 1521.58 658.935 1498.26 658.935C1474.94 658.935 1453.41 637.151 1453.41 592.303C1453.41 547.454 1474.94 525.67 1498.26 525.67C1521.58 525.67 1543.11 547.454 1543.11 592.303ZM1498.26 500.042C1459.82 500.042 1426.5 533.615 1426.5 592.303C1426.5 650.99 1459.82 684.563 1498.26 684.563C1536.7 684.563 1570.02 650.99 1570.02 592.303C1570.02 533.615 1536.7 500.042 1498.26 500.042Z" fill="white"/>
<path d="M789.524 812H797.18L813.68 771.74V765.8H783.65V772.4H805.76L789.524 812ZM816.946 812H847.306V805.4H827.176V805.07L840.046 792.2C843.412 788.834 846.646 785.27 846.646 779.66C846.646 771.014 840.772 765.14 831.796 765.14C822.886 765.14 816.616 771.41 816.616 780.65H823.546C823.546 775.37 827.176 771.74 831.796 771.74C836.482 771.74 839.386 774.644 839.386 779.66C839.386 782.96 838.33 784.544 835.954 786.92L816.946 806.06V812ZM888.92 825.2H895.52V763.82H888.92V825.2ZM937.796 812H968.156V805.4H948.026V805.07L960.896 792.2C964.262 788.834 967.496 785.27 967.496 779.66C967.496 771.014 961.622 765.14 952.646 765.14C943.736 765.14 937.466 771.41 937.466 780.65H944.396C944.396 775.37 948.026 771.74 952.646 771.74C957.332 771.74 960.236 774.644 960.236 779.66C960.236 782.96 959.18 784.544 956.804 786.92L937.796 806.06V812ZM969.775 802.1H991.225V812H998.155V802.1H1003.77V795.83H998.155V765.8H987.265L969.775 796.49V802.1ZM978.025 795.83V795.5L989.905 774.38H991.225V795.83H978.025ZM1038.4 788.9C1038.4 800.45 1032.86 806.06 1026.85 806.06C1020.85 806.06 1015.3 800.45 1015.3 788.9C1015.3 777.35 1020.85 771.74 1026.85 771.74C1032.86 771.74 1038.4 777.35 1038.4 788.9ZM1026.85 765.14C1016.95 765.14 1008.37 773.786 1008.37 788.9C1008.37 804.014 1016.95 812.66 1026.85 812.66C1036.75 812.66 1045.33 804.014 1045.33 788.9C1045.33 773.786 1036.75 765.14 1026.85 765.14ZM1087.63 825.2H1094.23V763.82H1087.63V825.2ZM1135.52 798.8C1135.52 806.456 1141.79 812.66 1151.36 812.66C1160.6 812.66 1166.87 806.72 1166.87 799.13C1166.87 795.17 1165.02 792.53 1163.24 790.88C1162.11 789.89 1160.93 789.164 1159.61 788.57V788.24C1160.86 787.646 1161.92 786.92 1162.91 785.996C1164.56 784.412 1166.21 782.036 1166.21 778.34C1166.21 771.146 1160.33 765.14 1151.36 765.14C1142.05 765.14 1136.18 771.146 1136.18 778.34H1143.11C1143.11 774.644 1146.34 771.74 1151.36 771.74C1156.37 771.74 1159.28 774.644 1159.28 778.34C1159.28 782.3 1156.31 785.27 1151.03 785.27H1148.06V791.54H1151.03C1156.64 791.54 1159.94 794.84 1159.94 798.8C1159.94 803.09 1156.97 806.06 1151.36 806.06C1146.08 806.06 1142.45 802.43 1142.45 798.8H1135.52ZM1203.47 788.9C1203.47 800.45 1197.92 806.06 1191.92 806.06C1185.91 806.06 1180.37 800.45 1180.37 788.9C1180.37 777.35 1185.91 771.74 1191.92 771.74C1197.92 771.74 1203.47 777.35 1203.47 788.9ZM1191.92 765.14C1182.02 765.14 1173.44 773.786 1173.44 788.9C1173.44 804.014 1182.02 812.66 1191.92 812.66C1201.82 812.66 1210.4 804.014 1210.4 788.9C1210.4 773.786 1201.82 765.14 1191.92 765.14ZM1247.04 788.9C1247.04 800.45 1241.49 806.06 1235.49 806.06C1229.48 806.06 1223.94 800.45 1223.94 788.9C1223.94 777.35 1229.48 771.74 1235.49 771.74C1241.49 771.74 1247.04 777.35 1247.04 788.9ZM1235.49 765.14C1225.59 765.14 1217.01 773.786 1217.01 788.9C1217.01 804.014 1225.59 812.66 1235.49 812.66C1245.39 812.66 1253.97 804.014 1253.97 788.9C1253.97 773.786 1245.39 765.14 1235.49 765.14ZM1296.26 825.2H1302.86V763.82H1296.26V825.2ZM1344.15 798.8C1344.15 806.456 1350.42 812.66 1359.99 812.66C1369.23 812.66 1375.5 806.72 1375.5 799.13C1375.5 795.17 1373.65 792.53 1371.87 790.88C1370.75 789.89 1369.56 789.164 1368.24 788.57V788.24C1369.49 787.646 1370.55 786.92 1371.54 785.996C1373.19 784.412 1374.84 782.036 1374.84 778.34C1374.84 771.146 1368.97 765.14 1359.99 765.14C1350.68 765.14 1344.81 771.146 1344.81 778.34H1351.74C1351.74 774.644 1354.97 771.74 1359.99 771.74C1365.01 771.74 1367.91 774.644 1367.91 778.34C1367.91 782.3 1364.94 785.27 1359.66 785.27H1356.69V791.54H1359.66C1365.27 791.54 1368.57 794.84 1368.57 798.8C1368.57 803.09 1365.6 806.06 1359.99 806.06C1354.71 806.06 1351.08 802.43 1351.08 798.8H1344.15ZM1397.58 806.06C1392.3 806.06 1388.34 802.1 1388.34 796.82C1388.34 791.54 1392.3 787.58 1397.58 787.58C1402.86 787.58 1406.82 791.54 1406.82 796.82C1406.82 802.1 1402.86 806.06 1397.58 806.06ZM1384.05 787.58C1382.4 790.22 1381.41 793.124 1381.41 796.82C1381.41 805.73 1388.34 812.66 1397.58 812.66C1406.82 812.66 1413.75 805.73 1413.75 796.82C1413.75 788.24 1407.15 781.31 1398.9 781.31C1398.04 781.31 1397.32 781.442 1396.79 781.508L1395.93 781.64H1395.6L1405.83 765.8H1397.91L1384.05 787.58ZM1449.74 788.9C1449.74 800.45 1444.2 806.06 1438.19 806.06C1432.19 806.06 1426.64 800.45 1426.64 788.9C1426.64 777.35 1432.19 771.74 1438.19 771.74C1444.2 771.74 1449.74 777.35 1449.74 788.9ZM1438.19 765.14C1428.29 765.14 1419.71 773.786 1419.71 788.9C1419.71 804.014 1428.29 812.66 1438.19 812.66C1448.09 812.66 1456.67 804.014 1456.67 788.9C1456.67 773.786 1448.09 765.14 1438.19 765.14ZM1504.56 812H1510.5V765.8H1503.9V782.96H1503.57C1502.44 781.706 1499.74 778.34 1493.34 778.34C1484.69 778.34 1478.16 784.94 1478.16 795.5C1478.16 806.06 1484.69 812.66 1493.34 812.66C1499.67 812.66 1502.58 809.36 1503.57 808.04H1503.9L1504.56 812ZM1494.33 806.72C1489.05 806.72 1484.76 802.364 1484.76 795.5C1484.76 788.636 1489.05 784.28 1494.33 784.28C1499.61 784.28 1503.9 788.636 1503.9 795.5C1503.9 802.364 1499.61 806.72 1494.33 806.72ZM1519.38 825.2H1525.98V808.04H1526.31C1527.3 809.36 1530.2 812.66 1536.54 812.66C1545.19 812.66 1551.72 806.06 1551.72 795.5C1551.72 784.94 1545.19 778.34 1536.54 778.34C1530.14 778.34 1527.43 781.706 1526.31 782.96H1525.98L1525.32 779H1519.38V825.2ZM1535.55 806.72C1530.27 806.72 1525.98 802.364 1525.98 795.5C1525.98 788.636 1530.27 784.28 1535.55 784.28C1540.83 784.28 1545.12 788.636 1545.12 795.5C1545.12 802.364 1540.83 806.72 1535.55 806.72ZM1558.63 812H1565.23V779H1558.63V812ZM1558.3 772.73H1565.56V765.8H1558.3V772.73Z" fill="#6E9FFF"/>
<path d="M237 898H244.25L246.9 890.5H261.6L264.25 898H271.5L259 863H249.5L237 898ZM249 884.5L253.75 870.5H254.75L259.5 884.5H249ZM278.771 886.5H295.771V880.75H278.771V886.5ZM304.756 887C304.756 893.55 310.006 898.5 319.006 898.5C328.006 898.5 332.506 894 332.506 888C332.506 882.2 329.306 879.25 322.256 878L316.756 877C313.006 876.35 312.006 875 312.006 873C312.006 870.45 313.956 868.5 318.506 868.5C323.056 868.5 325.506 871 325.506 874H332.006C332.006 867.45 327.506 862.5 318.506 862.5C310.256 862.5 305.506 867.2 305.506 873C305.506 878 308.206 881.5 314.256 882.5L320.256 883.5C324.756 884.3 326.006 885.95 326.006 888C326.006 890.55 324.006 892.5 319.006 892.5C314.256 892.5 311.256 890.05 311.256 887H304.756ZM343.494 898H366.994V892H349.994V883.5H365.994V877.5H349.994V869H366.994V863H343.494V898ZM378.475 898H384.975V886H386.975L398.225 898H406.475L395.225 886C400.725 885.75 405.475 881.5 405.475 874.75C405.475 867.75 400.675 863 394.475 863H378.475V898ZM384.975 880V869.25H394.225C396.725 869.25 398.975 871.5 398.975 874.75C398.975 877.75 396.725 880 394.225 880H384.975ZM416.727 898H423.227V863H416.727V898ZM435.74 898H459.24V892H442.24V883.5H458.24V877.5H442.24V869H459.24V863H435.74V898ZM468.721 887C468.721 893.55 473.971 898.5 482.971 898.5C491.971 898.5 496.471 894 496.471 888C496.471 882.2 493.271 879.25 486.221 878L480.721 877C476.971 876.35 475.971 875 475.971 873C475.971 870.45 477.921 868.5 482.471 868.5C487.021 868.5 489.471 871 489.471 874H495.971C495.971 867.45 491.471 862.5 482.471 862.5C474.221 862.5 469.471 867.2 469.471 873C469.471 878 472.171 881.5 478.221 882.5L484.221 883.5C488.721 884.3 489.971 885.95 489.971 888C489.971 890.55 487.971 892.5 482.971 892.5C478.221 892.5 475.221 890.05 475.221 887H468.721Z" fill="white"/>
<path d="M248.2 299H273.8V265.4H300.2C321.8 265.4 337 250.2 337 226.2C337 202.2 321.8 187 300.2 187H248.2V299ZM273.8 240.6V211.8H298.6C305.8 211.8 311.4 217.24 311.4 226.2C311.4 235.16 305.8 240.6 298.6 240.6H273.8ZM397.019 299H417.819V246.84C417.819 228.6 404.859 215.8 381.019 215.8C358.619 215.8 346.779 227.64 345.019 242.2H368.219C368.699 240.92 369.659 239.8 370.779 238.68C372.699 236.92 375.739 235 381.019 235C389.179 235 393.819 239.8 393.819 247V248.6H375.419C353.019 248.6 341.819 259.8 341.819 275C341.819 289.4 353.019 300.6 372.219 300.6C379.739 300.6 385.499 298.68 389.179 296.28C391.259 295 393.179 293.56 394.619 291.8H395.419L397.019 299ZM393.819 266.2C393.819 275.8 387.419 282.2 377.019 282.2C369.819 282.2 365.819 278.36 365.819 273.4C365.819 268.44 369.659 264.6 378.619 264.6H393.819V266.2ZM436.288 331H460.288V292.6H461.088C462.528 294.04 464.128 295.48 466.048 296.6C469.408 298.68 474.688 300.6 481.888 300.6C503.488 300.6 521.088 283 521.088 258.2C521.088 233.4 503.488 215.8 481.888 215.8C473.727 215.8 468.288 218.2 464.608 220.6C462.528 222.04 460.768 223.64 459.488 225.4H458.688L457.088 217.4H436.288V331ZM478.688 278.2C468.288 278.2 460.288 270.36 460.288 258.2C460.288 246.04 468.288 238.2 478.688 238.2C489.088 238.2 497.088 246.04 497.088 258.2C497.088 270.36 489.088 278.2 478.688 278.2ZM589.888 274.2C588.928 275.64 587.648 276.76 586.208 277.88C583.648 279.64 579.808 281.4 574.688 281.4C564.288 281.4 557.088 274.2 556.288 264.6H615.488L615.808 262.68C615.968 261.4 616.288 259.64 616.288 256.6C616.288 233.4 598.688 215.8 574.688 215.8C549.888 215.8 532.288 233.4 532.288 258.2C532.288 283 549.888 300.6 574.688 300.6C589.888 300.6 599.488 294.04 605.728 287.48C609.248 283.64 611.968 279.16 613.888 274.2H589.888ZM556.288 250.2C558.688 239.48 564.928 234.2 574.688 234.2C584.448 234.2 590.688 239.48 593.088 250.2H556.288ZM631.444 299H655.444V254.2C655.444 244.6 660.244 239.8 669.844 239.8H684.244V217.4H669.044C663.764 217.4 660.404 218.84 658.004 220.6C656.724 221.56 655.604 222.68 654.644 223.8H653.844L652.244 217.4H631.444V299ZM736.169 299H761.769V265.4H788.169C809.769 265.4 824.969 250.2 824.969 226.2C824.969 202.2 809.769 187 788.169 187H736.169V299ZM761.769 240.6V211.8H786.569C793.769 211.8 799.369 217.24 799.369 226.2C799.369 235.16 793.769 240.6 786.569 240.6H761.769ZM840.194 299H864.194V254.2C864.194 244.6 868.994 239.8 878.594 239.8H892.994V217.4H877.794C872.514 217.4 869.154 218.84 866.754 220.6C865.474 221.56 864.354 222.68 863.394 223.8H862.594L860.994 217.4H840.194V299ZM905.038 299H929.038V217.4H905.038V299ZM905.038 205.56H929.038V184.76H905.038V205.56ZM948.163 299H972.163V254.2C972.163 245.24 978.403 239 987.363 239C996.323 239 1002.56 245.24 1002.56 254.2V299H1026.56V249.4C1026.56 229.4 1012.96 215.8 993.763 215.8C986.083 215.8 980.483 217.88 976.803 220.28C974.723 221.56 972.803 223 971.363 224.6H970.563L968.963 217.4H948.163V299ZM1049.91 276.6C1049.91 291.16 1057.75 299 1073.11 299H1092.31V276.6H1079.51C1075.83 276.6 1073.91 274.68 1073.91 271V239.8H1092.31V217.4H1073.91V191.8H1049.91V217.4H1037.11V239.8H1049.91V276.6ZM241.8 450.2C241.8 471.8 258.76 488.6 288.2 488.6C317.8 488.6 333 473.4 333 454.2C333 435 323.4 425.4 301 421.4L283.4 418.2C273 416.28 269.8 413.4 269.8 407.8C269.8 401.4 275.24 395.8 286.6 395.8C299.24 395.8 306.6 403 306.6 411.8H332.2C332.2 389.4 316.2 373.4 286.6 373.4C259.24 373.4 244.2 388.6 244.2 407.8C244.2 425.56 253.8 435.32 273.8 439L291.4 442.2C303.56 444.6 307.4 448.6 307.4 454.2C307.4 460.6 301.8 466.2 288.2 466.2C274.6 466.2 267.4 459.16 267.4 450.2H241.8ZM348.944 487H372.944V405.4H348.944V487ZM348.944 393.56H372.944V372.76H348.944V393.56ZM388.069 487H457.669V464.6H420.869L456.869 427V405.4H388.869V427.8H424.069L388.069 465.4V487ZM524.888 462.2C523.928 463.64 522.648 464.76 521.208 465.88C518.648 467.64 514.808 469.4 509.688 469.4C499.288 469.4 492.088 462.2 491.288 452.6H550.488L550.808 450.68C550.968 449.4 551.288 447.64 551.288 444.6C551.288 421.4 533.688 403.8 509.688 403.8C484.888 403.8 467.288 421.4 467.288 446.2C467.288 471 484.888 488.6 509.688 488.6C524.888 488.6 534.488 482.04 540.728 475.48C544.248 471.64 546.968 467.16 548.888 462.2H524.888ZM491.288 438.2C493.688 427.48 499.928 422.2 509.688 422.2C519.448 422.2 525.688 427.48 528.088 438.2H491.288ZM560.844 461.4C561.164 466.52 562.764 471 565.484 475C570.284 481.88 579.084 488.6 597.644 488.6C621.644 488.6 633.644 476.6 633.644 463C633.644 448.44 625.004 439.8 606.444 437.4L594.444 435.8C587.244 434.68 584.844 432.6 584.844 429.4C584.844 425.4 588.684 422.2 596.844 422.2C602.444 422.2 605.644 424.12 607.404 425.88C608.524 427 609.164 428.12 609.644 429.4H632.844C632.204 424.6 630.444 420.28 627.724 416.6C623.084 410.2 613.964 403.8 596.844 403.8C573.644 403.8 561.644 415.8 561.644 429.4C561.644 443 569.484 450.84 588.844 453.4L600.844 455C608.044 456.12 610.444 458.04 610.444 463C610.444 467 606.604 471 597.644 471C590.764 471 587.564 468.6 585.804 466.2C584.684 464.76 584.204 463.16 584.044 461.4H560.844Z" fill="white"/>
</g>
<defs>
<filter id="filter0_f_121_16" x="316.672" y="32.1758" width="3229.2" height="2877.07" filterUnits="userSpaceOnUse" color-interpolation-filters="sRGB">
<feFlood flood-opacity="0" result="BackgroundImageFix"/>
<feBlend mode="normal" in="SourceGraphic" in2="BackgroundImageFix" result="shape"/>
<feGaussianBlur stdDeviation="336.229" result="effect1_foregroundBlur_121_16"/>
</filter>
<filter id="filter1_f_121_16" x="-1010.88" y="-2161.69" width="3188.6" height="2963.75" filterUnits="userSpaceOnUse" color-interpolation-filters="sRGB">
<feFlood flood-opacity="0" result="BackgroundImageFix"/>
<feBlend mode="normal" in="SourceGraphic" in2="BackgroundImageFix" result="shape"/>
<feGaussianBlur stdDeviation="352.957" result="effect1_foregroundBlur_121_16"/>
</filter>
<filter id="filter2_f_121_16" x="-2101.17" y="-122.81" width="3377.41" height="2830.78" filterUnits="userSpaceOnUse" color-interpolation-filters="sRGB">
<feFlood flood-opacity="0" result="BackgroundImageFix"/>
<feBlend mode="normal" in="SourceGraphic" in2="BackgroundImageFix" result="shape"/>
<feGaussianBlur stdDeviation="350.784" result="effect1_foregroundBlur_121_16"/>
</filter>
<filter id="filter3_bd_121_16" x="976.691" y="66.4732" width="825.538" height="992.108" filterUnits="userSpaceOnUse" color-interpolation-filters="sRGB">
<feFlood flood-opacity="0" result="BackgroundImageFix"/>
<feGaussianBlur in="BackgroundImageFix" stdDeviation="15.0971"/>
<feComposite in2="SourceAlpha" operator="in" result="effect1_backgroundBlur_121_16"/>
<feColorMatrix in="SourceAlpha" type="matrix" values="0 0 0 0 0 0 0 0 0 0 0 0 0 0 0 0 0 0 127 0" result="hardAlpha"/>
<feOffset dx="39.5269" dy="39.5269"/>
<feGaussianBlur stdDeviation="39.5269"/>
<feComposite in2="hardAlpha" operator="out"/>
<feColorMatrix type="matrix" values="0 0 0 0 0 0 0 0 0 0 0 0 0 0 0 0 0 0 0.08 0"/>
<feBlend mode="normal" in2="effect1_backgroundBlur_121_16" result="effect2_dropShadow_121_16"/>
<feBlend mode="normal" in="SourceGraphic" in2="effect2_dropShadow_121_16" result="shape"/>
</filter>
<linearGradient id="paint0_linear_121_16" x1="1016.22" y1="106" x2="1748.79" y2="878.196" gradientUnits="userSpaceOnUse">
<stop stop-color="#267594"/>
<stop offset="1" stop-color="#383862"/>
</linearGradient>
<linearGradient id="paint1_linear_121_16" x1="1502.89" y1="306.16" x2="1583.5" y2="206.053" gradientUnits="userSpaceOnUse">
<stop stop-color="#2581A6"/>
<stop offset="1" stop-color="#126180"/>
</linearGradient>
<linearGradient id="paint2_linear_121_16" x1="1502.89" y1="306.16" x2="1583.5" y2="206.053" gradientUnits="userSpaceOnUse">
<stop stop-color="#2581A6"/>
<stop offset="1" stop-color="#126180"/>
</linearGradient>
<clipPath id="clip0_121_16">
<rect width="1920" height="1080" fill="white"/>
</clipPath>
</defs>
</svg>
