<svg width="1920" height="1210" viewBox="0 0 1920 1210" fill="none" xmlns="http://www.w3.org/2000/svg">
<g clip-path="url(#clip0_1_14)">
<rect width="1920" height="1210" fill="url(#paint0_linear_1_14)"/>
<g opacity="0.8">
<g style="mix-blend-mode:overlay" filter="url(#filter0_f_1_14)">
<path d="M396.385 1449.77C645.678 1449.77 847.77 1247.68 847.77 998.385C847.77 749.092 645.678 547 396.385 547C147.092 547 -55 749.092 -55 998.385C-55 1247.68 147.092 1449.77 396.385 1449.77Z" fill="url(#paint1_radial_1_14)" style="mix-blend-mode:overlay"/>
</g>
<g style="mix-blend-mode:multiply" filter="url(#filter1_f_1_14)">
<path d="M396.385 1449.77C645.678 1449.77 847.77 1247.68 847.77 998.385C847.77 749.092 645.678 547 396.385 547C147.092 547 -55 749.092 -55 998.385C-55 1247.68 147.092 1449.77 396.385 1449.77Z" fill="url(#paint2_radial_1_14)" style="mix-blend-mode:multiply"/>
</g>
<g style="mix-blend-mode:saturation" filter="url(#filter2_f_1_14)">
<path d="M396.385 1418.08C628.178 1418.08 816.083 1230.18 816.083 998.385C816.083 766.592 628.178 578.686 396.385 578.686C164.592 578.686 -23.3139 766.592 -23.3139 998.385C-23.3139 1230.18 164.592 1418.08 396.385 1418.08Z" fill="url(#paint3_radial_1_14)" style="mix-blend-mode:saturation"/>
</g>
<path style="mix-blend-mode:screen" d="M209.304 655.53C236.247 682.472 220.878 741.481 175.056 787.302C129.235 833.124 70.1317 848.492 43.2839 821.55C16.436 794.607 31.7099 735.599 77.5314 689.777C123.353 643.956 182.456 628.587 209.304 655.53Z" fill="url(#paint4_radial_1_14)"/>
<path style="mix-blend-mode:color-dodge" d="M235.393 1356.99C211.771 1386.87 151.339 1378.43 100.49 1338.2C49.6401 1297.98 27.5357 1241.15 51.158 1211.27C74.7803 1181.39 135.212 1189.83 186.061 1230.05C236.911 1270.28 259.015 1327.1 235.393 1356.99Z" fill="url(#paint5_radial_1_14)"/>
<path style="mix-blend-mode:color-dodge" opacity="0.5" d="M766.105 1264.12C827.903 1185.67 840.331 1092.41 793.864 1055.8C747.397 1019.2 659.631 1053.11 597.834 1131.56C536.036 1210.01 523.608 1303.27 570.075 1339.88C616.542 1376.49 704.308 1342.57 766.105 1264.12Z" fill="url(#paint6_radial_1_14)"/>
</g>
<path style="mix-blend-mode:overlay" d="M307.008 254.017C397.588 254.017 471.017 180.588 471.017 90.0083C471.017 -0.570961 397.588 -74 307.008 -74C216.429 -74 143 -0.570961 143 90.0083C143 180.588 216.429 254.017 307.008 254.017Z" fill="url(#paint7_radial_1_14)"/>
<path style="mix-blend-mode:multiply" d="M307.008 254.017C397.588 254.017 471.017 180.588 471.017 90.0083C471.017 -0.570961 397.588 -74 307.008 -74C216.429 -74 143 -0.570961 143 90.0083C143 180.588 216.429 254.017 307.008 254.017Z" fill="url(#paint8_radial_1_14)"/>
<path style="mix-blend-mode:saturation" d="M307.008 242.504C391.229 242.504 459.504 174.229 459.504 90.0084C459.504 5.78751 391.229 -62.487 307.008 -62.487C222.787 -62.487 154.513 5.78751 154.513 90.0084C154.513 174.229 222.787 242.504 307.008 242.504Z" fill="url(#paint9_radial_1_14)"/>
<path style="mix-blend-mode:screen" d="M239.033 -34.5663C248.823 -24.7768 243.239 -3.33649 226.59 13.3125C209.941 29.9615 188.466 35.5457 178.711 25.7562C168.956 15.9667 174.506 -5.47364 191.155 -22.1227C207.804 -38.7717 229.278 -44.3558 239.033 -34.5663Z" fill="url(#paint10_radial_1_14)"/>
<path style="mix-blend-mode:color-dodge" d="M248.513 220.305C239.93 231.163 217.972 228.095 199.496 213.48C181.02 198.865 172.989 178.217 181.572 167.359C190.155 156.501 212.112 159.569 230.588 174.184C249.064 188.799 257.096 209.447 248.513 220.305Z" fill="url(#paint11_radial_1_14)"/>
<path style="mix-blend-mode:color-dodge" d="M338.271 235.703C340.82 222.1 318.312 206.469 287.999 200.79C257.686 195.112 231.046 201.536 228.498 215.14C225.95 228.743 248.458 244.374 278.771 250.053C309.084 255.731 335.723 249.307 338.271 235.703Z" fill="url(#paint12_radial_1_14)"/>
<path style="mix-blend-mode:color-dodge" opacity="0.5" d="M441.344 186.562C463.798 158.059 468.314 124.17 451.43 110.87C434.547 97.5698 402.658 109.894 380.204 138.397C357.75 166.9 353.234 200.789 370.118 214.089C387.001 227.389 418.89 215.065 441.344 186.562Z" fill="url(#paint13_radial_1_14)"/>
<path d="M550.851 304.497C555.833 307.091 560.666 309.915 565.332 313.013C568.916 315.385 572.394 317.859 575.76 320.506C588.699 330.576 600.133 342.599 609.543 356.202C618.416 369.021 625.535 383.25 630.482 398.567C631.839 402.799 633.042 407.117 634.076 411.517C634.945 415.228 635.689 418.999 636.284 422.843C636.324 422.98 636.343 423.127 636.352 423.253C636.537 423.985 636.644 424.584 636.659 425.046C635.887 420.65 618.276 419.213 597.158 421.845C575.884 424.474 559.102 430.247 559.636 434.72C559.661 434.851 559.67 434.977 559.747 435.109C559.553 434.656 559.435 434.087 559.334 433.367C555.315 411.24 542.887 392.53 525.849 380.102C507.324 366.596 483.731 361.146 461.147 365.165C433.509 370.078 411.176 388.325 399.708 412.301C393.499 425.249 390.486 439.87 391.491 454.958C391.543 455.363 391.517 455.74 391.444 456.101C391.462 455.95 391.453 455.824 391.439 455.661C390.884 451.199 373.205 449.703 351.946 452.338C330.739 454.974 314.005 460.711 314.445 465.151C314.415 465.035 314.401 464.925 314.398 464.783C314.108 461.626 313.934 458.491 313.818 455.341C313.686 451.729 313.691 448.13 313.806 444.568C313.95 440.367 314.251 436.221 314.693 432.071C316.341 417.185 320.008 402.756 325.427 389.148C331.188 374.709 338.952 361.179 348.424 348.998C351.237 345.356 354.216 341.843 357.314 338.441C362.477 332.841 368.018 327.567 373.916 322.732C383.686 314.695 394.444 307.757 405.998 302.168C421.337 294.733 438.111 289.642 455.932 287.445C470.901 285.573 485.642 285.817 499.86 287.918C517.896 290.609 535.091 296.274 550.835 304.492L550.851 304.497Z" fill="url(#paint14_linear_1_14)"/>
<path d="M391.424 455.655C391.437 455.818 391.431 455.939 391.429 456.096C391.34 456.452 391.199 456.807 391.006 457.108C390.979 457.187 390.93 457.275 390.856 457.337C390.776 457.468 390.691 457.561 390.579 457.68C390.541 457.737 390.515 457.763 390.462 457.815C390.329 457.944 390.207 458.043 390.074 458.172C389.962 458.291 389.846 458.374 389.703 458.482C384.993 462.324 370.888 466.412 353.923 468.52C337.494 470.552 323.18 470.139 317.303 467.743C316.295 467.358 315.546 466.886 315.054 466.381C314.966 466.28 314.868 466.158 314.791 466.026C314.718 465.931 314.652 465.82 314.622 465.704C314.56 465.577 314.515 465.456 314.48 465.303C314.47 465.282 314.471 465.23 314.45 465.188C314.456 465.172 314.44 465.166 314.445 465.151C314.01 460.696 330.739 454.974 351.93 452.333C373.173 449.693 390.858 451.172 391.424 455.655Z" fill="url(#paint15_linear_1_14)"/>
<path d="M636.665 425.031C636.707 425.414 636.671 425.718 636.589 426.006C636.529 426.178 636.453 426.345 636.325 426.511C633.82 430.734 618.303 435.647 599.172 438.022C579.643 440.432 563.144 439.383 560.158 435.744C560.008 435.569 559.88 435.384 559.767 435.152C559.757 435.131 559.747 435.109 559.758 435.078C559.696 434.951 559.666 434.836 559.647 434.688C559.107 430.232 575.905 424.464 597.169 421.813C618.287 419.182 635.893 420.634 636.67 425.015L636.665 425.031Z" fill="url(#paint16_linear_1_14)"/>
<path d="M1367.17 57.8506C1368.16 -15.4819 1455.79 -60.4161 1513.3 -12.696L1500.47 -23.4353C1465.55 -53.5861 1409.75 -47.5649 1379.01 -13.6846C1350.34 16.3315 1345.8 66.0287 1370.68 99.6844C1377.39 108.941 1388.64 118.152 1397.51 125.387C1377.84 108.806 1366.63 83.5081 1367.13 57.8057L1367.17 57.8506Z" fill="url(#paint17_linear_1_14)"/>
<path d="M1681.93 69.6234C1689.67 -9.6854 1655.15 -84.4109 1591.79 -132.221C1686.79 -53.0918 1694.84 91.1918 1617.66 185.464C1539.76 284.364 1390.13 305.438 1293.41 223.523C1436.03 356.258 1663.43 259.92 1681.93 69.6683V69.6234Z" fill="url(#paint18_linear_1_14)"/>
<path d="M1481.89 -180.795C1605.69 -163.405 1688.45 -47.9244 1666.81 77.1274C1645.16 202.224 1527.3 289.486 1403.45 272.097C1279.6 254.752 1196.79 139.316 1218.44 14.2195C1240.13 -110.832 1358.04 -198.184 1481.89 -180.795ZM1427.43 133.565C1475.45 140.305 1521.27 106.424 1529.64 57.8956C1538.05 9.36665 1505.92 -35.5226 1457.86 -42.2627C1409.84 -49.0028 1363.98 -15.0775 1355.56 33.4514C1347.15 81.9803 1379.37 126.825 1427.39 133.565" fill="url(#paint19_linear_1_14)"/>
<g filter="url(#filter3_b_1_14)">
<rect x="211" y="202" width="1432" height="805" rx="8" fill="white" fill-opacity="0.1"/>
<rect x="211" y="202" width="1432" height="805" rx="8" stroke="white" stroke-width="4"/>
</g>
<g filter="url(#filter4_b_1_14)">
<rect x="250" y="233" width="1354" height="742" rx="8" fill="white" fill-opacity="0.5"/>
<rect x="250" y="233" width="1354" height="742" rx="8" stroke="white" stroke-width="4"/>
</g>
<path d="M407.38 591V481.909H481.848V503.322H433.748V525.695H477.107V547.161H433.748V591H407.38ZM495.125 591V481.909H540.188C548.356 481.909 555.405 483.383 561.335 486.33C567.301 489.242 571.9 493.433 575.132 498.901C578.363 504.335 579.979 510.78 579.979 518.237C579.979 525.801 578.328 532.229 575.025 537.52C571.723 542.776 567.035 546.788 560.963 549.558C554.89 552.293 547.699 553.66 539.389 553.66H510.892V532.886H534.489C538.466 532.886 541.786 532.371 544.45 531.341C547.149 530.276 549.191 528.678 550.576 526.547C551.96 524.381 552.653 521.611 552.653 518.237C552.653 514.864 551.96 512.076 550.576 509.874C549.191 507.637 547.149 505.968 544.45 504.867C541.751 503.731 538.431 503.163 534.489 503.163H521.492V591H495.125ZM556.541 541.142L583.708 591H554.943L528.31 541.142H556.541ZM594.441 591V481.909H670.506V503.322H620.808V525.695H666.618V547.161H620.808V569.587H670.506V591H594.441ZM687.019 591V481.909H763.084V503.322H713.386V525.695H759.196V547.161H713.386V569.587H763.084V591H687.019ZM853.106 592.491C844.796 592.491 837.427 591.071 831 588.23C824.608 585.354 819.565 581.394 815.872 576.352C812.179 571.309 810.297 565.503 810.226 558.933H836.753C836.859 561.312 837.623 563.425 839.043 565.272C840.464 567.083 842.399 568.504 844.849 569.533C847.3 570.563 850.087 571.078 853.212 571.078C856.337 571.078 859.089 570.528 861.469 569.427C863.883 568.29 865.766 566.746 867.115 564.793C868.464 562.804 869.121 560.531 869.086 557.974C869.121 555.418 868.393 553.145 866.902 551.156C865.41 549.168 863.297 547.623 860.563 546.522C857.864 545.421 854.668 544.871 850.975 544.871H840.375V526.121H850.975C854.207 526.121 857.047 525.588 859.498 524.523C861.984 523.457 863.919 521.966 865.304 520.048C866.689 518.095 867.364 515.858 867.328 513.337C867.364 510.886 866.778 508.738 865.57 506.891C864.398 505.009 862.747 503.553 860.616 502.523C858.521 501.494 856.089 500.979 853.319 500.979C850.407 500.979 847.761 501.494 845.382 502.523C843.038 503.553 841.174 505.009 839.789 506.891C838.404 508.773 837.676 510.957 837.605 513.443H812.41C812.481 506.945 814.292 501.227 817.843 496.291C821.394 491.32 826.224 487.431 832.332 484.626C838.475 481.82 845.471 480.418 853.319 480.418C861.131 480.418 868.003 481.785 873.933 484.519C879.864 487.254 884.48 490.982 887.783 495.705C891.085 500.393 892.736 505.702 892.736 511.632C892.772 517.776 890.766 522.836 886.717 526.813C882.704 530.79 877.538 533.241 871.217 534.164V535.016C879.668 536.011 886.043 538.745 890.339 543.219C894.672 547.694 896.82 553.287 896.785 559.999C896.785 566.32 894.92 571.93 891.192 576.831C887.498 581.696 882.349 585.531 875.744 588.337C869.175 591.107 861.628 592.491 853.106 592.491ZM952.196 591H911.873V481.909H952.142C963.258 481.909 972.828 484.093 980.853 488.461C988.915 492.793 995.129 499.043 999.497 507.211C1003.86 515.343 1006.05 525.073 1006.05 536.401C1006.05 547.765 1003.86 557.531 999.497 565.698C995.165 573.866 988.968 580.134 980.907 584.501C972.846 588.834 963.275 591 952.196 591ZM938.24 568.521H951.184C957.292 568.521 962.459 567.491 966.684 565.432C970.946 563.337 974.16 559.945 976.326 555.258C978.527 550.535 979.628 544.249 979.628 536.401C979.628 528.553 978.527 522.303 976.326 517.651C974.124 512.964 970.875 509.59 966.578 507.531C962.316 505.435 957.061 504.388 950.811 504.388H938.24V568.521ZM1080.04 481.909V591H1053.67V481.909H1080.04ZM1093.02 503.322V481.909H1185.23V503.322H1152.15V591H1126.15V503.322H1093.02ZM1198.1 591V481.909H1274.17V503.322H1224.47V525.695H1270.28V547.161H1224.47V569.587H1274.17V591H1198.1ZM1290.68 481.909H1323.33L1351.03 549.452H1352.31L1380.01 481.909H1412.66V591H1386.99V523.99H1386.08L1359.88 590.308H1343.47L1317.26 523.617H1316.36V591H1290.68V481.909ZM1488.08 514.615C1487.72 510.709 1486.14 507.673 1483.33 505.506C1480.56 503.305 1476.61 502.204 1471.46 502.204C1468.05 502.204 1465.21 502.648 1462.93 503.536C1460.66 504.423 1458.96 505.648 1457.82 507.211C1456.68 508.738 1456.1 510.496 1456.06 512.484C1455.99 514.118 1456.31 515.556 1457.02 516.799C1457.77 518.042 1458.83 519.143 1460.22 520.102C1461.64 521.025 1463.34 521.842 1465.33 522.552C1467.32 523.262 1469.56 523.884 1472.04 524.416L1481.42 526.547C1486.81 527.719 1491.57 529.281 1495.69 531.234C1499.85 533.188 1503.33 535.513 1506.13 538.212C1508.97 540.911 1511.12 544.018 1512.58 547.534C1514.03 551.05 1514.78 554.991 1514.82 559.359C1514.78 566.249 1513.04 572.161 1509.6 577.097C1506.15 582.033 1501.2 585.815 1494.73 588.443C1488.31 591.071 1480.55 592.385 1471.46 592.385C1462.33 592.385 1454.38 591.018 1447.59 588.283C1440.81 585.549 1435.54 581.394 1431.77 575.819C1428.01 570.244 1426.07 563.195 1425.97 554.672H1451.21C1451.43 558.188 1452.37 561.117 1454.04 563.461C1455.71 565.805 1458 567.58 1460.91 568.788C1463.86 569.995 1467.27 570.599 1471.14 570.599C1474.69 570.599 1477.71 570.119 1480.19 569.161C1482.71 568.202 1484.65 566.87 1486 565.165C1487.35 563.461 1488.04 561.508 1488.08 559.306C1488.04 557.246 1487.4 555.489 1486.16 554.033C1484.92 552.541 1483 551.263 1480.41 550.197C1477.85 549.097 1474.58 548.085 1470.6 547.161L1459.2 544.498C1449.76 542.332 1442.32 538.834 1436.89 534.004C1431.45 529.139 1428.75 522.57 1428.79 514.295C1428.75 507.548 1430.56 501.636 1434.22 496.558C1437.88 491.479 1442.94 487.52 1449.4 484.679C1455.87 481.838 1463.24 480.418 1471.51 480.418C1479.96 480.418 1487.29 481.856 1493.51 484.732C1499.76 487.573 1504.61 491.568 1508.05 496.717C1511.5 501.866 1513.25 507.832 1513.32 514.615H1488.08Z" fill="url(#paint20_linear_1_14)"/>
<path d="M646.413 691V654.636H669.211V659.359H651.9V670.439H668.022V675.144H651.9V686.277H669.424V691H646.413ZM684.051 691.604C682.322 691.604 680.76 691.284 679.363 690.645C677.966 689.994 676.86 689.053 676.043 687.822C675.238 686.591 674.835 685.081 674.835 683.294C674.835 681.755 675.131 680.489 675.723 679.494C676.315 678.5 677.114 677.713 678.12 677.133C679.126 676.553 680.251 676.115 681.494 675.819C682.737 675.523 684.003 675.298 685.294 675.144C686.927 674.955 688.253 674.801 689.271 674.683C690.289 674.552 691.029 674.345 691.49 674.061C691.952 673.777 692.183 673.315 692.183 672.676V672.552C692.183 671.001 691.745 669.8 690.869 668.947C690.005 668.095 688.714 667.669 686.998 667.669C685.211 667.669 683.802 668.066 682.772 668.859C681.754 669.64 681.05 670.51 680.659 671.469L675.67 670.332C676.262 668.675 677.126 667.338 678.262 666.32C679.41 665.29 680.73 664.544 682.222 664.082C683.713 663.609 685.282 663.372 686.927 663.372C688.016 663.372 689.17 663.502 690.389 663.763C691.62 664.011 692.769 664.473 693.834 665.148C694.911 665.822 695.793 666.787 696.48 668.042C697.166 669.285 697.509 670.901 697.509 672.889V691H692.325V687.271H692.112C691.768 687.958 691.253 688.633 690.567 689.295C689.88 689.958 688.999 690.509 687.921 690.947C686.844 691.385 685.554 691.604 684.051 691.604ZM685.205 687.342C686.673 687.342 687.927 687.052 688.969 686.472C690.022 685.892 690.821 685.135 691.366 684.2C691.922 683.253 692.2 682.241 692.2 681.163V677.648C692.011 677.837 691.644 678.015 691.1 678.18C690.567 678.334 689.957 678.47 689.271 678.589C688.584 678.695 687.915 678.796 687.264 678.891C686.613 678.973 686.069 679.045 685.631 679.104C684.601 679.234 683.66 679.453 682.808 679.761C681.967 680.068 681.293 680.512 680.784 681.092C680.286 681.661 680.038 682.418 680.038 683.365C680.038 684.679 680.523 685.673 681.494 686.348C682.464 687.011 683.701 687.342 685.205 687.342ZM725.017 670.386L720.206 671.238C720.004 670.622 719.685 670.036 719.247 669.48C718.821 668.924 718.241 668.468 717.507 668.113C716.773 667.758 715.855 667.58 714.755 667.58C713.251 667.58 711.997 667.918 710.99 668.592C709.984 669.255 709.481 670.113 709.481 671.167C709.481 672.078 709.819 672.812 710.493 673.369C711.168 673.925 712.257 674.381 713.76 674.736L718.093 675.73C720.602 676.31 722.472 677.204 723.703 678.411C724.935 679.619 725.55 681.187 725.55 683.116C725.55 684.75 725.077 686.206 724.13 687.484C723.194 688.751 721.886 689.745 720.206 690.467C718.537 691.189 716.601 691.55 714.4 691.55C711.346 691.55 708.854 690.899 706.924 689.597C704.995 688.283 703.811 686.419 703.373 684.004L708.505 683.223C708.824 684.561 709.481 685.573 710.475 686.259C711.47 686.934 712.766 687.271 714.364 687.271C716.104 687.271 717.495 686.91 718.537 686.188C719.578 685.454 720.099 684.561 720.099 683.507C720.099 682.655 719.779 681.939 719.14 681.359C718.513 680.779 717.548 680.341 716.246 680.045L711.63 679.033C709.085 678.453 707.203 677.529 705.983 676.263C704.776 674.996 704.172 673.392 704.172 671.451C704.172 669.841 704.622 668.433 705.522 667.225C706.421 666.018 707.664 665.077 709.25 664.402C710.837 663.715 712.654 663.372 714.701 663.372C717.649 663.372 719.969 664.011 721.662 665.29C723.354 666.556 724.473 668.255 725.017 670.386ZM734.743 701.227C733.95 701.227 733.228 701.162 732.577 701.032C731.926 700.914 731.441 700.783 731.121 700.641L732.399 696.291C733.37 696.552 734.234 696.664 734.992 696.629C735.749 696.593 736.418 696.309 736.998 695.776C737.59 695.244 738.111 694.374 738.561 693.166L739.218 691.355L729.239 663.727H734.921L741.828 684.892H742.112L749.019 663.727H754.718L743.479 694.64C742.958 696.06 742.295 697.262 741.49 698.244C740.685 699.239 739.727 699.984 738.614 700.482C737.501 700.979 736.211 701.227 734.743 701.227ZM785.671 663.727V667.989H770.774V663.727H785.671ZM774.769 657.193H780.078V682.992C780.078 684.022 780.232 684.797 780.539 685.318C780.847 685.827 781.244 686.176 781.729 686.366C782.226 686.543 782.765 686.632 783.345 686.632C783.771 686.632 784.144 686.603 784.463 686.543C784.783 686.484 785.032 686.437 785.209 686.401L786.168 690.787C785.86 690.905 785.422 691.024 784.854 691.142C784.286 691.272 783.576 691.343 782.723 691.355C781.327 691.379 780.025 691.13 778.817 690.609C777.61 690.089 776.633 689.284 775.887 688.195C775.142 687.106 774.769 685.738 774.769 684.093V657.193ZM802.738 691.55C800.182 691.55 797.95 690.964 796.045 689.793C794.139 688.621 792.659 686.981 791.606 684.874C790.552 682.767 790.025 680.305 790.025 677.488C790.025 674.659 790.552 672.185 791.606 670.066C792.659 667.947 794.139 666.302 796.045 665.13C797.95 663.958 800.182 663.372 802.738 663.372C805.295 663.372 807.527 663.958 809.432 665.13C811.338 666.302 812.818 667.947 813.871 670.066C814.925 672.185 815.452 674.659 815.452 677.488C815.452 680.305 814.925 682.767 813.871 684.874C812.818 686.981 811.338 688.621 809.432 689.793C807.527 690.964 805.295 691.55 802.738 691.55ZM802.756 687.094C804.413 687.094 805.787 686.656 806.876 685.78C807.965 684.904 808.769 683.738 809.29 682.282C809.823 680.826 810.089 679.222 810.089 677.47C810.089 675.73 809.823 674.132 809.29 672.676C808.769 671.208 807.965 670.031 806.876 669.143C805.787 668.255 804.413 667.811 802.756 667.811C801.087 667.811 799.702 668.255 798.601 669.143C797.512 670.031 796.702 671.208 796.169 672.676C795.648 674.132 795.388 675.73 795.388 677.47C795.388 679.222 795.648 680.826 796.169 682.282C796.702 683.738 797.512 684.904 798.601 685.78C799.702 686.656 801.087 687.094 802.756 687.094ZM851.886 679.69V663.727H857.213V691H851.993V686.277H851.709C851.081 687.733 850.075 688.946 848.69 689.917C847.317 690.876 845.607 691.355 843.559 691.355C841.807 691.355 840.256 690.97 838.907 690.201C837.569 689.42 836.516 688.266 835.746 686.739C834.989 685.212 834.61 683.324 834.61 681.075V663.727H839.919V680.435C839.919 682.294 840.434 683.773 841.464 684.874C842.493 685.975 843.831 686.526 845.476 686.526C846.471 686.526 847.459 686.277 848.442 685.78C849.436 685.283 850.259 684.531 850.91 683.525C851.573 682.519 851.898 681.24 851.886 679.69ZM884.783 670.386L879.971 671.238C879.77 670.622 879.45 670.036 879.012 669.48C878.586 668.924 878.006 668.468 877.272 668.113C876.538 667.758 875.621 667.58 874.52 667.58C873.017 667.58 871.762 667.918 870.756 668.592C869.75 669.255 869.247 670.113 869.247 671.167C869.247 672.078 869.584 672.812 870.259 673.369C870.934 673.925 872.023 674.381 873.526 674.736L877.858 675.73C880.368 676.31 882.238 677.204 883.469 678.411C884.7 679.619 885.316 681.187 885.316 683.116C885.316 684.75 884.842 686.206 883.895 687.484C882.96 688.751 881.652 689.745 879.971 690.467C878.302 691.189 876.367 691.55 874.165 691.55C871.111 691.55 868.619 690.899 866.69 689.597C864.761 688.283 863.577 686.419 863.139 684.004L868.27 683.223C868.59 684.561 869.247 685.573 870.241 686.259C871.235 686.934 872.532 687.271 874.13 687.271C875.87 687.271 877.261 686.91 878.302 686.188C879.344 685.454 879.865 684.561 879.865 683.507C879.865 682.655 879.545 681.939 878.906 681.359C878.279 680.779 877.314 680.341 876.012 680.045L871.395 679.033C868.85 678.453 866.968 677.529 865.749 676.263C864.542 674.996 863.938 673.392 863.938 671.451C863.938 669.841 864.388 668.433 865.287 667.225C866.187 666.018 867.43 665.077 869.016 664.402C870.602 663.715 872.419 663.372 874.467 663.372C877.414 663.372 879.734 664.011 881.427 665.29C883.12 666.556 884.239 668.255 884.783 670.386ZM902.907 691.55C900.22 691.55 897.906 690.976 895.965 689.828C894.035 688.668 892.544 687.04 891.49 684.945C890.449 682.838 889.928 680.37 889.928 677.541C889.928 674.748 890.449 672.286 891.49 670.155C892.544 668.024 894.012 666.361 895.894 665.165C897.788 663.97 900.001 663.372 902.534 663.372C904.073 663.372 905.565 663.627 907.009 664.136C908.453 664.645 909.749 665.444 910.897 666.533C912.045 667.622 912.951 669.036 913.614 670.776C914.277 672.504 914.608 674.606 914.608 677.08V678.962H892.928V674.984H909.406C909.406 673.588 909.122 672.351 908.553 671.273C907.985 670.184 907.186 669.326 906.156 668.699C905.138 668.071 903.943 667.758 902.57 667.758C901.078 667.758 899.776 668.125 898.664 668.859C897.563 669.581 896.71 670.528 896.107 671.7C895.515 672.86 895.219 674.12 895.219 675.482V678.589C895.219 680.412 895.539 681.962 896.178 683.241C896.829 684.519 897.734 685.496 898.894 686.17C900.054 686.833 901.41 687.165 902.96 687.165C903.967 687.165 904.884 687.023 905.713 686.739C906.541 686.443 907.257 686.005 907.861 685.425C908.465 684.845 908.926 684.129 909.246 683.276L914.271 684.182C913.868 685.661 913.146 686.958 912.105 688.07C911.075 689.171 909.779 690.029 908.216 690.645C906.665 691.249 904.896 691.55 902.907 691.55ZM941.668 691.604C939.94 691.604 938.377 691.284 936.98 690.645C935.584 689.994 934.477 689.053 933.66 687.822C932.855 686.591 932.453 685.081 932.453 683.294C932.453 681.755 932.749 680.489 933.34 679.494C933.932 678.5 934.731 677.713 935.737 677.133C936.744 676.553 937.868 676.115 939.111 675.819C940.354 675.523 941.62 675.298 942.911 675.144C944.544 674.955 945.87 674.801 946.888 674.683C947.906 674.552 948.646 674.345 949.107 674.061C949.569 673.777 949.8 673.315 949.8 672.676V672.552C949.8 671.001 949.362 669.8 948.486 668.947C947.622 668.095 946.332 667.669 944.615 667.669C942.828 667.669 941.419 668.066 940.389 668.859C939.371 669.64 938.667 670.51 938.276 671.469L933.287 670.332C933.879 668.675 934.743 667.338 935.879 666.32C937.028 665.29 938.347 664.544 939.839 664.082C941.33 663.609 942.899 663.372 944.544 663.372C945.633 663.372 946.787 663.502 948.007 663.763C949.238 664.011 950.386 664.473 951.451 665.148C952.528 665.822 953.41 666.787 954.097 668.042C954.783 669.285 955.127 670.901 955.127 672.889V691H949.942V687.271H949.729C949.386 687.958 948.871 688.633 948.184 689.295C947.498 689.958 946.616 690.509 945.539 690.947C944.461 691.385 943.171 691.604 941.668 691.604ZM942.822 687.342C944.29 687.342 945.544 687.052 946.586 686.472C947.64 685.892 948.439 685.135 948.983 684.2C949.539 683.253 949.818 682.241 949.818 681.163V677.648C949.628 677.837 949.261 678.015 948.717 678.18C948.184 678.334 947.575 678.47 946.888 678.589C946.201 678.695 945.533 678.796 944.882 678.891C944.231 678.973 943.686 679.045 943.248 679.104C942.218 679.234 941.277 679.453 940.425 679.761C939.584 680.068 938.91 680.512 938.401 681.092C937.904 681.661 937.655 682.418 937.655 683.365C937.655 684.679 938.14 685.673 939.111 686.348C940.082 687.011 941.319 687.342 942.822 687.342ZM967.507 674.807V691H962.198V663.727H967.294V668.166H967.631C968.258 666.722 969.241 665.562 970.578 664.686C971.928 663.81 973.627 663.372 975.674 663.372C977.533 663.372 979.16 663.763 980.557 664.544C981.954 665.313 983.037 666.462 983.806 667.989C984.576 669.516 984.961 671.404 984.961 673.653V691H979.652V674.292C979.652 672.315 979.137 670.77 978.107 669.658C977.077 668.533 975.663 667.971 973.863 667.971C972.632 667.971 971.537 668.237 970.578 668.77C969.632 669.303 968.88 670.084 968.324 671.114C967.779 672.132 967.507 673.363 967.507 674.807ZM1002.29 691.533C1000.09 691.533 998.123 690.97 996.395 689.846C994.679 688.71 993.329 687.094 992.347 684.999C991.376 682.892 990.891 680.364 990.891 677.417C990.891 674.469 991.382 671.948 992.365 669.853C993.359 667.758 994.72 666.154 996.449 665.041C998.177 663.929 1000.14 663.372 1002.33 663.372C1004.02 663.372 1005.38 663.656 1006.41 664.224C1007.45 664.781 1008.26 665.432 1008.82 666.178C1009.4 666.923 1009.85 667.58 1010.17 668.148H1010.49V654.636H1015.8V691H1010.62V686.756H1010.17C1009.85 687.336 1009.39 687.999 1008.79 688.745C1008.2 689.491 1007.38 690.142 1006.34 690.698C1005.3 691.254 1003.95 691.533 1002.29 691.533ZM1003.46 687.005C1004.99 687.005 1006.28 686.603 1007.33 685.798C1008.4 684.981 1009.2 683.85 1009.75 682.406C1010.3 680.962 1010.58 679.281 1010.58 677.364C1010.58 675.47 1010.31 673.812 1009.77 672.392C1009.22 670.972 1008.42 669.865 1007.37 669.072C1006.31 668.279 1005.01 667.882 1003.46 667.882C1001.86 667.882 1000.53 668.296 999.467 669.125C998.402 669.954 997.597 671.084 997.052 672.516C996.52 673.949 996.253 675.564 996.253 677.364C996.253 679.187 996.525 680.826 997.07 682.282C997.614 683.738 998.419 684.892 999.485 685.744C1000.56 686.585 1001.89 687.005 1003.46 687.005ZM1048.1 691.55C1045.46 691.55 1043.19 690.953 1041.28 689.757C1039.39 688.55 1037.93 686.887 1036.91 684.768C1035.9 682.649 1035.39 680.222 1035.39 677.488C1035.39 674.718 1035.91 672.274 1036.95 670.155C1037.99 668.024 1039.46 666.361 1041.35 665.165C1043.25 663.97 1045.48 663.372 1048.05 663.372C1050.12 663.372 1051.96 663.757 1053.59 664.526C1055.21 665.284 1056.52 666.349 1057.51 667.722C1058.52 669.095 1059.11 670.699 1059.3 672.534H1054.14C1053.85 671.256 1053.2 670.155 1052.18 669.232C1051.18 668.308 1049.83 667.847 1048.14 667.847C1046.66 667.847 1045.36 668.237 1044.25 669.018C1043.15 669.788 1042.29 670.889 1041.67 672.321C1041.06 673.741 1040.75 675.422 1040.75 677.364C1040.75 679.352 1041.05 681.069 1041.65 682.513C1042.26 683.957 1043.11 685.076 1044.21 685.869C1045.32 686.662 1046.63 687.058 1048.14 687.058C1049.14 687.058 1050.05 686.875 1050.87 686.508C1051.7 686.129 1052.39 685.59 1052.95 684.892C1053.52 684.194 1053.91 683.353 1054.14 682.371H1059.3C1059.11 684.134 1058.54 685.709 1057.58 687.094C1056.62 688.479 1055.34 689.568 1053.73 690.361C1052.13 691.154 1050.25 691.55 1048.1 691.55ZM1082.26 679.69V663.727H1087.58V691H1082.36V686.277H1082.08C1081.45 687.733 1080.45 688.946 1079.06 689.917C1077.69 690.876 1075.98 691.355 1073.93 691.355C1072.18 691.355 1070.63 690.97 1069.28 690.201C1067.94 689.42 1066.89 688.266 1066.12 686.739C1065.36 685.212 1064.98 683.324 1064.98 681.075V663.727H1070.29V680.435C1070.29 682.294 1070.8 683.773 1071.83 684.874C1072.86 685.975 1074.2 686.526 1075.85 686.526C1076.84 686.526 1077.83 686.277 1078.81 685.78C1079.81 685.283 1080.63 684.531 1081.28 683.525C1081.94 682.519 1082.27 681.24 1082.26 679.69ZM1115.15 670.386L1110.34 671.238C1110.14 670.622 1109.82 670.036 1109.38 669.48C1108.96 668.924 1108.38 668.468 1107.64 668.113C1106.91 667.758 1105.99 667.58 1104.89 667.58C1103.39 667.58 1102.13 667.918 1101.13 668.592C1100.12 669.255 1099.62 670.113 1099.62 671.167C1099.62 672.078 1099.96 672.812 1100.63 673.369C1101.3 673.925 1102.39 674.381 1103.9 674.736L1108.23 675.73C1110.74 676.31 1112.61 677.204 1113.84 678.411C1115.07 679.619 1115.69 681.187 1115.69 683.116C1115.69 684.75 1115.21 686.206 1114.27 687.484C1113.33 688.751 1112.02 689.745 1110.34 690.467C1108.67 691.189 1106.74 691.55 1104.54 691.55C1101.48 691.55 1098.99 690.899 1097.06 689.597C1095.13 688.283 1093.95 686.419 1093.51 684.004L1098.64 683.223C1098.96 684.561 1099.62 685.573 1100.61 686.259C1101.61 686.934 1102.9 687.271 1104.5 687.271C1106.24 687.271 1107.63 686.91 1108.67 686.188C1109.71 685.454 1110.24 684.561 1110.24 683.507C1110.24 682.655 1109.92 681.939 1109.28 681.359C1108.65 680.779 1107.68 680.341 1106.38 680.045L1101.77 679.033C1099.22 678.453 1097.34 677.529 1096.12 676.263C1094.91 674.996 1094.31 673.392 1094.31 671.451C1094.31 669.841 1094.76 668.433 1095.66 667.225C1096.56 666.018 1097.8 665.077 1099.39 664.402C1100.97 663.715 1102.79 663.372 1104.84 663.372C1107.79 663.372 1110.11 664.011 1111.8 665.29C1113.49 666.556 1114.61 668.255 1115.15 670.386ZM1134.25 663.727V667.989H1119.36V663.727H1134.25ZM1123.35 657.193H1128.66V682.992C1128.66 684.022 1128.82 684.797 1129.12 685.318C1129.43 685.827 1129.83 686.176 1130.31 686.366C1130.81 686.543 1131.35 686.632 1131.93 686.632C1132.35 686.632 1132.73 686.603 1133.05 686.543C1133.37 686.484 1133.62 686.437 1133.79 686.401L1134.75 690.787C1134.44 690.905 1134.01 691.024 1133.44 691.142C1132.87 691.272 1132.16 691.343 1131.31 691.355C1129.91 691.379 1128.61 691.13 1127.4 690.609C1126.19 690.089 1125.22 689.284 1124.47 688.195C1123.73 687.106 1123.35 685.738 1123.35 684.093V657.193ZM1151.32 691.55C1148.77 691.55 1146.53 690.964 1144.63 689.793C1142.72 688.621 1141.24 686.981 1140.19 684.874C1139.14 682.767 1138.61 680.305 1138.61 677.488C1138.61 674.659 1139.14 672.185 1140.19 670.066C1141.24 667.947 1142.72 666.302 1144.63 665.13C1146.53 663.958 1148.77 663.372 1151.32 663.372C1153.88 663.372 1156.11 663.958 1158.02 665.13C1159.92 666.302 1161.4 667.947 1162.46 670.066C1163.51 672.185 1164.04 674.659 1164.04 677.488C1164.04 680.305 1163.51 682.767 1162.46 684.874C1161.4 686.981 1159.92 688.621 1158.02 689.793C1156.11 690.964 1153.88 691.55 1151.32 691.55ZM1151.34 687.094C1153 687.094 1154.37 686.656 1155.46 685.78C1156.55 684.904 1157.35 683.738 1157.87 682.282C1158.41 680.826 1158.67 679.222 1158.67 677.47C1158.67 675.73 1158.41 674.132 1157.87 672.676C1157.35 671.208 1156.55 670.031 1155.46 669.143C1154.37 668.255 1153 667.811 1151.34 667.811C1149.67 667.811 1148.29 668.255 1147.19 669.143C1146.1 670.031 1145.29 671.208 1144.75 672.676C1144.23 674.132 1143.97 675.73 1143.97 677.47C1143.97 679.222 1144.23 680.826 1144.75 682.282C1145.29 683.738 1146.1 684.904 1147.19 685.78C1148.29 686.656 1149.67 687.094 1151.34 687.094ZM1169.96 691V663.727H1175.06V668.166H1175.39C1175.96 666.663 1176.89 665.491 1178.18 664.651C1179.47 663.798 1181.02 663.372 1182.82 663.372C1184.64 663.372 1186.17 663.798 1187.4 664.651C1188.64 665.503 1189.56 666.675 1190.15 668.166H1190.43C1191.08 666.71 1192.12 665.55 1193.54 664.686C1194.96 663.81 1196.65 663.372 1198.62 663.372C1201.09 663.372 1203.11 664.147 1204.67 665.698C1206.25 667.249 1207.04 669.587 1207.04 672.712V691H1201.73V673.209C1201.73 671.362 1201.22 670.025 1200.22 669.196C1199.21 668.367 1198.01 667.953 1196.61 667.953C1194.88 667.953 1193.54 668.486 1192.58 669.551C1191.62 670.605 1191.14 671.96 1191.14 673.617V691H1185.85V672.871C1185.85 671.392 1185.39 670.202 1184.47 669.303C1183.54 668.403 1182.34 667.953 1180.86 667.953C1179.86 667.953 1178.93 668.219 1178.08 668.752C1177.24 669.273 1176.55 670.001 1176.03 670.936C1175.52 671.871 1175.27 672.954 1175.27 674.185V691H1169.96Z" fill="url(#paint21_linear_1_14)"/>
<path d="M830.068 1172.55C830.654 1129.15 882.515 1102.55 916.556 1130.8L908.964 1124.44C888.295 1106.6 855.266 1110.16 837.073 1130.21C820.106 1147.98 817.416 1177.39 832.146 1197.31C836.114 1202.79 842.773 1208.24 848.021 1212.53C836.381 1202.71 829.748 1187.74 830.041 1172.53L830.068 1172.55Z" fill="url(#paint22_linear_1_14)"/>
<path d="M1016.36 1179.52C1020.94 1132.58 1000.51 1088.35 963.009 1060.05C1019.24 1106.89 1024.01 1192.29 978.325 1248.08C932.218 1306.62 843.652 1319.09 786.411 1270.61C870.821 1349.17 1005.41 1292.15 1016.36 1179.55V1179.52Z" fill="url(#paint23_linear_1_14)"/>
<path d="M897.964 1031.31C971.24 1041.6 1020.22 1109.95 1007.41 1183.96C994.6 1258 924.84 1309.65 851.537 1299.36C778.234 1289.09 729.223 1220.77 742.035 1146.73C754.874 1072.71 824.661 1021.01 897.964 1031.31ZM865.734 1217.37C894.155 1221.36 921.27 1201.3 926.225 1172.58C931.206 1143.86 912.187 1117.29 883.74 1113.3C855.319 1109.31 828.177 1129.39 823.196 1158.11C818.215 1186.83 837.286 1213.38 865.707 1217.37" fill="url(#paint24_linear_1_14)"/>
<path d="M1415.24 873.676C1412.71 875.842 1410.09 877.876 1407.36 879.757C1405.26 881.204 1403.13 882.569 1400.93 883.835C1392.54 888.725 1383.4 892.355 1373.84 894.524C1364.83 896.571 1355.44 897.341 1345.92 896.677C1343.29 896.488 1340.65 896.195 1338.01 895.792C1335.77 895.45 1333.54 895.025 1331.29 894.503C1331.21 894.495 1331.12 894.473 1331.05 894.45C1330.61 894.39 1330.25 894.317 1330 894.223C1332.58 894.77 1337.27 885.403 1340.48 873.211C1343.74 860.932 1344.27 850.428 1341.7 849.734C1341.62 849.718 1341.55 849.695 1341.46 849.708C1341.75 849.702 1342.09 849.763 1342.51 849.866C1355.56 852.545 1368.59 849.846 1379.19 843.223C1390.71 836.021 1398.92 824.253 1401.7 810.947C1405.11 794.665 1400.01 778.353 1389.36 766.749C1383.61 760.475 1376.24 755.587 1367.72 752.806C1367.48 752.745 1367.28 752.648 1367.1 752.528C1367.18 752.571 1367.25 752.594 1367.34 752.623C1369.92 753.303 1374.65 743.912 1377.9 731.641C1381.13 719.398 1381.68 708.929 1379.14 708.19C1379.21 708.199 1379.27 708.216 1379.35 708.245C1381.15 708.783 1382.91 709.38 1384.67 710.012C1386.68 710.738 1388.66 711.536 1390.6 712.386C1392.87 713.393 1395.09 714.475 1397.27 715.635C1405.09 719.83 1412.22 725.034 1418.5 731.021C1425.17 737.379 1430.89 744.637 1435.5 752.537C1436.88 754.889 1438.15 757.303 1439.34 759.758C1441.28 763.834 1442.95 768.046 1444.31 772.358C1446.57 779.506 1448.01 786.954 1448.53 794.542C1449.23 804.619 1448.32 814.967 1445.59 825.252C1443.31 833.896 1439.92 841.947 1435.62 849.301C1430.16 858.624 1423.24 866.827 1415.25 873.668L1415.24 873.676Z" fill="url(#paint25_linear_1_14)"/>
<path d="M1367.35 752.615C1367.26 752.587 1367.19 752.556 1367.11 752.52C1366.93 752.393 1366.77 752.237 1366.64 752.064C1366.61 752.032 1366.57 751.986 1366.55 751.931C1366.5 751.858 1366.46 751.791 1366.42 751.703C1366.4 751.67 1366.39 751.65 1366.38 751.609C1366.33 751.507 1366.31 751.419 1366.26 751.317C1366.22 751.229 1366.2 751.147 1366.18 751.044C1365.1 747.606 1365.97 738.947 1368.56 729.153C1371.08 719.67 1374.46 711.89 1377.08 709.188C1377.52 708.719 1377.94 708.412 1378.33 708.253C1378.4 708.227 1378.49 708.2 1378.58 708.186C1378.65 708.168 1378.72 708.156 1378.79 708.165C1378.88 708.159 1378.95 708.161 1379.05 708.175C1379.06 708.174 1379.09 708.186 1379.12 708.184C1379.12 708.191 1379.13 708.184 1379.14 708.19C1381.68 708.935 1381.13 719.398 1377.9 731.633C1374.66 743.898 1369.94 753.295 1367.35 752.615Z" fill="url(#paint26_linear_1_14)"/>
<path d="M1330 894.229C1329.78 894.168 1329.62 894.081 1329.48 893.972C1329.4 893.901 1329.33 893.823 1329.26 893.716C1327.5 891.405 1328.22 881.787 1331.14 870.744C1334.13 859.472 1338.36 850.632 1341.02 849.794C1341.15 849.751 1341.28 849.721 1341.43 849.71C1341.44 849.709 1341.46 849.708 1341.47 849.721C1341.55 849.716 1341.63 849.725 1341.71 849.747C1344.28 850.435 1343.74 860.945 1340.5 873.223C1337.28 885.416 1332.59 894.776 1330.01 894.236L1330 894.229Z" fill="url(#paint27_linear_1_14)"/>
<g opacity="0.2" filter="url(#filter5_f_1_14)">
<g filter="url(#filter6_f_1_14)">
<path d="M1509.69 689.247C1524.75 687.141 1539.84 685.775 1554.99 685.278C1566.62 684.876 1578.17 684.869 1589.75 685.418C1634.1 687.297 1678.19 695.846 1720.3 711.058C1760 725.383 1798.04 745.573 1833.01 771.575C1842.65 778.773 1852.08 786.404 1861.27 794.481C1869.02 801.296 1876.58 808.445 1883.93 815.984C1884.23 816.223 1884.51 816.517 1884.73 816.781C1886.28 818.105 1887.46 819.257 1888.22 820.252C1879.61 811.771 1838.53 836.266 1796.1 875.236C1753.32 914.45 1725.39 953.538 1733.6 962.559C1733.86 962.81 1734.07 963.074 1734.45 963.245C1733.31 962.548 1732.16 961.481 1730.8 960.052C1687.19 917.58 1630.4 895.847 1573.32 895.21C1511.26 894.528 1450.68 919.57 1407.2 963.902C1353.98 1018.14 1333.4 1093.45 1345.78 1164.33C1352.43 1202.63 1368.75 1239.6 1394.66 1271.28C1395.41 1272.09 1395.95 1272.97 1396.35 1273.88C1396.15 1273.51 1395.94 1273.25 1395.65 1272.91C1387.42 1263.95 1346.09 1288.42 1303.36 1327.62C1260.74 1366.74 1232.86 1405.67 1240.8 1414.77C1240.55 1414.56 1240.35 1414.34 1240.12 1414.03C1234.52 1407.53 1229.21 1400.89 1224.01 1394.13C1218.05 1386.37 1212.41 1378.43 1207.07 1370.4C1200.78 1360.91 1194.93 1351.29 1189.39 1341.45C1169.64 1306.04 1155.06 1268.47 1145.64 1229.95C1135.66 1189.07 1131.53 1147.04 1133.28 1105.31C1133.76 1092.86 1134.81 1080.44 1136.3 1068.07C1138.88 1047.62 1142.82 1027.28 1148.23 1007.36C1157.14 974.295 1169.97 942.101 1186.66 911.629C1208.8 871.144 1237.79 833.573 1273.63 800.737C1303.69 773.099 1336.58 750.485 1371.22 732.783C1415.22 710.387 1462.02 695.871 1509.64 689.26L1509.69 689.247Z" fill="url(#paint28_linear_1_14)"/>
</g>
<g filter="url(#filter7_f_1_14)">
<path d="M1395.61 1272.93C1395.89 1273.26 1396.07 1273.54 1396.31 1273.89C1396.67 1274.81 1396.92 1275.82 1396.97 1276.79C1397.03 1277 1397.07 1277.27 1397 1277.53C1397.03 1277.94 1396.99 1278.28 1396.93 1278.72C1396.93 1278.9 1396.92 1279 1396.88 1279.2C1396.79 1279.69 1396.68 1280.1 1396.59 1280.59C1396.53 1281.03 1396.4 1281.4 1396.25 1281.86C1391.91 1297.73 1367.23 1328.9 1333.13 1360.19C1300.1 1390.48 1267.9 1412.05 1251.18 1416C1248.35 1416.73 1245.95 1416.87 1244.08 1416.53C1243.72 1416.44 1243.32 1416.33 1242.94 1416.16C1242.63 1416.06 1242.31 1415.92 1242.06 1415.71C1241.73 1415.53 1241.44 1415.33 1241.12 1415.05C1241.06 1415.02 1240.98 1414.9 1240.87 1414.84C1240.86 1414.8 1240.82 1414.81 1240.8 1414.77C1232.85 1405.63 1260.74 1366.74 1303.32 1327.63C1346 1288.45 1387.32 1263.93 1395.61 1272.93Z" fill="url(#paint29_linear_1_14)"/>
</g>
<g filter="url(#filter8_f_1_14)">
<path d="M1888.21 820.209C1888.9 820.989 1889.3 821.714 1889.57 822.478C1889.71 822.952 1889.8 823.439 1889.78 824.006C1890.89 837.252 1864.4 872.457 1825.95 907.74C1786.68 943.73 1748.65 967.331 1736.35 963.998C1735.75 963.847 1735.17 963.641 1734.56 963.305C1734.51 963.275 1734.45 963.244 1734.43 963.158C1734.09 962.975 1733.84 962.767 1733.57 962.472C1725.38 953.495 1753.35 914.394 1796.07 875.15C1838.5 836.18 1879.6 811.728 1888.19 820.166L1888.21 820.209Z" fill="url(#paint30_linear_1_14)"/>
</g>
</g>
<path style="mix-blend-mode:overlay" d="M1585.5 552.001C1643.21 552.001 1690 505.215 1690 447.501C1690 389.787 1643.21 343 1585.5 343C1527.79 343 1481 389.787 1481 447.501C1481 505.215 1527.79 552.001 1585.5 552.001Z" fill="url(#paint31_radial_1_14)"/>
<path style="mix-blend-mode:multiply" d="M1585.5 552.001C1643.21 552.001 1690 505.215 1690 447.501C1690 389.787 1643.21 343 1585.5 343C1527.79 343 1481 389.787 1481 447.501C1481 505.215 1527.79 552.001 1585.5 552.001Z" fill="url(#paint32_radial_1_14)"/>
<path style="mix-blend-mode:saturation" d="M1585.5 544.666C1639.16 544.666 1682.67 501.163 1682.67 447.501C1682.67 393.838 1639.16 350.336 1585.5 350.336C1531.84 350.336 1488.34 393.838 1488.34 447.501C1488.34 501.163 1531.84 544.666 1585.5 544.666Z" fill="url(#paint33_radial_1_14)"/>
<path style="mix-blend-mode:screen" d="M1542.19 368.126C1548.43 374.363 1544.87 388.024 1534.26 398.633C1523.65 409.241 1509.97 412.799 1503.75 406.561C1497.54 400.324 1501.07 386.663 1511.68 376.055C1522.29 365.446 1535.97 361.888 1542.19 368.126Z" fill="url(#paint34_radial_1_14)"/>
<path style="mix-blend-mode:color-dodge" d="M1548.23 530.521C1542.76 537.44 1528.77 535.485 1517 526.173C1505.23 516.86 1500.11 503.704 1505.58 496.786C1511.05 489.868 1525.04 491.822 1536.81 501.135C1548.58 510.447 1553.7 523.603 1548.23 530.521Z" fill="url(#paint35_radial_1_14)"/>
<path style="mix-blend-mode:color-dodge" d="M1605.42 540.333C1607.04 531.665 1592.7 521.705 1573.39 518.087C1554.07 514.469 1537.1 518.563 1535.48 527.23C1533.85 535.898 1548.19 545.858 1567.51 549.476C1586.82 553.094 1603.8 549 1605.42 540.333Z" fill="url(#paint36_radial_1_14)"/>
<path style="mix-blend-mode:color-dodge" opacity="0.5" d="M1671.1 509.021C1685.4 490.86 1688.28 469.268 1677.52 460.793C1666.76 452.319 1646.45 460.171 1632.14 478.332C1617.83 496.494 1614.95 518.086 1625.71 526.561C1636.47 535.035 1656.79 527.183 1671.1 509.021Z" fill="url(#paint37_radial_1_14)"/>
<path style="mix-blend-mode:overlay" d="M402.709 779.418C444.522 779.418 478.418 745.522 478.418 703.709C478.418 661.896 444.522 628 402.709 628C360.896 628 327 661.896 327 703.709C327 745.522 360.896 779.418 402.709 779.418Z" fill="url(#paint38_radial_1_14)"/>
<path style="mix-blend-mode:multiply" d="M402.709 779.418C444.522 779.418 478.418 745.522 478.418 703.709C478.418 661.896 444.522 628 402.709 628C360.896 628 327 661.896 327 703.709C327 745.522 360.896 779.418 402.709 779.418Z" fill="url(#paint39_radial_1_14)"/>
<path style="mix-blend-mode:saturation" d="M402.709 774.103C441.587 774.103 473.103 742.587 473.103 703.709C473.103 664.831 441.587 633.315 402.709 633.315C363.831 633.315 332.315 664.831 332.315 703.709C332.315 742.587 363.831 774.103 402.709 774.103Z" fill="url(#paint40_radial_1_14)"/>
<path style="mix-blend-mode:screen" d="M371.33 646.203C375.849 650.722 373.272 660.62 365.586 668.305C357.901 675.99 347.988 678.568 343.485 674.049C338.981 669.53 341.543 659.633 349.229 651.948C356.914 644.262 366.827 641.684 371.33 646.203Z" fill="url(#paint41_radial_1_14)"/>
<path style="mix-blend-mode:color-dodge" d="M375.707 763.856C371.745 768.868 361.609 767.452 353.08 760.706C344.551 753.959 340.844 744.428 344.806 739.415C348.768 734.403 358.904 735.819 367.432 742.566C375.961 749.313 379.669 758.844 375.707 763.856Z" fill="url(#paint42_radial_1_14)"/>
<path style="mix-blend-mode:color-dodge" d="M417.141 770.964C418.317 764.685 407.927 757.469 393.934 754.848C379.941 752.227 367.644 755.192 366.468 761.472C365.291 767.751 375.681 774.967 389.674 777.588C403.667 780.21 415.964 777.244 417.141 770.964Z" fill="url(#paint43_radial_1_14)"/>
<path style="mix-blend-mode:color-dodge" opacity="0.5" d="M464.721 748.28C475.086 735.122 477.171 719.479 469.377 713.339C461.583 707.199 446.862 712.889 436.497 726.046C426.132 739.204 424.048 754.847 431.841 760.987C439.635 767.126 454.356 761.437 464.721 748.28Z" fill="url(#paint44_radial_1_14)"/>
<circle cx="68" cy="587" r="6" transform="rotate(-90 68 587)" fill="white"/>
<circle cx="68" cy="535" r="6" transform="rotate(-90 68 535)" fill="white"/>
<circle cx="68" cy="483" r="6" transform="rotate(-90 68 483)" fill="white"/>
<circle cx="68" cy="431" r="6" transform="rotate(-90 68 431)" fill="white"/>
<circle cx="68" cy="379" r="6" transform="rotate(-90 68 379)" fill="white"/>
<circle cx="68" cy="327" r="6" transform="rotate(-90 68 327)" fill="white"/>
<circle cx="68" cy="275" r="6" transform="rotate(-90 68 275)" fill="white"/>
<circle cx="68" cy="223" r="6" transform="rotate(-90 68 223)" fill="white"/>
<circle cx="68" cy="171" r="6" transform="rotate(-90 68 171)" fill="white"/>
<circle cx="68" cy="119" r="6" transform="rotate(-90 68 119)" fill="white"/>
<circle cx="68" cy="67" r="6" transform="rotate(-90 68 67)" fill="white"/>
<circle cx="110" cy="587" r="6" transform="rotate(-90 110 587)" fill="white"/>
<circle cx="110" cy="535" r="6" transform="rotate(-90 110 535)" fill="white"/>
<circle cx="110" cy="483" r="6" transform="rotate(-90 110 483)" fill="white"/>
<circle cx="110" cy="431" r="6" transform="rotate(-90 110 431)" fill="white"/>
<circle cx="110" cy="379" r="6" transform="rotate(-90 110 379)" fill="white"/>
<circle cx="110" cy="327" r="6" transform="rotate(-90 110 327)" fill="white"/>
<circle cx="110" cy="275" r="6" transform="rotate(-90 110 275)" fill="white"/>
<circle cx="110" cy="223" r="6" transform="rotate(-90 110 223)" fill="white"/>
<circle cx="110" cy="171" r="6" transform="rotate(-90 110 171)" fill="white"/>
<circle cx="110" cy="119" r="6" transform="rotate(-90 110 119)" fill="white"/>
<circle cx="110" cy="67" r="6" transform="rotate(-90 110 67)" fill="white"/>
<circle cx="152" cy="587" r="6" transform="rotate(-90 152 587)" fill="white"/>
<circle cx="152" cy="535" r="6" transform="rotate(-90 152 535)" fill="white"/>
<circle cx="152" cy="483" r="6" transform="rotate(-90 152 483)" fill="white"/>
<circle cx="152" cy="431" r="6" transform="rotate(-90 152 431)" fill="white"/>
<circle cx="152" cy="379" r="6" transform="rotate(-90 152 379)" fill="white"/>
<circle cx="152" cy="327" r="6" transform="rotate(-90 152 327)" fill="white"/>
<circle cx="152" cy="275" r="6" transform="rotate(-90 152 275)" fill="white"/>
<circle cx="152" cy="223" r="6" transform="rotate(-90 152 223)" fill="white"/>
<circle cx="152" cy="171" r="6" transform="rotate(-90 152 171)" fill="white"/>
<circle cx="152" cy="119" r="6" transform="rotate(-90 152 119)" fill="white"/>
<circle cx="152" cy="67" r="6" transform="rotate(-90 152 67)" fill="white"/>
<circle cx="194" cy="587" r="6" transform="rotate(-90 194 587)" fill="white"/>
<circle cx="194" cy="535" r="6" transform="rotate(-90 194 535)" fill="white"/>
<circle cx="194" cy="483" r="6" transform="rotate(-90 194 483)" fill="white"/>
<circle cx="194" cy="431" r="6" transform="rotate(-90 194 431)" fill="white"/>
<circle cx="194" cy="379" r="6" transform="rotate(-90 194 379)" fill="white"/>
<circle cx="194" cy="327" r="6" transform="rotate(-90 194 327)" fill="white"/>
<circle cx="194" cy="275" r="6" transform="rotate(-90 194 275)" fill="white"/>
<circle cx="194" cy="223" r="6" transform="rotate(-90 194 223)" fill="white"/>
<circle cx="194" cy="171" r="6" transform="rotate(-90 194 171)" fill="white"/>
<circle cx="194" cy="119" r="6" transform="rotate(-90 194 119)" fill="white"/>
<circle cx="194" cy="67" r="6" transform="rotate(-90 194 67)" fill="white"/>
<circle cx="236" cy="587" r="6" transform="rotate(-90 236 587)" fill="white"/>
<circle cx="236" cy="535" r="6" transform="rotate(-90 236 535)" fill="white"/>
<circle cx="236" cy="483" r="6" transform="rotate(-90 236 483)" fill="white"/>
<circle cx="236" cy="431" r="6" transform="rotate(-90 236 431)" fill="white"/>
<circle cx="236" cy="379" r="6" transform="rotate(-90 236 379)" fill="white"/>
<circle cx="236" cy="327" r="6" transform="rotate(-90 236 327)" fill="white"/>
<circle cx="236" cy="275" r="6" transform="rotate(-90 236 275)" fill="white"/>
<circle cx="236" cy="223" r="6" transform="rotate(-90 236 223)" fill="white"/>
<circle cx="236" cy="171" r="6" transform="rotate(-90 236 171)" fill="white"/>
<circle cx="236" cy="119" r="6" transform="rotate(-90 236 119)" fill="white"/>
<circle cx="236" cy="67" r="6" transform="rotate(-90 236 67)" fill="white"/>
<circle cx="278" cy="587" r="6" transform="rotate(-90 278 587)" fill="white"/>
<circle cx="278" cy="535" r="6" transform="rotate(-90 278 535)" fill="white"/>
<circle cx="278" cy="483" r="6" transform="rotate(-90 278 483)" fill="white"/>
<circle cx="278" cy="431" r="6" transform="rotate(-90 278 431)" fill="white"/>
<circle cx="278" cy="379" r="6" transform="rotate(-90 278 379)" fill="white"/>
<circle cx="278" cy="327" r="6" transform="rotate(-90 278 327)" fill="white"/>
<circle cx="278" cy="275" r="6" transform="rotate(-90 278 275)" fill="white"/>
<circle cx="278" cy="223" r="6" transform="rotate(-90 278 223)" fill="white"/>
<circle cx="278" cy="171" r="6" transform="rotate(-90 278 171)" fill="white"/>
<circle cx="278" cy="119" r="6" transform="rotate(-90 278 119)" fill="white"/>
<circle cx="278" cy="67" r="6" transform="rotate(-90 278 67)" fill="white"/>
<circle cx="320" cy="587" r="6" transform="rotate(-90 320 587)" fill="white"/>
<circle cx="320" cy="535" r="6" transform="rotate(-90 320 535)" fill="white"/>
<circle cx="320" cy="483" r="6" transform="rotate(-90 320 483)" fill="white"/>
<circle cx="320" cy="431" r="6" transform="rotate(-90 320 431)" fill="white"/>
<circle cx="320" cy="379" r="6" transform="rotate(-90 320 379)" fill="white"/>
<circle cx="320" cy="327" r="6" transform="rotate(-90 320 327)" fill="white"/>
<circle cx="320" cy="275" r="6" transform="rotate(-90 320 275)" fill="white"/>
<circle cx="320" cy="223" r="6" transform="rotate(-90 320 223)" fill="white"/>
<circle cx="320" cy="171" r="6" transform="rotate(-90 320 171)" fill="white"/>
<circle cx="320" cy="119" r="6" transform="rotate(-90 320 119)" fill="white"/>
<circle cx="320" cy="67" r="6" transform="rotate(-90 320 67)" fill="white"/>
<circle cx="362" cy="587" r="6" transform="rotate(-90 362 587)" fill="white"/>
<circle cx="362" cy="535" r="6" transform="rotate(-90 362 535)" fill="white"/>
<circle cx="362" cy="483" r="6" transform="rotate(-90 362 483)" fill="white"/>
<circle cx="362" cy="431" r="6" transform="rotate(-90 362 431)" fill="white"/>
<circle cx="362" cy="379" r="6" transform="rotate(-90 362 379)" fill="white"/>
<circle cx="362" cy="327" r="6" transform="rotate(-90 362 327)" fill="white"/>
<circle cx="362" cy="275" r="6" transform="rotate(-90 362 275)" fill="white"/>
<circle cx="362" cy="223" r="6" transform="rotate(-90 362 223)" fill="white"/>
<circle cx="362" cy="171" r="6" transform="rotate(-90 362 171)" fill="white"/>
<circle cx="362" cy="119" r="6" transform="rotate(-90 362 119)" fill="white"/>
<circle cx="362" cy="67" r="6" transform="rotate(-90 362 67)" fill="white"/>
<circle cx="1577" cy="1163" r="6" transform="rotate(-90 1577 1163)" fill="white"/>
<circle cx="1577" cy="1111" r="6" transform="rotate(-90 1577 1111)" fill="white"/>
<circle cx="1577" cy="1059" r="6" transform="rotate(-90 1577 1059)" fill="white"/>
<circle cx="1577" cy="1007" r="6" transform="rotate(-90 1577 1007)" fill="white"/>
<circle cx="1577" cy="955" r="6" transform="rotate(-90 1577 955)" fill="white"/>
<circle cx="1577" cy="903" r="6" transform="rotate(-90 1577 903)" fill="white"/>
<circle cx="1577" cy="851" r="6" transform="rotate(-90 1577 851)" fill="white"/>
<circle cx="1577" cy="799" r="6" transform="rotate(-90 1577 799)" fill="white"/>
<circle cx="1577" cy="747" r="6" transform="rotate(-90 1577 747)" fill="white"/>
<circle cx="1577" cy="695" r="6" transform="rotate(-90 1577 695)" fill="white"/>
<circle cx="1577" cy="643" r="6" transform="rotate(-90 1577 643)" fill="white"/>
<circle cx="1619" cy="1163" r="6" transform="rotate(-90 1619 1163)" fill="white"/>
<circle cx="1619" cy="1111" r="6" transform="rotate(-90 1619 1111)" fill="white"/>
<circle cx="1619" cy="1059" r="6" transform="rotate(-90 1619 1059)" fill="white"/>
<circle cx="1619" cy="1007" r="6" transform="rotate(-90 1619 1007)" fill="white"/>
<circle cx="1619" cy="955" r="6" transform="rotate(-90 1619 955)" fill="white"/>
<circle cx="1619" cy="903" r="6" transform="rotate(-90 1619 903)" fill="white"/>
<circle cx="1619" cy="851" r="6" transform="rotate(-90 1619 851)" fill="white"/>
<circle cx="1619" cy="799" r="6" transform="rotate(-90 1619 799)" fill="white"/>
<circle cx="1619" cy="747" r="6" transform="rotate(-90 1619 747)" fill="white"/>
<circle cx="1619" cy="695" r="6" transform="rotate(-90 1619 695)" fill="white"/>
<circle cx="1619" cy="643" r="6" transform="rotate(-90 1619 643)" fill="white"/>
<circle cx="1661" cy="1163" r="6" transform="rotate(-90 1661 1163)" fill="white"/>
<circle cx="1661" cy="1111" r="6" transform="rotate(-90 1661 1111)" fill="white"/>
<circle cx="1661" cy="1059" r="6" transform="rotate(-90 1661 1059)" fill="white"/>
<circle cx="1661" cy="1007" r="6" transform="rotate(-90 1661 1007)" fill="white"/>
<circle cx="1661" cy="955" r="6" transform="rotate(-90 1661 955)" fill="white"/>
<circle cx="1661" cy="903" r="6" transform="rotate(-90 1661 903)" fill="white"/>
<circle cx="1661" cy="851" r="6" transform="rotate(-90 1661 851)" fill="white"/>
<circle cx="1661" cy="799" r="6" transform="rotate(-90 1661 799)" fill="white"/>
<circle cx="1661" cy="747" r="6" transform="rotate(-90 1661 747)" fill="white"/>
<circle cx="1661" cy="695" r="6" transform="rotate(-90 1661 695)" fill="white"/>
<circle cx="1661" cy="643" r="6" transform="rotate(-90 1661 643)" fill="white"/>
<circle cx="1703" cy="1163" r="6" transform="rotate(-90 1703 1163)" fill="white"/>
<circle cx="1703" cy="1111" r="6" transform="rotate(-90 1703 1111)" fill="white"/>
<circle cx="1703" cy="1059" r="6" transform="rotate(-90 1703 1059)" fill="white"/>
<circle cx="1703" cy="1007" r="6" transform="rotate(-90 1703 1007)" fill="white"/>
<circle cx="1703" cy="955" r="6" transform="rotate(-90 1703 955)" fill="white"/>
<circle cx="1703" cy="903" r="6" transform="rotate(-90 1703 903)" fill="white"/>
<circle cx="1703" cy="851" r="6" transform="rotate(-90 1703 851)" fill="white"/>
<circle cx="1703" cy="799" r="6" transform="rotate(-90 1703 799)" fill="white"/>
<circle cx="1703" cy="747" r="6" transform="rotate(-90 1703 747)" fill="white"/>
<circle cx="1703" cy="695" r="6" transform="rotate(-90 1703 695)" fill="white"/>
<circle cx="1703" cy="643" r="6" transform="rotate(-90 1703 643)" fill="white"/>
<circle cx="1745" cy="1163" r="6" transform="rotate(-90 1745 1163)" fill="white"/>
<circle cx="1745" cy="1111" r="6" transform="rotate(-90 1745 1111)" fill="white"/>
<circle cx="1745" cy="1059" r="6" transform="rotate(-90 1745 1059)" fill="white"/>
<circle cx="1745" cy="1007" r="6" transform="rotate(-90 1745 1007)" fill="white"/>
<circle cx="1745" cy="955" r="6" transform="rotate(-90 1745 955)" fill="white"/>
<circle cx="1745" cy="903" r="6" transform="rotate(-90 1745 903)" fill="white"/>
<circle cx="1745" cy="851" r="6" transform="rotate(-90 1745 851)" fill="white"/>
<circle cx="1745" cy="799" r="6" transform="rotate(-90 1745 799)" fill="white"/>
<circle cx="1745" cy="747" r="6" transform="rotate(-90 1745 747)" fill="white"/>
<circle cx="1745" cy="695" r="6" transform="rotate(-90 1745 695)" fill="white"/>
<circle cx="1745" cy="643" r="6" transform="rotate(-90 1745 643)" fill="white"/>
<circle cx="1787" cy="1163" r="6" transform="rotate(-90 1787 1163)" fill="white"/>
<circle cx="1787" cy="1111" r="6" transform="rotate(-90 1787 1111)" fill="white"/>
<circle cx="1787" cy="1059" r="6" transform="rotate(-90 1787 1059)" fill="white"/>
<circle cx="1787" cy="1007" r="6" transform="rotate(-90 1787 1007)" fill="white"/>
<circle cx="1787" cy="955" r="6" transform="rotate(-90 1787 955)" fill="white"/>
<circle cx="1787" cy="903" r="6" transform="rotate(-90 1787 903)" fill="white"/>
<circle cx="1787" cy="851" r="6" transform="rotate(-90 1787 851)" fill="white"/>
<circle cx="1787" cy="799" r="6" transform="rotate(-90 1787 799)" fill="white"/>
<circle cx="1787" cy="747" r="6" transform="rotate(-90 1787 747)" fill="white"/>
<circle cx="1787" cy="695" r="6" transform="rotate(-90 1787 695)" fill="white"/>
<circle cx="1787" cy="643" r="6" transform="rotate(-90 1787 643)" fill="white"/>
<circle cx="1829" cy="1163" r="6" transform="rotate(-90 1829 1163)" fill="white"/>
<circle cx="1829" cy="1111" r="6" transform="rotate(-90 1829 1111)" fill="white"/>
<circle cx="1829" cy="1059" r="6" transform="rotate(-90 1829 1059)" fill="white"/>
<circle cx="1829" cy="1007" r="6" transform="rotate(-90 1829 1007)" fill="white"/>
<circle cx="1829" cy="955" r="6" transform="rotate(-90 1829 955)" fill="white"/>
<circle cx="1829" cy="903" r="6" transform="rotate(-90 1829 903)" fill="white"/>
<circle cx="1829" cy="851" r="6" transform="rotate(-90 1829 851)" fill="white"/>
<circle cx="1829" cy="799" r="6" transform="rotate(-90 1829 799)" fill="white"/>
<circle cx="1829" cy="747" r="6" transform="rotate(-90 1829 747)" fill="white"/>
<circle cx="1829" cy="695" r="6" transform="rotate(-90 1829 695)" fill="white"/>
<circle cx="1829" cy="643" r="6" transform="rotate(-90 1829 643)" fill="white"/>
<circle cx="1871" cy="1163" r="6" transform="rotate(-90 1871 1163)" fill="white"/>
<circle cx="1871" cy="1111" r="6" transform="rotate(-90 1871 1111)" fill="white"/>
<circle cx="1871" cy="1059" r="6" transform="rotate(-90 1871 1059)" fill="white"/>
<circle cx="1871" cy="1007" r="6" transform="rotate(-90 1871 1007)" fill="white"/>
<circle cx="1871" cy="955" r="6" transform="rotate(-90 1871 955)" fill="white"/>
<circle cx="1871" cy="903" r="6" transform="rotate(-90 1871 903)" fill="white"/>
<circle cx="1871" cy="851" r="6" transform="rotate(-90 1871 851)" fill="white"/>
<circle cx="1871" cy="799" r="6" transform="rotate(-90 1871 799)" fill="white"/>
<circle cx="1871" cy="747" r="6" transform="rotate(-90 1871 747)" fill="white"/>
<circle cx="1871" cy="695" r="6" transform="rotate(-90 1871 695)" fill="white"/>
<circle cx="1871" cy="643" r="6" transform="rotate(-90 1871 643)" fill="white"/>
</g>
<defs>
<filter id="filter0_f_1_14" x="-95" y="507" width="982.77" height="982.77" filterUnits="userSpaceOnUse" color-interpolation-filters="sRGB">
<feFlood flood-opacity="0" result="BackgroundImageFix"/>
<feBlend mode="normal" in="SourceGraphic" in2="BackgroundImageFix" result="shape"/>
<feGaussianBlur stdDeviation="20" result="effect1_foregroundBlur_1_14"/>
</filter>
<filter id="filter1_f_1_14" x="-95" y="507" width="982.77" height="982.77" filterUnits="userSpaceOnUse" color-interpolation-filters="sRGB">
<feFlood flood-opacity="0" result="BackgroundImageFix"/>
<feBlend mode="normal" in="SourceGraphic" in2="BackgroundImageFix" result="shape"/>
<feGaussianBlur stdDeviation="20" result="effect1_foregroundBlur_1_14"/>
</filter>
<filter id="filter2_f_1_14" x="-63.3139" y="538.686" width="919.397" height="919.397" filterUnits="userSpaceOnUse" color-interpolation-filters="sRGB">
<feFlood flood-opacity="0" result="BackgroundImageFix"/>
<feBlend mode="normal" in="SourceGraphic" in2="BackgroundImageFix" result="shape"/>
<feGaussianBlur stdDeviation="20" result="effect1_foregroundBlur_1_14"/>
</filter>
<filter id="filter3_b_1_14" x="169" y="160" width="1516" height="889" filterUnits="userSpaceOnUse" color-interpolation-filters="sRGB">
<feFlood flood-opacity="0" result="BackgroundImageFix"/>
<feGaussianBlur in="BackgroundImageFix" stdDeviation="20"/>
<feComposite in2="SourceAlpha" operator="in" result="effect1_backgroundBlur_1_14"/>
<feBlend mode="normal" in="SourceGraphic" in2="effect1_backgroundBlur_1_14" result="shape"/>
</filter>
<filter id="filter4_b_1_14" x="208" y="191" width="1438" height="826" filterUnits="userSpaceOnUse" color-interpolation-filters="sRGB">
<feFlood flood-opacity="0" result="BackgroundImageFix"/>
<feGaussianBlur in="BackgroundImageFix" stdDeviation="20"/>
<feComposite in2="SourceAlpha" operator="in" result="effect1_backgroundBlur_1_14"/>
<feBlend mode="normal" in="SourceGraphic" in2="effect1_backgroundBlur_1_14" result="shape"/>
</filter>
<filter id="filter5_f_1_14" x="1128.89" y="680.99" width="764.93" height="739.715" filterUnits="userSpaceOnUse" color-interpolation-filters="sRGB">
<feFlood flood-opacity="0" result="BackgroundImageFix"/>
<feBlend mode="normal" in="SourceGraphic" in2="BackgroundImageFix" result="shape"/>
<feGaussianBlur stdDeviation="2" result="effect1_foregroundBlur_1_14"/>
</filter>
<filter id="filter6_f_1_14" x="1052.89" y="604.99" width="915.332" height="889.78" filterUnits="userSpaceOnUse" color-interpolation-filters="sRGB">
<feFlood flood-opacity="0" result="BackgroundImageFix"/>
<feBlend mode="normal" in="SourceGraphic" in2="BackgroundImageFix" result="shape"/>
<feGaussianBlur stdDeviation="40" result="effect1_foregroundBlur_1_14"/>
</filter>
<filter id="filter7_f_1_14" x="1159.45" y="1191.07" width="317.588" height="305.638" filterUnits="userSpaceOnUse" color-interpolation-filters="sRGB">
<feFlood flood-opacity="0" result="BackgroundImageFix"/>
<feBlend mode="normal" in="SourceGraphic" in2="BackgroundImageFix" result="shape"/>
<feGaussianBlur stdDeviation="40" result="effect1_foregroundBlur_1_14"/>
</filter>
<filter id="filter8_f_1_14" x="1652.15" y="738.501" width="317.671" height="305.81" filterUnits="userSpaceOnUse" color-interpolation-filters="sRGB">
<feFlood flood-opacity="0" result="BackgroundImageFix"/>
<feBlend mode="normal" in="SourceGraphic" in2="BackgroundImageFix" result="shape"/>
<feGaussianBlur stdDeviation="40" result="effect1_foregroundBlur_1_14"/>
</filter>
<linearGradient id="paint0_linear_1_14" x1="506.5" y1="22.5" x2="1493" y2="1146.5" gradientUnits="userSpaceOnUse">
<stop stop-color="#EAEFFA"/>
<stop offset="0.448659" stop-color="#CFF4EE"/>
<stop offset="0.770833" stop-color="#CFDCF4"/>
<stop offset="1" stop-color="#B4C6E9"/>
</linearGradient>
<radialGradient id="paint1_radial_1_14" cx="0" cy="0" r="1" gradientUnits="userSpaceOnUse" gradientTransform="translate(451.029 905.508) scale(525.477)">
<stop stop-color="#00BFA7"/>
<stop offset="0.1" stop-color="#00BFA7" stop-opacity="0.95"/>
<stop offset="0.28" stop-color="#00BFA7" stop-opacity="0.82"/>
<stop offset="0.49" stop-color="#00BFA7" stop-opacity="0.62"/>
<stop offset="0.75" stop-color="#00BFA7" stop-opacity="0.33"/>
<stop offset="1" stop-color="#00BFA7" stop-opacity="0"/>
</radialGradient>
<radialGradient id="paint2_radial_1_14" cx="0" cy="0" r="1" gradientUnits="userSpaceOnUse" gradientTransform="translate(284.44 1173.13) scale(525.477)">
<stop stop-color="#749CD3"/>
<stop offset="0.17" stop-color="#789AD4" stop-opacity="0.86"/>
<stop offset="0.53" stop-color="#8396D7" stop-opacity="0.51"/>
<stop offset="1" stop-color="#9391DD" stop-opacity="0"/>
</radialGradient>
<radialGradient id="paint3_radial_1_14" cx="0" cy="0" r="1" gradientUnits="userSpaceOnUse" gradientTransform="translate(447.234 912.054) scale(488.763)">
<stop stop-color="#6891DD"/>
<stop offset="0.09" stop-color="#6891DD" stop-opacity="0.96"/>
<stop offset="0.25" stop-color="#6891DD" stop-opacity="0.85"/>
<stop offset="0.44" stop-color="#6891DD" stop-opacity="0.67"/>
<stop offset="0.67" stop-color="#6891DD" stop-opacity="0.42"/>
<stop offset="0.92" stop-color="#6891DD" stop-opacity="0.1"/>
<stop offset="1" stop-color="#6891DD" stop-opacity="0"/>
</radialGradient>
<radialGradient id="paint4_radial_1_14" cx="0" cy="0" r="1" gradientUnits="userSpaceOnUse" gradientTransform="translate(123.099 745.574) rotate(-45) scale(112.135 62.7954)">
<stop stop-color="#7FF2FF"/>
<stop offset="0.07" stop-color="#8EF3FF" stop-opacity="0.88"/>
<stop offset="0.21" stop-color="#ABF6FF" stop-opacity="0.65"/>
<stop offset="0.36" stop-color="#C5F9FF" stop-opacity="0.45"/>
<stop offset="0.5" stop-color="#D9FBFF" stop-opacity="0.29"/>
<stop offset="0.64" stop-color="#EAFCFF" stop-opacity="0.16"/>
<stop offset="0.77" stop-color="#F5FEFF" stop-opacity="0.07"/>
<stop offset="0.89" stop-color="#FCFEFF" stop-opacity="0.02"/>
<stop offset="1" stop-color="white" stop-opacity="0"/>
</radialGradient>
<radialGradient id="paint5_radial_1_14" cx="0" cy="0" r="1" gradientUnits="userSpaceOnUse" gradientTransform="translate(144.738 1283.79) rotate(38.34) scale(112.135 62.7954)">
<stop stop-color="#DA91DD"/>
<stop offset="0.02" stop-color="#D58FDB" stop-opacity="0.9"/>
<stop offset="0.07" stop-color="#CD8CDA" stop-opacity="0.71"/>
<stop offset="0.12" stop-color="#C68AD8" stop-opacity="0.54"/>
<stop offset="0.17" stop-color="#C088D6" stop-opacity="0.39"/>
<stop offset="0.23" stop-color="#BB86D5" stop-opacity="0.27"/>
<stop offset="0.3" stop-color="#B785D4" stop-opacity="0.17"/>
<stop offset="0.38" stop-color="#B384D3" stop-opacity="0.09"/>
<stop offset="0.48" stop-color="#B183D3" stop-opacity="0.04"/>
<stop offset="0.62" stop-color="#B083D3" stop-opacity="0"/>
<stop offset="1" stop-color="#B083D3" stop-opacity="0"/>
</radialGradient>
<radialGradient id="paint6_radial_1_14" cx="0" cy="0" r="1" gradientUnits="userSpaceOnUse" gradientTransform="translate(679.264 1196.01) rotate(-51.77) scale(172.498 97.4414)">
<stop stop-color="#DA91DD"/>
<stop offset="0.15" stop-color="#CF8DDA" stop-opacity="0.75"/>
<stop offset="0.31" stop-color="#C58AD8" stop-opacity="0.52"/>
<stop offset="0.46" stop-color="#BE87D6" stop-opacity="0.33"/>
<stop offset="0.61" stop-color="#B785D4" stop-opacity="0.19"/>
<stop offset="0.75" stop-color="#B384D3" stop-opacity="0.08"/>
<stop offset="0.88" stop-color="#B083D3" stop-opacity="0.02"/>
<stop offset="1" stop-color="#B083D3" stop-opacity="0"/>
</radialGradient>
<radialGradient id="paint7_radial_1_14" cx="0" cy="0" r="1" gradientUnits="userSpaceOnUse" gradientTransform="translate(326.863 56.2622) scale(190.929)">
<stop stop-color="#00BFA7"/>
<stop offset="0.1" stop-color="#00BFA7" stop-opacity="0.95"/>
<stop offset="0.28" stop-color="#00BFA7" stop-opacity="0.82"/>
<stop offset="0.49" stop-color="#00BFA7" stop-opacity="0.62"/>
<stop offset="0.75" stop-color="#00BFA7" stop-opacity="0.33"/>
<stop offset="1" stop-color="#00BFA7" stop-opacity="0"/>
</radialGradient>
<radialGradient id="paint8_radial_1_14" cx="0" cy="0" r="1" gradientUnits="userSpaceOnUse" gradientTransform="translate(266.334 153.502) scale(190.929)">
<stop stop-color="#749CD3"/>
<stop offset="0.17" stop-color="#789AD4" stop-opacity="0.86"/>
<stop offset="0.53" stop-color="#8396D7" stop-opacity="0.51"/>
<stop offset="1" stop-color="#9391DD" stop-opacity="0"/>
</radialGradient>
<radialGradient id="paint9_radial_1_14" cx="0" cy="0" r="1" gradientUnits="userSpaceOnUse" gradientTransform="translate(325.484 58.6406) scale(177.59)">
<stop stop-color="#6891DD"/>
<stop offset="0.09" stop-color="#6891DD" stop-opacity="0.96"/>
<stop offset="0.25" stop-color="#6891DD" stop-opacity="0.85"/>
<stop offset="0.44" stop-color="#6891DD" stop-opacity="0.67"/>
<stop offset="0.67" stop-color="#6891DD" stop-opacity="0.42"/>
<stop offset="0.92" stop-color="#6891DD" stop-opacity="0.1"/>
<stop offset="1" stop-color="#6891DD" stop-opacity="0"/>
</radialGradient>
<radialGradient id="paint10_radial_1_14" cx="0" cy="0" r="1" gradientUnits="userSpaceOnUse" gradientTransform="translate(207.711 -1.84902) rotate(-45) scale(40.7436 22.8164)">
<stop stop-color="#7FF2FF"/>
<stop offset="0.07" stop-color="#8EF3FF" stop-opacity="0.88"/>
<stop offset="0.21" stop-color="#ABF6FF" stop-opacity="0.65"/>
<stop offset="0.36" stop-color="#C5F9FF" stop-opacity="0.45"/>
<stop offset="0.5" stop-color="#D9FBFF" stop-opacity="0.29"/>
<stop offset="0.64" stop-color="#EAFCFF" stop-opacity="0.16"/>
<stop offset="0.77" stop-color="#F5FEFF" stop-opacity="0.07"/>
<stop offset="0.89" stop-color="#FCFEFF" stop-opacity="0.02"/>
<stop offset="1" stop-color="white" stop-opacity="0"/>
</radialGradient>
<radialGradient id="paint11_radial_1_14" cx="0" cy="0" r="1" gradientUnits="userSpaceOnUse" gradientTransform="translate(215.574 193.71) rotate(38.34) scale(40.7436 22.8164)">
<stop stop-color="#DA91DD"/>
<stop offset="0.02" stop-color="#D58FDB" stop-opacity="0.9"/>
<stop offset="0.07" stop-color="#CD8CDA" stop-opacity="0.71"/>
<stop offset="0.12" stop-color="#C68AD8" stop-opacity="0.54"/>
<stop offset="0.17" stop-color="#C088D6" stop-opacity="0.39"/>
<stop offset="0.23" stop-color="#BB86D5" stop-opacity="0.27"/>
<stop offset="0.3" stop-color="#B785D4" stop-opacity="0.17"/>
<stop offset="0.38" stop-color="#B384D3" stop-opacity="0.09"/>
<stop offset="0.48" stop-color="#B183D3" stop-opacity="0.04"/>
<stop offset="0.62" stop-color="#B083D3" stop-opacity="0"/>
<stop offset="1" stop-color="#B083D3" stop-opacity="0"/>
</radialGradient>
<radialGradient id="paint12_radial_1_14" cx="0" cy="0" r="1" gradientUnits="userSpaceOnUse" gradientTransform="translate(284.466 225.417) rotate(10.61) scale(53.2837 22.7778)">
<stop stop-color="#DA91DD"/>
<stop offset="0.15" stop-color="#CF8DDA" stop-opacity="0.75"/>
<stop offset="0.31" stop-color="#C58AD8" stop-opacity="0.52"/>
<stop offset="0.46" stop-color="#BE87D6" stop-opacity="0.33"/>
<stop offset="0.61" stop-color="#B785D4" stop-opacity="0.19"/>
<stop offset="0.75" stop-color="#B384D3" stop-opacity="0.08"/>
<stop offset="0.88" stop-color="#B083D3" stop-opacity="0.02"/>
<stop offset="1" stop-color="#B083D3" stop-opacity="0"/>
</radialGradient>
<radialGradient id="paint13_radial_1_14" cx="0" cy="0" r="1" gradientUnits="userSpaceOnUse" gradientTransform="translate(409.791 161.815) rotate(-51.77) scale(62.6761 35.4048)">
<stop stop-color="#DA91DD"/>
<stop offset="0.15" stop-color="#CF8DDA" stop-opacity="0.75"/>
<stop offset="0.31" stop-color="#C58AD8" stop-opacity="0.52"/>
<stop offset="0.46" stop-color="#BE87D6" stop-opacity="0.33"/>
<stop offset="0.61" stop-color="#B785D4" stop-opacity="0.19"/>
<stop offset="0.75" stop-color="#B384D3" stop-opacity="0.08"/>
<stop offset="0.88" stop-color="#B083D3" stop-opacity="0.02"/>
<stop offset="1" stop-color="#B083D3" stop-opacity="0"/>
</radialGradient>
<linearGradient id="paint14_linear_1_14" x1="301.131" y1="421.633" x2="642.912" y2="294.562" gradientUnits="userSpaceOnUse">
<stop stop-color="#BFFFFF"/>
<stop offset="1" stop-color="#8EC2F3"/>
</linearGradient>
<linearGradient id="paint15_linear_1_14" x1="346.797" y1="478.023" x2="359.051" y2="442.801" gradientUnits="userSpaceOnUse">
<stop stop-color="#1DC3B2"/>
<stop offset="1" stop-color="#0B91FF"/>
</linearGradient>
<linearGradient id="paint16_linear_1_14" x1="592.031" y1="447.545" x2="604.305" y2="412.264" gradientUnits="userSpaceOnUse">
<stop stop-color="#1DC3B2"/>
<stop offset="1" stop-color="#0B91FF"/>
</linearGradient>
<linearGradient id="paint17_linear_1_14" x1="1354.53" y1="41.2699" x2="1513.3" y2="41.2699" gradientUnits="userSpaceOnUse">
<stop stop-color="#1DC3B2"/>
<stop offset="1" stop-color="#0B91FF"/>
</linearGradient>
<linearGradient id="paint18_linear_1_14" x1="1293.41" y1="76.3635" x2="1683.01" y2="76.3635" gradientUnits="userSpaceOnUse">
<stop stop-color="#1DC3B2"/>
<stop offset="1" stop-color="#0B91FF"/>
</linearGradient>
<linearGradient id="paint19_linear_1_14" x1="1287.34" y1="-201.105" x2="1605.71" y2="306.373" gradientUnits="userSpaceOnUse">
<stop stop-color="#BFFFFF"/>
<stop offset="1" stop-color="#8EC2F3"/>
</linearGradient>
<linearGradient id="paint20_linear_1_14" x1="959.5" y1="445" x2="959.5" y2="644" gradientUnits="userSpaceOnUse">
<stop stop-color="#1D91FF"/>
<stop offset="1" stop-color="#20AD94" stop-opacity="0"/>
</linearGradient>
<linearGradient id="paint21_linear_1_14" x1="926.5" y1="642" x2="926.5" y2="719" gradientUnits="userSpaceOnUse">
<stop stop-color="#1D91FF"/>
<stop offset="1" stop-color="#20AD94" stop-opacity="0"/>
</linearGradient>
<linearGradient id="paint22_linear_1_14" x1="822.583" y1="1162.74" x2="916.556" y2="1162.74" gradientUnits="userSpaceOnUse">
<stop stop-color="#1DC3B2"/>
<stop offset="1" stop-color="#0B91FF"/>
</linearGradient>
<linearGradient id="paint23_linear_1_14" x1="786.411" y1="1183.51" x2="1017" y2="1183.51" gradientUnits="userSpaceOnUse">
<stop stop-color="#1DC3B2"/>
<stop offset="1" stop-color="#0B91FF"/>
</linearGradient>
<linearGradient id="paint24_linear_1_14" x1="782.815" y1="1019.28" x2="971.25" y2="1319.65" gradientUnits="userSpaceOnUse">
<stop stop-color="#BFFFFF"/>
<stop offset="1" stop-color="#8EC2F3"/>
</linearGradient>
<linearGradient id="paint25_linear_1_14" x1="1406.01" y1="710.484" x2="1400.36" y2="926.492" gradientUnits="userSpaceOnUse">
<stop stop-color="#BFFFFF"/>
<stop offset="1" stop-color="#8EC2F3"/>
</linearGradient>
<linearGradient id="paint26_linear_1_14" x1="1364.91" y1="723.135" x2="1381.57" y2="737.655" gradientUnits="userSpaceOnUse">
<stop stop-color="#1DC3B2"/>
<stop offset="1" stop-color="#0B91FF"/>
</linearGradient>
<linearGradient id="paint27_linear_1_14" x1="1327.49" y1="864.713" x2="1344.17" y2="879.257" gradientUnits="userSpaceOnUse">
<stop stop-color="#1DC3B2"/>
<stop offset="1" stop-color="#0B91FF"/>
</linearGradient>
<linearGradient id="paint28_linear_1_14" x1="1143.09" y1="1339.74" x2="1697.06" y2="522.743" gradientUnits="userSpaceOnUse">
<stop stop-color="#BFFFFF"/>
<stop offset="1" stop-color="#8EC2F3"/>
</linearGradient>
<linearGradient id="paint29_linear_1_14" x1="1332.35" y1="1392.34" x2="1304.04" y2="1295.43" gradientUnits="userSpaceOnUse">
<stop stop-color="#1DC3B2"/>
<stop offset="1" stop-color="#0B91FF"/>
</linearGradient>
<linearGradient id="paint30_linear_1_14" x1="1825.16" y1="939.952" x2="1796.81" y2="842.888" gradientUnits="userSpaceOnUse">
<stop stop-color="#1DC3B2"/>
<stop offset="1" stop-color="#0B91FF"/>
</linearGradient>
<radialGradient id="paint31_radial_1_14" cx="0" cy="0" r="1" gradientUnits="userSpaceOnUse" gradientTransform="translate(1598.15 425.999) scale(121.654)">
<stop stop-color="#00BFA7"/>
<stop offset="0.1" stop-color="#00BFA7" stop-opacity="0.95"/>
<stop offset="0.28" stop-color="#00BFA7" stop-opacity="0.82"/>
<stop offset="0.49" stop-color="#00BFA7" stop-opacity="0.62"/>
<stop offset="0.75" stop-color="#00BFA7" stop-opacity="0.33"/>
<stop offset="1" stop-color="#00BFA7" stop-opacity="0"/>
</radialGradient>
<radialGradient id="paint32_radial_1_14" cx="0" cy="0" r="1" gradientUnits="userSpaceOnUse" gradientTransform="translate(1559.58 487.957) scale(121.654)">
<stop stop-color="#749CD3"/>
<stop offset="0.17" stop-color="#789AD4" stop-opacity="0.86"/>
<stop offset="0.53" stop-color="#8396D7" stop-opacity="0.51"/>
<stop offset="1" stop-color="#9391DD" stop-opacity="0"/>
</radialGradient>
<radialGradient id="paint33_radial_1_14" cx="0" cy="0" r="1" gradientUnits="userSpaceOnUse" gradientTransform="translate(1597.27 427.514) scale(113.154)">
<stop stop-color="#6891DD"/>
<stop offset="0.09" stop-color="#6891DD" stop-opacity="0.96"/>
<stop offset="0.25" stop-color="#6891DD" stop-opacity="0.85"/>
<stop offset="0.44" stop-color="#6891DD" stop-opacity="0.67"/>
<stop offset="0.67" stop-color="#6891DD" stop-opacity="0.42"/>
<stop offset="0.92" stop-color="#6891DD" stop-opacity="0.1"/>
<stop offset="1" stop-color="#6891DD" stop-opacity="0"/>
</radialGradient>
<radialGradient id="paint34_radial_1_14" cx="0" cy="0" r="1" gradientUnits="userSpaceOnUse" gradientTransform="translate(1522.23 388.972) rotate(-45) scale(25.9604 14.5378)">
<stop stop-color="#7FF2FF"/>
<stop offset="0.07" stop-color="#8EF3FF" stop-opacity="0.88"/>
<stop offset="0.21" stop-color="#ABF6FF" stop-opacity="0.65"/>
<stop offset="0.36" stop-color="#C5F9FF" stop-opacity="0.45"/>
<stop offset="0.5" stop-color="#D9FBFF" stop-opacity="0.29"/>
<stop offset="0.64" stop-color="#EAFCFF" stop-opacity="0.16"/>
<stop offset="0.77" stop-color="#F5FEFF" stop-opacity="0.07"/>
<stop offset="0.89" stop-color="#FCFEFF" stop-opacity="0.02"/>
<stop offset="1" stop-color="white" stop-opacity="0"/>
</radialGradient>
<radialGradient id="paint35_radial_1_14" cx="0" cy="0" r="1" gradientUnits="userSpaceOnUse" gradientTransform="translate(1527.24 513.576) rotate(38.34) scale(25.9604 14.5378)">
<stop stop-color="#DA91DD"/>
<stop offset="0.02" stop-color="#D58FDB" stop-opacity="0.9"/>
<stop offset="0.07" stop-color="#CD8CDA" stop-opacity="0.71"/>
<stop offset="0.12" stop-color="#C68AD8" stop-opacity="0.54"/>
<stop offset="0.17" stop-color="#C088D6" stop-opacity="0.39"/>
<stop offset="0.23" stop-color="#BB86D5" stop-opacity="0.27"/>
<stop offset="0.3" stop-color="#B785D4" stop-opacity="0.17"/>
<stop offset="0.38" stop-color="#B384D3" stop-opacity="0.09"/>
<stop offset="0.48" stop-color="#B183D3" stop-opacity="0.04"/>
<stop offset="0.62" stop-color="#B083D3" stop-opacity="0"/>
<stop offset="1" stop-color="#B083D3" stop-opacity="0"/>
</radialGradient>
<radialGradient id="paint36_radial_1_14" cx="0" cy="0" r="1" gradientUnits="userSpaceOnUse" gradientTransform="translate(1571.14 533.778) rotate(10.61) scale(33.9506 14.5133)">
<stop stop-color="#DA91DD"/>
<stop offset="0.15" stop-color="#CF8DDA" stop-opacity="0.75"/>
<stop offset="0.31" stop-color="#C58AD8" stop-opacity="0.52"/>
<stop offset="0.46" stop-color="#BE87D6" stop-opacity="0.33"/>
<stop offset="0.61" stop-color="#B785D4" stop-opacity="0.19"/>
<stop offset="0.75" stop-color="#B384D3" stop-opacity="0.08"/>
<stop offset="0.88" stop-color="#B083D3" stop-opacity="0.02"/>
<stop offset="1" stop-color="#B083D3" stop-opacity="0"/>
</radialGradient>
<radialGradient id="paint37_radial_1_14" cx="0" cy="0" r="1" gradientUnits="userSpaceOnUse" gradientTransform="translate(1650.99 493.253) rotate(-51.77) scale(39.9352 22.5588)">
<stop stop-color="#DA91DD"/>
<stop offset="0.15" stop-color="#CF8DDA" stop-opacity="0.75"/>
<stop offset="0.31" stop-color="#C58AD8" stop-opacity="0.52"/>
<stop offset="0.46" stop-color="#BE87D6" stop-opacity="0.33"/>
<stop offset="0.61" stop-color="#B785D4" stop-opacity="0.19"/>
<stop offset="0.75" stop-color="#B384D3" stop-opacity="0.08"/>
<stop offset="0.88" stop-color="#B083D3" stop-opacity="0.02"/>
<stop offset="1" stop-color="#B083D3" stop-opacity="0"/>
</radialGradient>
<radialGradient id="paint38_radial_1_14" cx="0" cy="0" r="1" gradientUnits="userSpaceOnUse" gradientTransform="translate(411.874 688.131) scale(88.1362)">
<stop stop-color="#00BFA7"/>
<stop offset="0.1" stop-color="#00BFA7" stop-opacity="0.95"/>
<stop offset="0.28" stop-color="#00BFA7" stop-opacity="0.82"/>
<stop offset="0.49" stop-color="#00BFA7" stop-opacity="0.62"/>
<stop offset="0.75" stop-color="#00BFA7" stop-opacity="0.33"/>
<stop offset="1" stop-color="#00BFA7" stop-opacity="0"/>
</radialGradient>
<radialGradient id="paint39_radial_1_14" cx="0" cy="0" r="1" gradientUnits="userSpaceOnUse" gradientTransform="translate(383.933 733.019) scale(88.1362)">
<stop stop-color="#749CD3"/>
<stop offset="0.17" stop-color="#789AD4" stop-opacity="0.86"/>
<stop offset="0.53" stop-color="#8396D7" stop-opacity="0.51"/>
<stop offset="1" stop-color="#9391DD" stop-opacity="0"/>
</radialGradient>
<radialGradient id="paint40_radial_1_14" cx="0" cy="0" r="1" gradientUnits="userSpaceOnUse" gradientTransform="translate(411.238 689.229) scale(81.9783)">
<stop stop-color="#6891DD"/>
<stop offset="0.09" stop-color="#6891DD" stop-opacity="0.96"/>
<stop offset="0.25" stop-color="#6891DD" stop-opacity="0.85"/>
<stop offset="0.44" stop-color="#6891DD" stop-opacity="0.67"/>
<stop offset="0.67" stop-color="#6891DD" stop-opacity="0.42"/>
<stop offset="0.92" stop-color="#6891DD" stop-opacity="0.1"/>
<stop offset="1" stop-color="#6891DD" stop-opacity="0"/>
</radialGradient>
<radialGradient id="paint41_radial_1_14" cx="0" cy="0" r="1" gradientUnits="userSpaceOnUse" gradientTransform="translate(356.872 661.306) rotate(-45) scale(18.8079 10.5324)">
<stop stop-color="#7FF2FF"/>
<stop offset="0.07" stop-color="#8EF3FF" stop-opacity="0.88"/>
<stop offset="0.21" stop-color="#ABF6FF" stop-opacity="0.65"/>
<stop offset="0.36" stop-color="#C5F9FF" stop-opacity="0.45"/>
<stop offset="0.5" stop-color="#D9FBFF" stop-opacity="0.29"/>
<stop offset="0.64" stop-color="#EAFCFF" stop-opacity="0.16"/>
<stop offset="0.77" stop-color="#F5FEFF" stop-opacity="0.07"/>
<stop offset="0.89" stop-color="#FCFEFF" stop-opacity="0.02"/>
<stop offset="1" stop-color="white" stop-opacity="0"/>
</radialGradient>
<radialGradient id="paint42_radial_1_14" cx="0" cy="0" r="1" gradientUnits="userSpaceOnUse" gradientTransform="translate(360.501 751.579) rotate(38.34) scale(18.8079 10.5324)">
<stop stop-color="#DA91DD"/>
<stop offset="0.02" stop-color="#D58FDB" stop-opacity="0.9"/>
<stop offset="0.07" stop-color="#CD8CDA" stop-opacity="0.71"/>
<stop offset="0.12" stop-color="#C68AD8" stop-opacity="0.54"/>
<stop offset="0.17" stop-color="#C088D6" stop-opacity="0.39"/>
<stop offset="0.23" stop-color="#BB86D5" stop-opacity="0.27"/>
<stop offset="0.3" stop-color="#B785D4" stop-opacity="0.17"/>
<stop offset="0.38" stop-color="#B384D3" stop-opacity="0.09"/>
<stop offset="0.48" stop-color="#B183D3" stop-opacity="0.04"/>
<stop offset="0.62" stop-color="#B083D3" stop-opacity="0"/>
<stop offset="1" stop-color="#B083D3" stop-opacity="0"/>
</radialGradient>
<radialGradient id="paint43_radial_1_14" cx="0" cy="0" r="1" gradientUnits="userSpaceOnUse" gradientTransform="translate(392.304 766.216) rotate(10.61) scale(24.5967 10.5146)">
<stop stop-color="#DA91DD"/>
<stop offset="0.15" stop-color="#CF8DDA" stop-opacity="0.75"/>
<stop offset="0.31" stop-color="#C58AD8" stop-opacity="0.52"/>
<stop offset="0.46" stop-color="#BE87D6" stop-opacity="0.33"/>
<stop offset="0.61" stop-color="#B785D4" stop-opacity="0.19"/>
<stop offset="0.75" stop-color="#B384D3" stop-opacity="0.08"/>
<stop offset="0.88" stop-color="#B083D3" stop-opacity="0.02"/>
<stop offset="1" stop-color="#B083D3" stop-opacity="0"/>
</radialGradient>
<radialGradient id="paint44_radial_1_14" cx="0" cy="0" r="1" gradientUnits="userSpaceOnUse" gradientTransform="translate(450.155 736.856) rotate(-51.77) scale(28.9324 16.3435)">
<stop stop-color="#DA91DD"/>
<stop offset="0.15" stop-color="#CF8DDA" stop-opacity="0.75"/>
<stop offset="0.31" stop-color="#C58AD8" stop-opacity="0.52"/>
<stop offset="0.46" stop-color="#BE87D6" stop-opacity="0.33"/>
<stop offset="0.61" stop-color="#B785D4" stop-opacity="0.19"/>
<stop offset="0.75" stop-color="#B384D3" stop-opacity="0.08"/>
<stop offset="0.88" stop-color="#B083D3" stop-opacity="0.02"/>
<stop offset="1" stop-color="#B083D3" stop-opacity="0"/>
</radialGradient>
<clipPath id="clip0_1_14">
<rect width="1920" height="1210" fill="white"/>
</clipPath>
</defs>
</svg>
